<svg xmlns="http://www.w3.org/2000/svg" viewBox="0 0 3352 129">
<path d="M 3289 51 L 3287 49 L 3285 49 L 3284 48 L 3283 49 L 3281 49 L 3279 51 L 3277 49 L 3276 49 L 3273 52 L 3272 52 L 3269 49 L 3268 49 L 3267 50 L 3267 64 L 3269 65 L 3272 62 L 3273 62 L 3276 65 L 3277 65 L 3278 64 L 3278 54 L 3281 51 L 3283 51 L 3286 54 L 3286 64 L 3288 65 L 3289 64 Z" fill="#7f7f7f" stroke="none"/>
<path d="M 3210 44 L 3210 64 L 3211 65 L 3223 65 L 3227 61 L 3232 65 L 3237 65 L 3239 64 L 3244 58 L 3250 65 L 3247 68 L 3249 70 L 3255 71 L 3256 70 L 3258 70 L 3261 67 L 3261 50 L 3260 49 L 3259 49 L 3257 51 L 3255 49 L 3249 49 L 3244 54 L 3243 54 L 3238 49 L 3235 49 L 3234 48 L 3233 49 L 3230 49 L 3227 52 L 3227 55 L 3226 56 L 3227 60 L 3224 63 L 3223 62 L 3216 62 L 3213 59 L 3213 44 L 3212 43 Z" fill="#7f7f7f" stroke="none"/>
<path d="M 1306 51 L 1306 54 L 1307 55 L 1307 57 L 1309 61 L 1311 63 L 1315 65 L 1317 65 L 1318 66 L 1353 66 L 1354 65 L 1356 65 L 1360 63 L 1362 61 L 1364 57 L 1364 55 L 1365 54 L 1365 51 L 1364 50 L 1364 48 L 1362 44 L 1360 42 L 1356 40 L 1354 40 L 1353 39 L 1318 39 L 1317 40 L 1315 40 L 1311 42 L 1309 44 L 1307 48 L 1307 50 Z" fill="#7f7f7f" stroke="none"/>
<path d="M 3351 125 L 3348 122 L 3342 128 L 3351 128 Z" fill="#7d7e7b" stroke="none"/>
<path d="M 2900 51 L 2893 51 L 2892 52 L 2894 56 L 2888 62 L 2890 64 L 2892 64 L 2897 59 L 2898 59 L 2900 61 L 2902 60 L 2902 53 Z" fill="#7d7e7b" stroke="none"/>
<path d="M 1272 49 L 1270 50 L 1267 54 L 1267 60 L 1270 64 L 1272 65 L 1277 65 L 1281 62 L 1279 60 L 1282 57 L 1282 54 L 1279 50 L 1277 49 Z" fill="#7d7e7b" stroke="none"/>
<path d="M 1181 49 L 1177 51 L 1176 51 L 1174 49 L 1172 50 L 1172 64 L 1173 65 L 1175 65 L 1176 64 L 1176 56 L 1180 52 L 1182 51 Z" fill="#7d7e7b" stroke="none"/>
<path d="M 1019 60 L 1022 64 L 1024 65 L 1029 65 L 1030 64 L 1032 64 L 1036 59 L 1039 62 L 1039 64 L 1040 65 L 1042 65 L 1043 64 L 1043 56 L 1047 52 L 1048 52 L 1049 50 L 1047 49 L 1043 51 L 1041 49 L 1040 49 L 1039 50 L 1039 52 L 1036 55 L 1031 50 L 1029 49 L 1024 49 L 1022 50 L 1019 54 Z" fill="#7d7e7b" stroke="none"/>
<path d="M 986 49 L 985 50 L 985 61 L 986 63 L 989 65 L 993 65 L 995 63 L 997 65 L 999 65 L 1000 64 L 1000 53 L 1001 51 L 999 49 L 997 49 L 996 50 L 996 59 L 993 62 L 992 62 L 989 59 L 989 50 L 988 49 Z" fill="#7d7e7b" stroke="none"/>
<path d="M 873 49 L 871 50 L 867 54 L 868 55 L 868 59 L 867 60 L 871 64 L 873 65 L 878 65 L 882 62 L 880 60 L 883 57 L 883 56 L 880 50 L 878 49 Z" fill="#7d7e7b" stroke="none"/>
<path d="M 274 48 L 263 48 L 262 49 L 268 61 L 270 59 L 275 49 Z" fill="#7d7e7b" stroke="none"/>
<path d="M 1150 44 L 1149 45 L 1149 60 L 1150 62 L 1152 64 L 1154 64 L 1155 65 L 1161 65 L 1163 64 L 1166 61 L 1166 45 L 1165 44 L 1163 45 L 1163 57 L 1162 59 L 1159 62 L 1156 62 L 1153 59 L 1153 45 L 1152 44 Z" fill="#7d7e7b" stroke="none"/>
<path d="M 967 44 L 966 46 L 967 47 L 969 47 L 972 50 L 972 64 L 973 65 L 975 65 L 976 64 L 976 50 L 979 47 L 982 47 L 983 45 L 982 44 Z" fill="#7d7e7b" stroke="none"/>
<path d="M 701 45 L 702 65 L 705 64 L 705 60 L 708 57 L 714 56 L 719 52 L 722 55 L 722 64 L 724 65 L 725 56 L 732 51 L 735 54 L 736 63 L 740 65 L 747 64 L 753 54 L 756 57 L 758 64 L 762 65 L 766 55 L 769 52 L 772 55 L 771 57 L 773 63 L 776 65 L 784 64 L 786 62 L 784 59 L 788 55 L 791 58 L 791 64 L 794 65 L 795 55 L 798 52 L 802 55 L 803 65 L 809 61 L 814 65 L 824 65 L 827 62 L 832 65 L 833 55 L 836 52 L 841 55 L 842 65 L 844 65 L 848 60 L 854 65 L 862 64 L 864 61 L 860 60 L 856 62 L 853 59 L 853 55 L 856 52 L 860 54 L 864 53 L 859 49 L 852 50 L 847 56 L 841 49 L 834 51 L 831 49 L 830 54 L 827 57 L 821 49 L 815 49 L 811 52 L 814 55 L 809 60 L 806 57 L 805 51 L 802 49 L 795 51 L 792 49 L 788 55 L 782 49 L 776 49 L 771 53 L 766 49 L 760 56 L 755 49 L 750 53 L 745 49 L 740 49 L 735 52 L 731 49 L 726 51 L 723 49 L 720 52 L 714 44 Z" fill="#7d7e7b" stroke="none"/>
<path d="M 359 45 L 359 64 L 360 65 L 369 65 L 370 64 L 373 64 L 378 59 L 381 62 L 381 63 L 384 65 L 388 65 L 389 64 L 394 65 L 397 62 L 395 60 L 395 56 L 396 54 L 394 52 L 394 51 L 391 49 L 385 49 L 383 50 L 382 52 L 384 54 L 384 55 L 380 59 L 377 56 L 377 53 L 378 52 L 376 50 L 376 47 L 374 45 L 372 44 L 360 44 Z" fill="#7d7e7b" stroke="none"/>
<path d="M 221 44 L 208 44 L 207 45 L 207 64 L 208 65 L 210 65 L 211 64 L 211 59 L 214 56 L 220 56 L 221 55 L 220 53 L 214 53 L 211 50 L 214 47 L 221 47 L 222 46 Z" fill="#7d7e7b" stroke="none"/>
<path d="M 1256 43 L 1255 44 L 1255 47 L 1252 50 L 1252 51 L 1255 54 L 1255 60 L 1256 61 L 1256 63 L 1260 65 L 1263 65 L 1264 63 L 1259 59 L 1259 55 L 1263 51 L 1263 50 L 1259 46 L 1259 44 L 1258 43 Z" fill="#7d7e7b" stroke="none"/>
<path d="M 1184 50 L 1184 51 L 1186 53 L 1186 64 L 1187 65 L 1189 65 L 1190 64 L 1192 64 L 1193 65 L 1197 65 L 1202 61 L 1203 61 L 1208 65 L 1212 65 L 1213 64 L 1218 65 L 1221 62 L 1222 62 L 1225 65 L 1227 65 L 1228 64 L 1228 55 L 1231 52 L 1233 52 L 1236 55 L 1236 64 L 1237 65 L 1239 65 L 1242 62 L 1243 62 L 1246 65 L 1248 64 L 1248 53 L 1249 51 L 1247 49 L 1245 50 L 1245 55 L 1242 58 L 1239 55 L 1239 52 L 1236 49 L 1232 49 L 1229 51 L 1227 49 L 1225 49 L 1221 54 L 1217 50 L 1215 49 L 1209 49 L 1206 51 L 1206 52 L 1209 55 L 1204 60 L 1201 57 L 1201 53 L 1200 51 L 1197 49 L 1193 49 L 1192 50 L 1189 47 L 1189 44 L 1188 43 L 1186 44 L 1186 48 Z" fill="#7d7e7b" stroke="none"/>
<path d="M 1084 44 L 1083 43 L 1081 43 L 1080 44 L 1080 51 L 1077 54 L 1073 50 L 1071 49 L 1065 49 L 1063 50 L 1062 52 L 1065 55 L 1059 61 L 1056 58 L 1056 50 L 1054 49 L 1052 51 L 1053 53 L 1053 64 L 1055 65 L 1059 61 L 1064 65 L 1068 65 L 1069 64 L 1074 65 L 1077 62 L 1078 62 L 1081 65 L 1083 65 L 1084 64 Z" fill="#7d7e7b" stroke="none"/>
<path d="M 1008 43 L 1007 44 L 1007 47 L 1004 50 L 1004 51 L 1007 54 L 1007 60 L 1008 61 L 1008 63 L 1012 65 L 1015 65 L 1016 63 L 1011 59 L 1011 55 L 1015 51 L 1015 50 L 1011 46 L 1011 44 L 1010 43 Z" fill="#7d7e7b" stroke="none"/>
<path d="M 616 54 L 613 50 L 611 49 L 606 49 L 604 50 L 599 56 L 596 53 L 596 44 L 595 43 L 593 44 L 593 47 L 590 50 L 589 49 L 585 49 L 579 56 L 576 53 L 576 52 L 572 49 L 567 49 L 566 50 L 564 50 L 560 55 L 557 52 L 557 45 L 556 44 L 553 44 L 550 50 L 547 53 L 543 49 L 540 44 L 538 44 L 537 45 L 537 64 L 538 65 L 540 64 L 540 59 L 543 56 L 546 59 L 548 59 L 550 57 L 553 60 L 553 64 L 554 65 L 556 65 L 557 64 L 557 62 L 560 59 L 564 64 L 566 64 L 567 65 L 572 65 L 574 64 L 579 58 L 585 65 L 589 65 L 590 64 L 595 65 L 596 64 L 596 61 L 599 58 L 604 64 L 606 65 L 611 65 L 615 62 L 613 60 L 616 57 Z" fill="#7d7e7b" stroke="none"/>
<path d="M 524 44 L 523 43 L 521 43 L 520 44 L 520 46 L 517 49 L 513 49 L 509 52 L 508 52 L 505 49 L 501 50 L 500 51 L 498 49 L 497 49 L 496 50 L 496 64 L 497 65 L 499 64 L 499 56 L 503 52 L 505 52 L 506 51 L 509 54 L 509 61 L 511 64 L 513 65 L 517 65 L 518 64 L 523 65 L 524 64 Z" fill="#7d7e7b" stroke="none"/>
<path d="M 399 53 L 403 58 L 399 62 L 403 65 L 409 65 L 414 61 L 418 65 L 420 65 L 421 64 L 421 55 L 424 52 L 426 52 L 429 55 L 429 64 L 430 65 L 432 65 L 435 62 L 439 65 L 442 64 L 449 65 L 451 64 L 455 59 L 462 65 L 470 64 L 474 60 L 479 65 L 483 65 L 484 64 L 489 65 L 490 64 L 490 52 L 486 49 L 481 49 L 477 52 L 480 55 L 475 60 L 472 57 L 472 53 L 467 49 L 462 49 L 455 55 L 452 51 L 449 49 L 445 49 L 444 50 L 441 47 L 441 44 L 440 43 L 438 44 L 438 53 L 435 56 L 429 49 L 425 49 L 424 50 L 421 47 L 421 44 L 420 43 L 417 44 L 417 50 L 416 51 L 417 53 L 417 57 L 414 60 L 409 55 L 412 52 L 412 51 L 409 49 L 404 49 Z" fill="#7d7e7b" stroke="none"/>
<path d="M 226 50 L 226 53 L 225 55 L 226 56 L 226 64 L 227 65 L 229 65 L 232 62 L 233 62 L 236 65 L 238 65 L 239 64 L 239 62 L 242 59 L 245 62 L 245 63 L 248 65 L 254 65 L 258 62 L 256 60 L 256 59 L 258 57 L 258 53 L 254 49 L 248 49 L 246 50 L 242 55 L 239 52 L 239 44 L 238 43 L 236 43 L 235 44 L 235 49 L 232 52 L 228 48 Z" fill="#7d7e7b" stroke="none"/>
<path d="M 3107 36 L 3104 39 L 3104 41 L 3107 44 L 3107 45 L 3104 48 L 3104 51 L 3107 54 L 3107 55 L 3104 58 L 3104 60 L 3109 64 L 3114 64 L 3115 65 L 3120 65 L 3121 64 L 3125 64 L 3126 63 L 3128 63 L 3131 60 L 3131 58 L 3128 55 L 3128 54 L 3131 51 L 3131 48 L 3128 45 L 3128 44 L 3131 41 L 3131 39 L 3128 36 L 3126 36 L 3125 35 L 3121 35 L 3120 34 L 3115 34 L 3114 35 L 3109 35 Z" fill="#7d7e7b" stroke="none"/>
<path d="M 3002 35 L 3000 38 L 3000 61 L 3001 63 L 3004 65 L 3019 65 L 3021 64 L 3023 61 L 3023 45 L 3020 42 L 3021 40 L 3017 36 L 3015 37 L 3012 34 L 3004 34 Z" fill="#7d7e7b" stroke="none"/>
<path d="M 2916 34 L 2910 40 L 2909 40 L 2906 37 L 2905 38 L 2905 47 L 2906 48 L 2914 48 L 2915 47 L 2913 43 L 2918 38 L 2918 36 Z" fill="#7d7e7b" stroke="none"/>
<path d="M 0 122 L 0 128 L 11 128 L 10 127 L 7 127 L 3 125 Z" fill="#777777" stroke="none"/>
<path d="M 3347 121 L 3345 120 L 3340 125 L 3336 127 L 3333 127 L 3332 128 L 3341 128 L 3347 122 Z" fill="#777777" stroke="none"/>
<path d="M 3339 121 L 3338 120 L 3336 120 L 3333 122 L 3329 122 L 3328 123 L 3329 124 L 3332 124 L 3333 123 L 3336 123 Z" fill="#6f6f6f" stroke="none"/>
<path d="M 4 121 L 7 123 L 10 123 L 11 124 L 14 124 L 15 123 L 14 122 L 10 122 L 7 120 L 5 120 Z" fill="#6f6f6f" stroke="none"/>
<path d="M 1316 43 L 1314 44 L 1310 49 L 1310 56 L 1311 58 L 1316 62 L 1323 62 L 1325 61 L 1329 56 L 1329 49 L 1328 47 L 1323 43 Z" fill="#6c6c6c" stroke="none"/>
<path d="M 3187 19 L 3185 23 L 3185 84 L 3188 89 L 3192 91 L 3306 91 L 3311 88 L 3313 84 L 3313 23 L 3310 18 L 3306 16 L 3192 16 Z" fill="#42464e" stroke="none"/>
<path d="M 3350 0 L 3350 118 L 3351 119 L 3351 0 Z" fill="#42464e" stroke="none"/>
</svg>