<svg xmlns="http://www.w3.org/2000/svg" viewBox="0 0 3356 19">
<path d="M 0 10 L 0 18 L 181 18 L 178 16 L 12 16 L 8 15 Z" fill="#fafafa" stroke="none"/>
<path d="M 3355 5 L 596 18 L 3355 18 Z" fill="#fafafa" stroke="none"/>
<path d="M 0 5 L 0 9 L 2 11 L 12 15 L 178 15 L 181 18 L 185 18 L 185 16 L 182 13 L 16 13 L 8 11 L 4 9 Z" fill="#f6f6f6" stroke="none"/>
<path d="M 0 3 L 4 8 L 16 12 L 182 12 L 186 16 L 186 18 L 188 18 L 188 13 L 189 12 L 185 10 L 15 10 L 7 7 L 2 2 Z" fill="#efefef" stroke="none"/>
<path d="M 185 9 L 191 12 L 586 12 L 592 9 Z" fill="#e8e8e8" stroke="none"/>
<path d="M 3347 3 L 3346 2 L 3344 4 L 3343 4 L 3341 6 L 3339 6 L 3337 8 L 3336 7 L 3332 7 L 3331 8 L 3332 9 L 3336 9 L 3338 7 L 3340 8 L 3344 6 Z" fill="#e8e8e8" stroke="none"/>
<path d="M 4 3 L 7 6 L 11 8 L 13 7 L 15 9 L 19 9 L 20 8 L 19 7 L 15 7 L 14 8 L 12 6 L 10 6 L 5 2 Z" fill="#e8e8e8" stroke="none"/>
<path d="M 19 6 L 20 7 L 193 7 L 194 6 L 193 5 L 20 5 Z" fill="#e1e1e1" stroke="none"/>
<path d="M 3343 3 L 3341 2 L 3335 5 L 3336 6 L 3338 6 L 3339 5 L 3341 5 Z" fill="#e1e1e1" stroke="none"/>
<path d="M 8 3 L 10 5 L 12 5 L 13 6 L 15 6 L 16 5 L 10 2 Z" fill="#e1e1e1" stroke="none"/>
<path d="M 189 14 L 189 18 L 588 18 L 587 13 Z" fill="#18191c" stroke="none"/>
</svg>