<svg xmlns="http://www.w3.org/2000/svg" viewBox="0 0 517 522">
<path d="M 0 504 L 0 521 L 17 521 L 13 518 L 12 518 L 3 509 L 3 508 Z" fill="#fefefe" stroke="none"/>
<path d="M 516 10 L 509 14 L 233 17 L 245 43 L 250 69 L 250 443 L 242 499 L 222 521 L 245 517 L 257 486 L 257 47 L 247 21 L 507 18 L 516 15 Z" fill="#fefefe" stroke="none"/>
<path d="M 0 29 L 3 25 L 3 24 L 12 15 L 13 15 L 15 13 L 22 9 L 24 9 L 25 8 L 27 8 L 31 6 L 39 6 L 40 5 L 48 5 L 49 4 L 100 4 L 103 1 L 103 0 L 14 0 L 10 4 L 7 4 L 5 5 L 4 7 L 0 11 Z" fill="#fefefe" stroke="none"/>
<path d="M 0 491 L 0 504 L 4 508 L 4 509 L 17 521 L 30 521 L 27 519 L 25 520 L 22 517 L 17 515 L 7 505 Z" fill="#fbfcf8" stroke="none"/>
<path d="M 52 419 L 51 421 L 51 451 L 52 452 L 52 454 L 54 456 L 56 457 L 93 457 L 97 454 L 97 452 L 98 451 L 98 422 L 97 421 L 97 419 L 95 417 L 93 416 L 56 416 Z" fill="#fbfcf8" stroke="none"/>
<path d="M 148 414 L 145 417 L 145 419 L 144 420 L 145 421 L 145 423 L 149 427 L 149 446 L 145 450 L 145 452 L 144 453 L 145 454 L 145 456 L 148 459 L 154 459 L 157 456 L 157 450 L 153 446 L 153 441 L 156 438 L 160 440 L 171 440 L 175 444 L 177 444 L 178 445 L 179 444 L 181 444 L 184 441 L 184 435 L 181 432 L 179 432 L 178 431 L 177 432 L 175 432 L 171 436 L 161 436 L 157 434 L 153 429 L 153 427 L 157 423 L 157 417 L 154 414 Z" fill="#fbfcf8" stroke="none"/>
<path d="M 184 334 L 183 333 L 181 333 L 171 343 L 170 343 L 164 337 L 162 337 L 150 349 L 152 351 L 154 351 L 163 342 L 170 349 L 171 349 L 184 336 Z" fill="#fbfcf8" stroke="none"/>
<path d="M 141 329 L 141 360 L 142 361 L 142 363 L 145 366 L 147 366 L 148 367 L 185 367 L 187 365 L 187 364 L 185 362 L 149 362 L 146 359 L 146 351 L 148 349 L 146 347 L 146 329 L 144 327 L 143 327 Z" fill="#fbfcf8" stroke="none"/>
<path d="M 72 324 L 71 325 L 63 327 L 60 329 L 55 330 L 52 333 L 51 335 L 51 358 L 52 359 L 52 361 L 55 363 L 60 364 L 63 366 L 65 366 L 66 367 L 68 367 L 72 369 L 77 369 L 78 368 L 86 366 L 89 364 L 94 363 L 97 361 L 97 359 L 98 358 L 98 335 L 94 330 L 89 329 L 86 327 L 84 327 L 83 326 L 81 326 L 77 324 Z" fill="#fbfcf8" stroke="none"/>
<path d="M 141 265 L 141 271 L 142 272 L 142 274 L 146 277 L 183 277 L 187 274 L 187 272 L 188 271 L 188 266 L 187 265 L 187 263 L 183 260 L 146 260 L 144 261 Z" fill="#fbfcf8" stroke="none"/>
<path d="M 78 266 L 76 264 L 76 263 L 68 255 L 66 256 L 63 256 L 59 258 L 55 263 L 55 265 L 58 268 L 58 269 L 49 278 L 49 279 L 50 280 L 66 280 L 67 279 L 70 279 L 74 277 L 76 275 L 78 271 Z" fill="#fbfcf8" stroke="none"/>
<path d="M 141 241 L 141 247 L 142 248 L 142 250 L 146 253 L 183 253 L 187 250 L 187 248 L 188 247 L 188 242 L 187 241 L 187 239 L 183 236 L 146 236 L 144 237 Z" fill="#fbfcf8" stroke="none"/>
<path d="M 99 234 L 97 234 L 79 252 L 78 252 L 75 249 L 73 249 L 72 250 L 72 251 L 75 254 L 75 255 L 82 262 L 84 262 L 85 261 L 85 259 L 82 256 L 82 255 L 100 237 L 100 235 Z" fill="#fbfcf8" stroke="none"/>
<path d="M 148 146 L 144 150 L 144 154 L 147 158 L 149 158 L 152 161 L 149 164 L 145 162 L 144 163 L 144 169 L 147 173 L 149 173 L 152 176 L 149 179 L 145 177 L 144 178 L 144 182 L 145 184 L 148 187 L 150 187 L 154 189 L 163 189 L 164 190 L 166 189 L 175 189 L 176 188 L 181 187 L 185 182 L 185 178 L 184 177 L 181 179 L 179 178 L 177 180 L 174 177 L 177 174 L 178 175 L 180 173 L 184 171 L 185 169 L 185 163 L 184 162 L 181 164 L 179 163 L 177 165 L 174 162 L 177 159 L 178 160 L 180 158 L 184 156 L 185 154 L 185 151 L 184 149 L 181 146 L 179 146 L 175 144 L 166 144 L 165 143 L 163 144 L 154 144 L 153 145 Z" fill="#fbfcf8" stroke="none"/>
<path d="M 60 146 L 54 152 L 52 156 L 52 160 L 51 162 L 52 163 L 52 168 L 54 172 L 60 178 L 64 179 L 65 180 L 67 180 L 68 181 L 70 181 L 71 180 L 76 180 L 82 177 L 95 190 L 96 190 L 97 189 L 97 186 L 85 174 L 88 168 L 88 157 L 87 156 L 86 152 L 80 146 L 76 145 L 75 144 L 73 144 L 72 143 L 68 143 L 67 144 L 65 144 L 64 145 Z" fill="#fbfcf8" stroke="none"/>
<path d="M 141 92 L 142 97 L 146 100 L 183 100 L 187 97 L 187 95 L 188 94 L 187 89 L 183 86 L 174 86 L 169 91 L 167 92 L 165 90 L 164 90 L 162 92 L 160 91 L 155 86 L 146 86 L 142 89 L 142 91 Z" fill="#fbfcf8" stroke="none"/>
<path d="M 51 92 L 52 97 L 56 100 L 93 100 L 97 97 L 97 95 L 98 94 L 97 89 L 93 86 L 82 86 L 81 88 L 77 92 L 75 91 L 72 92 L 68 88 L 67 86 L 56 86 L 52 89 L 52 91 Z" fill="#fbfcf8" stroke="none"/>
<path d="M 164 54 L 162 56 L 162 74 L 159 77 L 154 72 L 152 72 L 151 73 L 151 75 L 164 88 L 165 88 L 178 75 L 178 73 L 177 72 L 175 72 L 170 77 L 167 74 L 167 56 L 165 54 Z" fill="#fbfcf8" stroke="none"/>
<path d="M 73 54 L 61 66 L 61 69 L 63 70 L 69 64 L 72 67 L 72 85 L 74 87 L 75 87 L 77 85 L 77 67 L 80 64 L 86 70 L 87 70 L 88 69 L 88 66 L 76 54 Z" fill="#fbfcf8" stroke="none"/>
<path d="M 235 13 L 221 16 L 234 31 L 241 55 L 241 478 L 239 491 L 232 505 L 222 515 L 209 521 L 222 521 L 235 509 L 244 490 L 246 472 L 246 61 L 241 34 L 230 19 Z" fill="#fbfcf8" stroke="none"/>
<path d="M 516 6 L 510 12 L 509 11 L 508 12 L 509 13 L 511 11 L 512 12 L 514 11 L 516 9 Z" fill="#fbfcf8" stroke="none"/>
<path d="M 106 0 L 104 0 L 104 2 L 101 5 L 49 5 L 48 6 L 31 7 L 30 8 L 22 10 L 12 16 L 0 29 L 0 42 L 7 28 L 17 18 L 25 14 L 27 14 L 30 12 L 34 12 L 35 11 L 41 11 L 42 10 L 102 10 L 106 7 Z" fill="#fbfcf8" stroke="none"/>
<path d="M 516 0 L 507 9 L 119 12 L 107 0 L 103 11 L 35 12 L 8 28 L 0 42 L 0 491 L 17 514 L 30 521 L 208 521 L 236 496 L 240 55 L 233 31 L 220 16 L 241 11 L 508 11 Z" fill="#f5f5f5" stroke="none"/>
<path d="M 18 29 L 6 59 L 10 493 L 24 509 L 46 515 L 211 511 L 227 497 L 233 474 L 229 40 L 221 29 L 219 488 L 196 504 L 53 505 L 28 498 L 16 469 Z" fill="#e8e8e8" stroke="none"/>
<path d="M 37 20 L 38 21 L 201 21 L 202 20 L 199 18 L 189 18 L 188 17 L 46 18 L 45 19 L 38 19 Z" fill="#e8e8e8" stroke="none"/>
<path d="M 111 3 L 113 8 L 119 11 L 197 11 L 239 8 L 507 8 L 512 5 L 511 3 Z" fill="#e8e8e8" stroke="none"/>
<path d="M 23 491 L 28 497 L 33 500 L 43 503 L 52 503 L 53 504 L 186 504 L 187 503 L 196 503 L 206 500 L 211 497 L 216 491 L 215 490 L 212 492 L 27 492 L 24 490 Z" fill="#c7c7c8" stroke="none"/>
<path d="M 27 22 L 20 29 L 20 484 L 27 491 L 212 491 L 219 484 L 219 29 L 212 22 Z" fill="#1e1f23" stroke="none"/>
</svg>