<svg xmlns="http://www.w3.org/2000/svg" viewBox="0 0 354 40">
<path d="M 318 13 L 319 19 L 320 20 L 321 26 L 322 27 L 322 30 L 325 36 L 327 36 L 329 34 L 331 25 L 334 22 L 337 25 L 339 34 L 341 36 L 343 36 L 345 34 L 346 27 L 347 26 L 348 20 L 349 19 L 349 16 L 350 15 L 350 13 L 349 12 L 348 12 L 346 14 L 345 21 L 342 24 L 341 24 L 338 21 L 337 14 L 335 12 L 333 12 L 332 13 L 331 17 L 330 18 L 330 21 L 327 24 L 326 24 L 323 21 L 322 13 L 321 12 L 319 12 Z" fill="#111214" stroke="none"/>
<path d="M 295 14 L 292 19 L 292 28 L 293 29 L 293 31 L 297 35 L 299 36 L 306 36 L 307 35 L 309 35 L 312 32 L 313 28 L 314 27 L 314 20 L 313 19 L 313 17 L 309 13 L 307 12 L 299 12 Z" fill="#111214" stroke="none"/>
<path d="M 235 12 L 232 12 L 230 14 L 229 14 L 227 12 L 225 13 L 225 35 L 226 36 L 228 35 L 228 21 L 229 19 L 233 15 L 235 15 L 236 14 Z" fill="#111214" stroke="none"/>
<path d="M 200 14 L 197 19 L 197 28 L 198 29 L 198 31 L 202 35 L 204 36 L 211 36 L 212 35 L 214 35 L 217 32 L 218 28 L 219 27 L 219 20 L 218 19 L 218 17 L 214 13 L 212 12 L 204 12 Z" fill="#111214" stroke="none"/>
<path d="M 102 12 L 101 13 L 101 30 L 103 34 L 106 36 L 112 36 L 115 34 L 116 34 L 118 36 L 120 36 L 121 35 L 121 13 L 120 12 L 118 12 L 117 13 L 117 29 L 113 33 L 109 33 L 105 29 L 105 13 L 104 12 Z" fill="#111214" stroke="none"/>
<path d="M 79 13 L 76 17 L 77 18 L 79 18 L 82 15 L 88 15 L 91 18 L 91 19 L 88 22 L 84 22 L 83 23 L 79 23 L 77 24 L 75 27 L 75 31 L 76 33 L 80 36 L 85 36 L 89 33 L 92 36 L 94 36 L 95 35 L 95 18 L 94 17 L 94 15 L 90 12 L 81 12 Z" fill="#111214" stroke="none"/>
<path d="M 142 6 L 141 7 L 141 9 L 137 13 L 137 14 L 141 18 L 141 33 L 144 36 L 148 36 L 149 34 L 144 29 L 144 18 L 147 15 L 148 15 L 149 13 L 147 12 L 144 9 L 144 7 Z" fill="#111214" stroke="none"/>
<path d="M 283 3 L 282 4 L 282 35 L 283 36 L 285 36 L 286 35 L 286 4 L 285 3 Z" fill="#111214" stroke="none"/>
<path d="M 242 3 L 241 4 L 241 12 L 240 13 L 241 15 L 241 35 L 242 36 L 244 36 L 245 35 L 245 29 L 248 26 L 257 36 L 260 36 L 261 35 L 257 31 L 257 30 L 251 23 L 251 22 L 259 14 L 259 13 L 258 12 L 256 12 L 248 20 L 245 17 L 245 4 L 244 3 Z" fill="#111214" stroke="none"/>
<path d="M 155 3 L 154 4 L 154 6 L 155 7 L 155 10 L 156 11 L 156 14 L 158 18 L 158 21 L 159 22 L 159 25 L 160 26 L 160 29 L 161 30 L 162 35 L 163 36 L 166 36 L 167 35 L 167 32 L 169 28 L 169 25 L 171 21 L 171 18 L 174 15 L 178 20 L 178 23 L 179 24 L 180 30 L 181 31 L 182 35 L 183 36 L 185 36 L 187 34 L 188 27 L 190 23 L 190 20 L 191 19 L 192 12 L 193 11 L 194 5 L 195 4 L 194 3 L 191 3 L 190 4 L 190 8 L 189 9 L 189 12 L 188 13 L 187 20 L 184 23 L 180 18 L 179 12 L 178 11 L 178 8 L 177 7 L 177 4 L 176 3 L 173 3 L 171 6 L 171 9 L 169 13 L 168 20 L 165 23 L 161 19 L 161 15 L 160 14 L 160 11 L 159 10 L 158 4 L 157 3 Z" fill="#111214" stroke="none"/>
<path d="M 129 3 L 128 4 L 128 35 L 129 36 L 131 36 L 132 35 L 132 15 L 133 13 L 132 12 L 132 4 L 131 3 Z" fill="#111214" stroke="none"/>
<path d="M 0 6 L 0 33 L 3 36 L 14 36 L 15 35 L 20 35 L 26 31 L 28 27 L 28 25 L 31 22 L 34 25 L 35 30 L 39 35 L 41 35 L 42 36 L 49 36 L 51 35 L 55 31 L 52 29 L 48 33 L 43 33 L 39 29 L 38 27 L 41 24 L 50 24 L 52 25 L 56 23 L 55 22 L 55 18 L 54 16 L 49 12 L 41 12 L 39 13 L 36 16 L 35 20 L 32 23 L 29 20 L 29 14 L 28 13 L 28 11 L 27 9 L 23 5 L 19 4 L 18 3 L 3 3 Z" fill="#111214" stroke="none"/>
<path d="M 274 1 L 273 1 L 268 5 L 267 10 L 264 13 L 264 14 L 267 17 L 267 35 L 268 36 L 270 36 L 271 35 L 271 18 L 276 14 L 276 13 L 271 9 L 271 8 L 276 4 L 276 3 Z" fill="#111214" stroke="none"/>
<path d="M 69 0 L 63 5 L 63 9 L 59 13 L 59 14 L 63 18 L 63 35 L 64 36 L 66 35 L 66 18 L 71 14 L 71 13 L 66 9 L 66 8 L 69 5 L 71 5 L 72 4 L 72 3 Z" fill="#111214" stroke="none"/>
</svg>