<svg xmlns="http://www.w3.org/2000/svg" viewBox="0 0 226 496">
<path d="M 225 490 L 220 495 L 225 495 Z" fill="#7e7e7e" stroke="none"/>
<path d="M 0 490 L 0 495 L 5 495 Z" fill="#7e7e7e" stroke="none"/>
<path d="M 220 0 L 225 5 L 225 0 Z" fill="#7e7e7e" stroke="none"/>
<path d="M 5 0 L 0 0 L 0 5 Z" fill="#7e7e7e" stroke="none"/>
<path d="M 225 479 L 222 483 L 222 484 L 214 492 L 213 492 L 209 495 L 219 495 L 225 489 Z" fill="#7d7e7b" stroke="none"/>
<path d="M 0 479 L 0 489 L 6 495 L 16 495 L 12 492 L 11 492 L 3 484 L 3 483 Z" fill="#7d7e7b" stroke="none"/>
<path d="M 45 400 L 44 402 L 44 432 L 45 433 L 45 435 L 47 437 L 49 438 L 86 438 L 90 435 L 90 433 L 91 432 L 91 403 L 90 402 L 90 400 L 88 398 L 86 397 L 49 397 Z" fill="#7d7e7b" stroke="none"/>
<path d="M 141 395 L 138 398 L 138 400 L 137 401 L 138 402 L 138 404 L 142 408 L 142 427 L 138 431 L 138 433 L 137 434 L 138 435 L 138 437 L 141 440 L 147 440 L 150 437 L 150 431 L 146 427 L 146 422 L 149 419 L 153 421 L 164 421 L 168 425 L 170 425 L 171 426 L 172 425 L 174 425 L 177 422 L 177 420 L 178 419 L 177 418 L 177 416 L 174 413 L 172 413 L 171 412 L 170 413 L 168 413 L 164 417 L 154 417 L 152 416 L 147 411 L 146 408 L 150 404 L 150 398 L 147 395 Z" fill="#7d7e7b" stroke="none"/>
<path d="M 177 315 L 176 314 L 174 314 L 164 324 L 163 324 L 157 318 L 155 318 L 143 330 L 145 332 L 147 332 L 156 323 L 163 330 L 164 330 L 177 317 Z" fill="#7d7e7b" stroke="none"/>
<path d="M 134 310 L 134 341 L 135 342 L 135 344 L 138 347 L 140 347 L 141 348 L 178 348 L 180 346 L 180 345 L 178 343 L 142 343 L 139 340 L 139 332 L 141 330 L 139 328 L 139 310 L 137 308 L 136 308 Z" fill="#7d7e7b" stroke="none"/>
<path d="M 65 305 L 64 306 L 56 308 L 53 310 L 48 311 L 45 314 L 44 316 L 44 339 L 45 340 L 45 342 L 48 344 L 53 345 L 56 347 L 58 347 L 59 348 L 61 348 L 65 350 L 70 350 L 71 349 L 79 347 L 82 345 L 87 344 L 90 342 L 90 340 L 91 339 L 91 316 L 87 311 L 82 310 L 79 308 L 77 308 L 76 307 L 74 307 L 70 305 Z" fill="#7d7e7b" stroke="none"/>
<path d="M 134 246 L 134 252 L 135 253 L 135 255 L 139 258 L 176 258 L 180 255 L 180 253 L 181 252 L 181 247 L 180 246 L 180 244 L 176 241 L 139 241 L 137 242 Z" fill="#7d7e7b" stroke="none"/>
<path d="M 71 246 L 61 236 L 59 237 L 56 237 L 52 239 L 49 242 L 48 246 L 51 249 L 51 250 L 42 259 L 42 260 L 43 261 L 59 261 L 60 260 L 63 260 L 67 258 L 69 256 L 71 252 Z" fill="#7d7e7b" stroke="none"/>
<path d="M 134 222 L 134 228 L 135 229 L 135 231 L 139 234 L 176 234 L 180 231 L 180 229 L 181 228 L 181 223 L 180 222 L 180 220 L 176 217 L 139 217 L 137 218 Z" fill="#7d7e7b" stroke="none"/>
<path d="M 92 215 L 90 215 L 72 233 L 71 233 L 68 230 L 66 230 L 65 231 L 65 233 L 75 243 L 77 243 L 78 242 L 78 240 L 75 237 L 75 236 L 93 218 L 93 216 Z" fill="#7d7e7b" stroke="none"/>
<path d="M 141 127 L 137 131 L 137 135 L 141 140 L 142 139 L 145 142 L 142 145 L 140 143 L 139 144 L 138 143 L 137 144 L 137 150 L 141 155 L 142 154 L 145 157 L 142 160 L 140 158 L 139 159 L 138 158 L 137 159 L 137 164 L 141 168 L 143 168 L 147 170 L 156 170 L 158 171 L 159 170 L 168 170 L 169 169 L 174 168 L 178 163 L 178 159 L 177 158 L 176 159 L 175 158 L 173 160 L 172 159 L 170 161 L 167 158 L 170 155 L 171 156 L 173 154 L 174 155 L 177 152 L 178 150 L 178 144 L 177 143 L 176 144 L 175 143 L 173 145 L 172 144 L 170 146 L 167 143 L 170 140 L 171 141 L 173 139 L 174 140 L 177 137 L 178 135 L 178 132 L 177 130 L 174 127 L 172 127 L 168 125 L 159 125 L 158 124 L 156 125 L 147 125 L 146 126 Z" fill="#7d7e7b" stroke="none"/>
<path d="M 53 127 L 47 133 L 45 137 L 45 141 L 44 143 L 45 144 L 45 149 L 47 153 L 53 159 L 57 160 L 58 161 L 60 161 L 61 162 L 63 162 L 64 161 L 69 161 L 75 158 L 88 171 L 89 171 L 90 170 L 90 167 L 78 155 L 81 149 L 81 144 L 82 143 L 81 142 L 81 138 L 80 137 L 79 133 L 73 127 L 69 126 L 68 125 L 66 125 L 65 124 L 61 124 L 60 125 L 58 125 L 57 126 Z" fill="#7d7e7b" stroke="none"/>
<path d="M 134 72 L 135 78 L 139 81 L 176 81 L 180 78 L 180 76 L 181 75 L 180 70 L 176 67 L 167 67 L 162 72 L 160 73 L 158 71 L 157 71 L 155 73 L 153 72 L 148 67 L 139 67 L 137 68 Z" fill="#7d7e7b" stroke="none"/>
<path d="M 44 72 L 45 78 L 49 81 L 86 81 L 90 78 L 90 76 L 91 75 L 90 70 L 86 67 L 75 67 L 74 69 L 70 73 L 68 72 L 65 73 L 61 69 L 60 67 L 49 67 L 47 68 Z" fill="#7d7e7b" stroke="none"/>
<path d="M 157 35 L 155 37 L 155 55 L 152 58 L 147 53 L 145 53 L 144 54 L 144 56 L 157 69 L 158 69 L 171 56 L 171 54 L 170 53 L 168 53 L 163 58 L 160 55 L 160 37 L 158 35 Z" fill="#7d7e7b" stroke="none"/>
<path d="M 66 35 L 54 47 L 54 50 L 56 51 L 62 45 L 65 48 L 65 66 L 67 68 L 68 68 L 70 66 L 70 48 L 73 45 L 79 51 L 80 51 L 81 50 L 81 47 L 69 35 Z" fill="#7d7e7b" stroke="none"/>
<path d="M 209 0 L 213 3 L 214 3 L 222 11 L 222 12 L 225 16 L 225 6 L 219 0 Z" fill="#7d7e7b" stroke="none"/>
<path d="M 16 0 L 6 0 L 0 6 L 0 16 L 3 12 L 3 11 L 11 3 L 12 3 Z" fill="#7d7e7b" stroke="none"/>
<path d="M 11 16 L 3 39 L 6 470 L 17 485 L 38 492 L 200 489 L 215 478 L 222 456 L 219 25 L 214 16 L 219 39 L 216 469 L 206 482 L 187 489 L 38 489 L 13 476 L 6 456 L 6 39 Z" fill="#727271" stroke="none"/>
<path d="M 11 25 L 10 469 L 19 481 L 38 488 L 199 485 L 213 473 L 218 456 L 215 26 L 212 469 L 189 485 L 46 486 L 21 479 L 9 450 Z" fill="#6d6d6d" stroke="none"/>
<path d="M 17 473 L 21 478 L 26 481 L 36 484 L 45 484 L 46 485 L 179 485 L 180 484 L 189 484 L 199 481 L 208 474 L 207 472 L 206 473 L 19 473 L 18 472 Z" fill="#6a6a6a" stroke="none"/>
<path d="M 18 4 L 13 11 L 13 465 L 20 472 L 205 472 L 212 465 L 211 8 L 204 3 Z" fill="#0f0f11" stroke="none"/>
</svg>