<svg xmlns="http://www.w3.org/2000/svg" viewBox="0 0 1004 1004">
<path d="M 813 356 L 809 359 L 808 363 L 801 377 L 798 380 L 776 383 L 773 386 L 773 389 L 791 407 L 790 414 L 789 415 L 789 420 L 788 421 L 788 426 L 787 427 L 787 432 L 790 435 L 792 435 L 812 424 L 815 424 L 821 427 L 823 429 L 835 435 L 837 435 L 840 432 L 840 427 L 839 426 L 839 421 L 838 420 L 838 415 L 837 414 L 837 409 L 836 407 L 854 389 L 854 386 L 851 383 L 829 380 L 826 377 L 820 365 L 820 363 L 818 359 L 816 357 Z" fill="#b4b18f" stroke="none"/>
<path d="M 0 0 L 0 1003 L 1003 1003 L 1003 0 Z" fill="#916a7b" stroke="none"/>
<path d="M 102 574 L 102 645 L 112 655 L 891 655 L 901 645 L 901 574 L 891 564 L 112 564 Z" fill="#d95988" stroke="none"/>
<path d="M 690 514 L 689 515 L 689 517 L 693 519 L 694 518 Z" fill="#24272b" stroke="none"/>
<path d="M 554 514 L 553 515 L 553 517 L 557 519 L 558 518 Z" fill="#24272b" stroke="none"/>
<path d="M 425 514 L 424 515 L 424 517 L 428 519 L 429 518 Z" fill="#24272b" stroke="none"/>
<path d="M 351 514 L 350 515 L 350 517 L 354 519 L 355 518 Z" fill="#24272b" stroke="none"/>
<path d="M 563 512 L 562 513 L 563 516 L 567 519 L 568 518 L 564 514 Z" fill="#24272b" stroke="none"/>
<path d="M 387 512 L 386 514 L 391 518 L 392 517 Z" fill="#24272b" stroke="none"/>
<path d="M 360 512 L 359 513 L 360 516 L 364 519 L 365 518 L 361 514 Z" fill="#24272b" stroke="none"/>
<path d="M 672 511 L 670 513 L 670 516 L 673 519 L 674 519 L 675 518 L 672 515 L 672 513 L 673 512 Z" fill="#24272b" stroke="none"/>
<path d="M 443 511 L 441 515 L 442 517 L 445 519 L 446 518 L 443 515 L 443 513 L 444 512 Z" fill="#24272b" stroke="none"/>
<path d="M 534 510 L 533 511 L 537 515 L 536 517 L 537 518 L 539 514 L 537 511 L 535 511 Z" fill="#24272b" stroke="none"/>
<path d="M 518 510 L 517 511 L 521 515 L 520 517 L 521 518 L 523 514 L 521 511 L 519 511 Z" fill="#24272b" stroke="none"/>
<path d="M 758 503 L 757 504 L 759 506 L 759 518 L 760 519 L 761 518 L 761 507 Z" fill="#24272b" stroke="none"/>
<path d="M 748 503 L 747 504 L 749 506 L 749 518 L 750 519 L 751 518 L 751 507 L 753 505 L 752 504 L 750 505 Z" fill="#24272b" stroke="none"/>
<path d="M 740 503 L 739 504 L 739 518 L 740 519 L 741 518 L 741 507 L 742 506 L 742 505 Z" fill="#24272b" stroke="none"/>
<path d="M 732 503 L 730 505 L 728 503 L 726 507 L 727 509 L 725 511 L 727 513 L 726 515 L 728 519 L 729 518 L 729 508 L 733 504 Z" fill="#24272b" stroke="none"/>
<path d="M 713 503 L 709 506 L 710 508 L 708 510 L 708 512 L 710 514 L 709 515 L 711 518 L 713 519 L 715 518 L 718 519 L 721 517 L 722 515 L 721 514 L 718 517 L 715 518 L 713 517 L 709 513 L 710 512 L 710 510 L 709 509 L 714 504 Z" fill="#24272b" stroke="none"/>
<path d="M 645 503 L 644 504 L 644 523 L 645 524 L 646 523 L 646 521 L 649 518 L 650 519 L 651 518 L 654 519 L 656 518 L 658 515 L 657 513 L 652 518 L 649 517 L 646 514 L 646 508 L 649 505 L 648 504 L 647 505 Z" fill="#24272b" stroke="none"/>
<path d="M 627 503 L 626 504 L 629 507 L 629 509 L 628 510 L 630 511 L 631 510 L 631 507 L 630 505 Z" fill="#24272b" stroke="none"/>
<path d="M 609 503 L 608 504 L 611 507 L 611 518 L 612 519 L 613 518 L 613 516 L 614 515 L 613 513 L 616 510 L 619 513 L 618 515 L 622 519 L 623 519 L 624 518 L 619 513 L 621 511 L 620 507 L 623 504 L 622 503 L 620 504 L 619 506 L 616 509 L 615 509 L 612 506 L 612 505 L 610 503 Z" fill="#24272b" stroke="none"/>
<path d="M 572 503 L 571 504 L 574 507 L 574 510 L 575 511 L 574 512 L 574 514 L 570 518 L 571 519 L 573 518 L 576 514 L 576 512 L 575 511 L 576 510 L 576 508 Z" fill="#24272b" stroke="none"/>
<path d="M 530 503 L 527 506 L 527 508 L 530 511 L 531 510 L 529 508 L 529 506 L 531 504 Z" fill="#24272b" stroke="none"/>
<path d="M 514 503 L 511 506 L 511 508 L 514 511 L 515 510 L 513 508 L 513 506 L 515 504 Z" fill="#24272b" stroke="none"/>
<path d="M 497 503 L 493 508 L 493 513 L 494 514 L 494 516 L 498 519 L 499 518 L 495 514 L 495 512 L 496 511 L 495 507 L 498 504 Z" fill="#24272b" stroke="none"/>
<path d="M 480 503 L 476 508 L 477 510 L 476 514 L 477 516 L 481 519 L 482 518 L 478 514 L 478 512 L 477 511 L 478 507 L 481 504 Z" fill="#24272b" stroke="none"/>
<path d="M 450 504 L 453 507 L 451 510 L 452 512 L 452 515 L 451 517 L 453 519 L 455 515 L 454 514 L 457 511 L 460 514 L 459 515 L 460 517 L 463 519 L 465 518 L 467 519 L 471 516 L 470 515 L 468 517 L 465 518 L 463 517 L 459 513 L 460 512 L 460 510 L 459 509 L 464 504 L 463 503 L 459 506 L 460 508 L 457 511 L 452 506 L 453 505 L 451 503 Z" fill="#24272b" stroke="none"/>
<path d="M 414 503 L 413 504 L 416 507 L 416 509 L 415 510 L 417 511 L 418 510 L 418 508 Z" fill="#24272b" stroke="none"/>
<path d="M 409 503 L 405 506 L 406 508 L 403 511 L 400 508 L 401 506 L 399 503 L 397 505 L 396 504 L 395 505 L 398 508 L 398 513 L 397 515 L 398 516 L 398 519 L 399 520 L 396 523 L 397 524 L 399 522 L 398 521 L 400 519 L 400 516 L 401 515 L 400 514 L 403 511 L 406 514 L 405 515 L 407 518 L 409 519 L 411 518 L 409 517 L 405 513 L 407 511 L 406 508 L 410 504 Z" fill="#24272b" stroke="none"/>
<path d="M 369 503 L 368 504 L 371 507 L 371 510 L 372 511 L 371 512 L 371 514 L 367 518 L 368 519 L 370 518 L 373 514 L 373 512 L 372 511 L 373 510 L 373 508 Z" fill="#24272b" stroke="none"/>
<path d="M 332 503 L 331 504 L 333 506 L 333 509 L 334 510 L 335 509 L 335 506 Z" fill="#24272b" stroke="none"/>
<path d="M 316 503 L 315 504 L 315 518 L 316 519 L 319 516 L 320 516 L 323 519 L 324 518 L 324 507 L 325 505 L 323 503 L 320 506 L 319 506 Z" fill="#24272b" stroke="none"/>
<path d="M 273 503 L 269 508 L 269 513 L 270 515 L 274 518 L 276 517 L 277 518 L 280 515 L 282 516 L 283 515 L 283 512 L 282 511 L 283 509 L 283 505 L 282 504 L 280 506 L 281 507 L 282 511 L 281 512 L 281 514 L 278 517 L 277 516 L 276 517 L 274 516 L 271 513 L 271 508 L 275 504 Z" fill="#24272b" stroke="none"/>
<path d="M 690 501 L 688 503 L 688 504 L 690 506 L 692 504 L 692 503 Z" fill="#24272b" stroke="none"/>
<path d="M 554 501 L 552 503 L 552 504 L 554 506 L 556 504 L 556 503 Z" fill="#24272b" stroke="none"/>
<path d="M 425 501 L 423 503 L 423 504 L 425 506 L 427 504 L 427 503 Z" fill="#24272b" stroke="none"/>
<path d="M 351 501 L 349 503 L 349 504 L 351 506 L 353 504 L 353 503 Z" fill="#24272b" stroke="none"/>
<path d="M 591 499 L 589 503 L 590 505 L 590 516 L 593 519 L 594 519 L 595 518 L 592 515 L 592 505 L 593 503 Z" fill="#24272b" stroke="none"/>
<path d="M 702 497 L 700 499 L 701 501 L 699 503 L 699 504 L 701 506 L 703 504 L 701 502 L 703 498 Z" fill="#24272b" stroke="none"/>
<path d="M 252 497 L 251 498 L 256 502 L 257 500 L 255 498 Z" fill="#24272b" stroke="none"/>
<path d="M 247 497 L 243 500 L 243 502 L 244 503 L 243 505 L 247 508 L 252 509 L 256 513 L 256 514 L 252 518 L 253 519 L 257 516 L 258 513 L 256 509 L 252 508 L 251 507 L 249 507 L 244 503 L 249 498 Z" fill="#24272b" stroke="none"/>
<path d="M 601 496 L 600 497 L 600 518 L 601 519 L 602 518 L 602 507 L 603 506 L 602 504 L 602 497 Z" fill="#24272b" stroke="none"/>
<path d="M 670 385 L 664 391 L 662 395 L 662 397 L 661 398 L 661 411 L 662 412 L 663 416 L 668 422 L 674 425 L 688 425 L 694 422 L 699 415 L 698 413 L 690 413 L 686 417 L 684 418 L 678 418 L 676 417 L 672 413 L 671 409 L 674 406 L 699 406 L 700 405 L 700 402 L 699 401 L 699 396 L 698 395 L 698 393 L 692 386 L 688 384 L 685 384 L 684 383 L 677 383 L 676 384 Z" fill="#24272b" stroke="none"/>
<path d="M 562 387 L 559 391 L 559 393 L 558 394 L 559 396 L 567 396 L 572 391 L 578 391 L 583 396 L 583 397 L 579 401 L 568 401 L 567 402 L 564 402 L 560 405 L 559 405 L 556 411 L 556 416 L 558 420 L 562 424 L 564 424 L 565 425 L 574 425 L 578 423 L 580 421 L 584 425 L 592 425 L 593 424 L 593 393 L 591 389 L 588 386 L 584 384 L 582 384 L 581 383 L 571 383 L 570 384 L 567 384 L 563 387 Z" fill="#24272b" stroke="none"/>
<path d="M 498 383 L 497 384 L 495 384 L 491 386 L 488 389 L 487 391 L 487 394 L 486 395 L 487 400 L 488 402 L 493 406 L 507 409 L 511 413 L 511 415 L 508 418 L 500 418 L 495 413 L 487 413 L 486 414 L 486 417 L 490 422 L 496 425 L 510 425 L 511 424 L 513 424 L 517 422 L 520 419 L 521 417 L 521 408 L 517 404 L 513 402 L 501 400 L 496 395 L 501 390 L 506 390 L 512 396 L 519 396 L 520 395 L 520 392 L 519 390 L 514 385 L 512 385 L 508 383 Z" fill="#24272b" stroke="none"/>
<path d="M 404 385 L 399 389 L 395 397 L 395 411 L 396 412 L 396 414 L 398 418 L 403 423 L 407 424 L 408 425 L 421 425 L 422 424 L 426 423 L 431 418 L 433 414 L 432 413 L 424 413 L 421 416 L 417 418 L 412 418 L 410 417 L 406 413 L 405 409 L 408 406 L 432 406 L 433 405 L 433 397 L 432 396 L 431 392 L 427 387 L 426 387 L 422 384 L 419 384 L 418 383 L 410 383 L 409 384 Z" fill="#24272b" stroke="none"/>
<path d="M 354 385 L 350 389 L 348 393 L 348 395 L 347 396 L 347 411 L 348 412 L 348 415 L 350 417 L 350 418 L 358 425 L 355 428 L 349 428 L 348 430 L 349 432 L 353 436 L 357 438 L 360 438 L 361 439 L 373 439 L 374 438 L 377 438 L 381 436 L 385 432 L 386 430 L 386 427 L 387 426 L 387 385 L 386 384 L 378 384 L 374 388 L 371 385 L 367 384 L 366 383 L 360 383 L 359 384 Z" fill="#24272b" stroke="none"/>
<path d="M 297 384 L 293 387 L 292 387 L 289 392 L 289 399 L 290 401 L 294 405 L 296 406 L 302 407 L 303 408 L 306 408 L 307 409 L 310 409 L 314 414 L 310 418 L 302 418 L 297 413 L 289 413 L 288 414 L 289 418 L 294 423 L 298 424 L 299 425 L 313 425 L 314 424 L 318 423 L 323 418 L 323 416 L 324 415 L 324 410 L 323 409 L 323 407 L 318 403 L 302 399 L 299 396 L 299 394 L 303 390 L 308 390 L 310 391 L 314 396 L 322 396 L 323 394 L 322 393 L 321 389 L 318 386 L 314 384 L 312 384 L 311 383 L 301 383 L 300 384 Z" fill="#24272b" stroke="none"/>
<path d="M 203 384 L 199 387 L 198 387 L 195 390 L 192 396 L 191 407 L 192 408 L 192 412 L 193 413 L 193 415 L 194 417 L 200 423 L 204 424 L 205 425 L 218 425 L 219 424 L 221 424 L 223 423 L 228 418 L 229 416 L 229 414 L 228 413 L 220 413 L 216 417 L 214 418 L 209 418 L 207 417 L 202 412 L 202 409 L 205 406 L 219 406 L 220 407 L 221 406 L 229 406 L 230 405 L 230 398 L 229 397 L 228 392 L 221 385 L 219 385 L 215 383 L 207 383 L 206 384 Z" fill="#24272b" stroke="none"/>
<path d="M 646 374 L 638 374 L 637 375 L 637 381 L 634 384 L 632 384 L 629 387 L 625 383 L 620 383 L 615 387 L 612 384 L 603 384 L 602 385 L 602 424 L 603 425 L 612 425 L 613 424 L 613 398 L 614 396 L 619 392 L 625 392 L 629 388 L 632 391 L 634 391 L 637 394 L 637 419 L 638 421 L 643 425 L 654 425 L 655 424 L 655 419 L 654 418 L 651 418 L 647 414 L 647 394 L 650 391 L 654 391 L 655 390 L 655 385 L 654 384 L 650 384 L 647 381 L 647 375 Z" fill="#24272b" stroke="none"/>
<path d="M 533 374 L 532 375 L 532 381 L 529 384 L 527 384 L 526 385 L 526 390 L 527 391 L 529 391 L 532 394 L 532 418 L 534 422 L 539 425 L 549 425 L 550 424 L 550 419 L 549 418 L 546 418 L 543 415 L 543 413 L 542 412 L 542 394 L 545 391 L 549 391 L 550 390 L 550 385 L 549 384 L 545 384 L 542 381 L 542 375 L 541 374 Z" fill="#24272b" stroke="none"/>
<path d="M 445 374 L 444 375 L 444 381 L 441 384 L 439 384 L 438 385 L 438 390 L 439 391 L 441 391 L 444 394 L 444 416 L 445 417 L 445 420 L 447 423 L 451 425 L 461 425 L 462 424 L 462 419 L 461 418 L 458 418 L 455 415 L 455 394 L 458 391 L 461 391 L 462 390 L 462 385 L 461 384 L 458 384 L 455 381 L 455 375 L 454 374 Z" fill="#24272b" stroke="none"/>
<path d="M 242 374 L 241 375 L 241 381 L 238 384 L 236 384 L 235 385 L 235 390 L 236 391 L 238 391 L 241 394 L 241 418 L 243 422 L 248 425 L 258 425 L 259 424 L 259 419 L 258 418 L 255 418 L 252 415 L 252 413 L 251 412 L 251 394 L 254 391 L 258 391 L 259 390 L 259 385 L 258 384 L 254 384 L 251 381 L 251 375 L 250 374 Z" fill="#24272b" stroke="none"/>
<path d="M 745 369 L 737 369 L 736 370 L 736 385 L 733 388 L 729 384 L 727 384 L 726 383 L 719 383 L 718 384 L 714 385 L 709 390 L 708 394 L 707 395 L 707 397 L 706 398 L 706 410 L 707 411 L 707 414 L 710 420 L 713 423 L 717 425 L 728 425 L 733 421 L 737 425 L 745 425 L 746 424 L 746 370 Z" fill="#24272b" stroke="none"/>
<path d="M 270 369 L 269 370 L 269 378 L 270 379 L 270 389 L 271 390 L 276 390 L 277 389 L 277 381 L 278 380 L 278 370 L 277 369 Z" fill="#24272b" stroke="none"/>
<path d="M 151 369 L 150 370 L 150 424 L 151 425 L 185 425 L 186 424 L 186 417 L 185 416 L 164 416 L 161 413 L 161 370 L 160 369 Z" fill="#24272b" stroke="none"/>
</svg>