<?xml version="1.0" encoding="UTF-8"?>
<svg xmlns="http://www.w3.org/2000/svg" viewBox="0 0 1440 900" width="1440" height="900" fill="none">
  <title>Curio — Data Catalog Browse</title>
  <desc>Data Catalog browse view with install dynamics. Left category rail, 2×3 card grid of catalog datasets with operational metadata rows, right detail drawer for selected dataset. Visual identity: Rubik, #1E1F23 dark, #FBAA69 accent.</desc>

  <defs>
    <style>
      .f { font-family: Rubik, -apple-system, BlinkMacSystemFont, 'Helvetica Neue', Helvetica, Arial, sans-serif; }
      .nav     { font-size:14px; font-weight:700; fill:#FBFCF6; }
      .nav-dim { font-size:14px; font-weight:500; fill:rgba(251,252,246,0.65); }
      .nav-acc { font-size:14px; font-weight:700; fill:#FBAA69; }
      .h1      { font-size:24px; font-weight:700; fill:#1E1F23; }
      .h2      { font-size:17px; font-weight:700; fill:#1E1F23; }
      .h3      { font-size:13px; font-weight:700; fill:#1E1F23; }
      .body    { font-size:13px; font-weight:400; fill:#1E1F23; }
      .small   { font-size:11px; font-weight:400; fill:#888888; }
      .small-b { font-size:11px; font-weight:600; fill:#555555; }
      .label   { font-size:10px; font-weight:700; fill:#BBBBBB; letter-spacing:0.07em; }
      .badge   { font-size:10px; font-weight:700; letter-spacing:0.04em; }
      .cat-act { font-size:12px; font-weight:700; fill:#1E1F23; }
      .cat     { font-size:12px; font-weight:400; fill:#555555; }
      .crumb   { font-size:11px; font-weight:600; fill:#888888; letter-spacing:0.05em; }
      .btn-w   { font-size:12px; font-weight:700; fill:#FFFFFF; }
      .btn-d   { font-size:12px; font-weight:600; fill:#1E1F23; }
    </style>
    <filter id="card-sh">
      <feDropShadow dx="0" dy="1" stdDeviation="4" flood-color="#000" flood-opacity="0.06"/>
    </filter>
    <filter id="hover-sh">
      <feDropShadow dx="0" dy="4" stdDeviation="8" flood-color="#000" flood-opacity="0.1"/>
    </filter>
    <filter id="drawer-sh" x="-20%" y="0%" width="120%" height="100%">
      <feDropShadow dx="-4" dy="0" stdDeviation="10" flood-color="#000" flood-opacity="0.09"/>
    </filter>
    <linearGradient id="fade-btm" x1="0" y1="0" x2="0" y2="1">
      <stop offset="0%" stop-color="#f0f0f0" stop-opacity="0"/>
      <stop offset="100%" stop-color="#f0f0f0" stop-opacity="0.9"/>
    </linearGradient>
  </defs>

  <rect width="1440" height="900" fill="#f0f0f0"/>

  <!-- ════════════════════════════════
       NAV BAR
  ════════════════════════════════ -->
  <g id="NavBar">
    <rect width="1440" height="65" fill="#1E1F23"/>
    <line x1="0" y1="65" x2="1440" y2="65" stroke="white" stroke-opacity="0.08" stroke-width="1"/>
    <text class="f nav" x="22" y="41">Curio</text>
    <text class="f nav-dim" x="106" y="41">File</text>
    <text class="f nav-dim" x="154" y="41">View</text>
    <text class="f nav-acc" x="206" y="41">Data Catalog</text>
    <text class="f nav-dim" x="303" y="41">Provenance</text>
    <text class="f nav-dim" x="408" y="41">Help</text>
    <text class="f nav-dim" x="455" y="41">Nodes hub</text>
    <rect x="562" y="17" width="320" height="32" rx="8" fill="rgba(255,255,255,0.07)" stroke="rgba(255,255,255,0.12)" stroke-width="1"/>
    <circle cx="583" cy="33" r="7" stroke="rgba(251,252,246,0.35)" stroke-width="1.5" fill="none"/>
    <line x1="588" y1="38" x2="592" y2="42" stroke="rgba(251,252,246,0.35)" stroke-width="1.5"/>
    <text class="f" x="602" y="37" font-size="12px" fill="rgba(251,252,246,0.35)">Search canvas, datasets, nodes…</text>
    <rect x="848" y="23" width="28" height="18" rx="4" fill="rgba(255,255,255,0.06)" stroke="rgba(255,255,255,0.12)" stroke-width="1"/>
    <text class="f" x="862" y="35" text-anchor="middle" font-size="10px" fill="rgba(251,252,246,0.4)">⌘K</text>
    <circle cx="1408" cy="32" r="15" fill="#FBAA69"/>
    <text class="f" x="1408" y="37" text-anchor="middle" font-size="12px" font-weight="700" fill="#1E1F23">KA</text>
  </g>

  <!-- ════════════════════════════════
       LEFT CATEGORY RAIL  (0 → 212)
  ════════════════════════════════ -->
  <g id="CategoryRail">
    <rect x="0" y="65" width="212" height="835" fill="#FAFAFA"/>
    <line x1="212" y1="65" x2="212" y2="900" stroke="#E5E5E5" stroke-width="1"/>

    <g transform="translate(0,65)">
      <text class="f label" x="20" y="38">BY FORMAT</text>

      <!-- All (active) -->
      <rect x="0" y="46" width="212" height="34" fill="rgba(0,0,0,0.04)"/>
      <rect x="0" y="46" width="3" height="34" fill="#1E1F23"/>
      <text class="f cat-act" x="18" y="68">All datasets</text>
      <rect x="164" y="54" width="30" height="18" rx="9" fill="#1E1F23"/>
      <text class="f" x="179" y="66" text-anchor="middle" font-size="10px" font-weight="700" fill="white">48</text>

      <rect x="0" y="80" width="212" height="30" fill="transparent"/>
      <circle cx="14" cy="95" r="5" fill="#2F8F4A"/>
      <text class="f cat" x="28" y="100">GeoJSON</text>
      <text class="f small" x="178" y="100" text-anchor="end">14</text>

      <rect x="0" y="110" width="212" height="30" fill="transparent"/>
      <circle cx="14" cy="125" r="5" fill="#3B6FD4"/>
      <text class="f cat" x="28" y="130">CSV</text>
      <text class="f small" x="178" y="130" text-anchor="end">22</text>

      <rect x="0" y="140" width="212" height="30" fill="transparent"/>
      <circle cx="14" cy="155" r="5" fill="#7A4BD1"/>
      <text class="f cat" x="28" y="160">JSON</text>
      <text class="f small" x="178" y="160" text-anchor="end">6</text>

      <rect x="0" y="170" width="212" height="30" fill="transparent"/>
      <circle cx="14" cy="185" r="5" fill="#FBAA69"/>
      <text class="f cat" x="28" y="190">Parquet</text>
      <text class="f small" x="178" y="190" text-anchor="end">3</text>

      <rect x="0" y="200" width="212" height="30" fill="transparent"/>
      <circle cx="14" cy="215" r="5" fill="#7A4BD1"/>
      <text class="f cat" x="28" y="220">Raster / GeoTIFF</text>
      <text class="f small" x="178" y="220" text-anchor="end">2</text>

      <rect x="0" y="230" width="212" height="30" fill="transparent"/>
      <circle cx="14" cy="245" r="5" fill="#3B6FD4" opacity="0.6"/>
      <text class="f cat" x="28" y="250">Time-series</text>
      <text class="f small" x="178" y="250" text-anchor="end">1</text>

      <line x1="16" y1="270" x2="196" y2="270" stroke="#EBEBEB" stroke-width="1"/>
      <text class="f label" x="20" y="290">BY ORIGIN</text>

      <rect x="0" y="298" width="212" height="40" fill="transparent"/>
      <text class="f cat" x="16" y="322" font-size="15px">Source nodes</text>
      <text class="f small" x="178" y="322" text-anchor="end" font-size="15px">8</text>

      <rect x="0" y="346" width="212" height="40" fill="transparent"/>
      <text class="f cat" x="16" y="370" font-size="15px">Computed</text>
      <text class="f small" x="178" y="370" text-anchor="end" font-size="15px">3</text>

      <rect x="0" y="394" width="212" height="40" fill="transparent"/>
      <text class="f cat" x="16" y="418" font-size="15px">Imported</text>
      <text class="f small" x="178" y="418" text-anchor="end" font-size="15px">1</text>

      <!-- Publish CTA at bottom -->
      <line x1="16" y1="648" x2="196" y2="648" stroke="#EBEBEB" stroke-width="1"/>
      <rect x="12" y="658" width="188" height="36" rx="8" fill="transparent" stroke="#E5E5E5" stroke-width="1"/>
      <line x1="36" y1="679" x2="36" y2="669" stroke="#777" stroke-width="1.5"/>
      <path d="M32 673 L36 668 L40 673" stroke="#777" stroke-width="1.5" fill="none" stroke-linecap="round"/>
      <text class="f" x="52" y="681" font-size="12px" font-weight="600" fill="#555">Publish a dataset</text>
    </g>
  </g>

  <!-- ════════════════════════════════
       PAGE HEADER  (212 → 1120)
  ════════════════════════════════ -->
  <g id="PageHeader">
    <rect x="212" y="65" width="908" height="80" fill="#FFFFFF"/>
    <line x1="212" y1="145" x2="1120" y2="145" stroke="#E5E5E5" stroke-width="1"/>

    <text class="f crumb" x="236" y="89">DATA CATALOG</text>
    <text class="f h1" x="236" y="120">Data Catalog</text>
    <rect x="310" y="104" width="34" height="22" rx="11" fill="#E8E8E5"/>
    <text class="f" x="327" y="119" text-anchor="middle" font-size="11px" font-weight="700" fill="#777">48</text>

    <!-- Hub status chip -->
    <g id="HubStatusChip" transform="translate(544, 90)">
      <rect width="132" height="32" rx="16" fill="#F0F0F0"/>
      <circle cx="20" cy="16" r="4" fill="rgba(47,143,74,0.65)"/>
      <text class="f" x="78" y="21" text-anchor="middle" font-size="12px" font-weight="700" fill="#555">Catalog library</text>
    </g>

    <!-- Search bar -->
    <rect x="782" y="82" width="300" height="34" rx="9" fill="white" stroke="#E5E5E5" stroke-width="1" filter="url(#card-sh)"/>
    <circle cx="803" cy="99" r="7" stroke="#AAAAAA" stroke-width="1.4" fill="none"/>
    <line x1="808" y1="104" x2="813" y2="109" stroke="#AAAAAA" stroke-width="1.4"/>
    <text class="f" x="824" y="103" font-size="12px" fill="#CCCCCC">Search catalog datasets…</text>

    <!-- Publish button -->
    <rect x="1096" y="82" width="148" height="34" rx="8" fill="transparent" stroke="#E5E5E5" stroke-width="1"/>
    <line x1="1118" y1="101" x2="1118" y2="93" stroke="#555" stroke-width="1.5"/>
    <path d="M1114 97 L1118 92 L1122 97" stroke="#555" stroke-width="1.5" fill="none" stroke-linecap="round"/>
    <text class="f btn-d" x="1220" y="104" text-anchor="middle">Publish Dataset</text>
  </g>

  <!-- ════════════════════════════════
       FILTER CHIPS BAR
  ════════════════════════════════ -->
  <g id="FilterBar" transform="translate(212, 145)">
    <rect width="908" height="48" fill="#FAFAFA"/>
    <line x1="0" y1="48" x2="908" y2="48" stroke="#E8E8E8" stroke-width="1"/>
    <rect x="24" y="11" width="36" height="26" rx="13" fill="#1E1F23"/>
    <text class="f badge" x="42" y="28" text-anchor="middle" fill="white">All</text>
    <rect x="66" y="11" width="70" height="26" rx="13" fill="transparent" stroke="#E0E0E0" stroke-width="1"/>
    <circle cx="80" cy="24" r="4" fill="#2F8F4A"/>
    <text class="f badge" x="114" y="28" text-anchor="middle" fill="#555" font-size="11px">GeoJSON</text>
    <rect x="142" y="11" width="44" height="26" rx="13" fill="transparent" stroke="#E0E0E0" stroke-width="1"/>
    <circle cx="155" cy="24" r="4" fill="#3B6FD4"/>
    <text class="f badge" x="174" y="28" text-anchor="middle" fill="#555" font-size="11px">CSV</text>
    <rect x="192" y="11" width="44" height="26" rx="13" fill="transparent" stroke="#E0E0E0" stroke-width="1"/>
    <circle cx="205" cy="24" r="4" fill="#7A4BD1"/>
    <text class="f badge" x="224" y="28" text-anchor="middle" fill="#555" font-size="11px">JSON</text>
    <rect x="242" y="11" width="60" height="26" rx="13" fill="transparent" stroke="#E0E0E0" stroke-width="1"/>
    <text class="f badge" x="272" y="28" text-anchor="middle" fill="#555" font-size="11px">Popular</text>
    <rect x="308" y="11" width="44" height="26" rx="13" fill="#FDF0E8" stroke="#FBAA69" stroke-width="1"/>
    <text class="f badge" x="330" y="28" text-anchor="middle" fill="#FBAA69" font-size="11px">NEW</text>
    <!-- Sort -->
    <text class="f" x="580" y="30" font-size="12px" fill="#777">Sort: Recent activity</text>
    <path d="M666 23 L669 27 L672 23" stroke="#6B6B76" stroke-width="1.2" fill="none"/>
    <!-- Grid/list -->
    <rect x="688" y="12" width="26" height="24" rx="5" fill="#E8E8E5"/>
    <rect x="692" y="16" width="7" height="6" rx="1" fill="#555"/>
    <rect x="702" y="16" width="7" height="6" rx="1" fill="#555"/>
    <rect x="692" y="25" width="7" height="6" rx="1" fill="#555"/>
    <rect x="702" y="25" width="7" height="6" rx="1" fill="#555"/>
    <rect x="718" y="12" width="26" height="24" rx="5" fill="transparent" stroke="#E0E0E0" stroke-width="1"/>
    <line x1="724" y1="20" x2="738" y2="20" stroke="#BBBBBB" stroke-width="1.2"/>
    <line x1="724" y1="25" x2="738" y2="25" stroke="#BBBBBB" stroke-width="1.2"/>
    <line x1="724" y1="30" x2="738" y2="30" stroke="#BBBBBB" stroke-width="1.2"/>
  </g>

  <!-- ════════════════════════════════
       CARD GRID  (212 → 1120)
       3 cols × 273px, gap 20px, margin 24px
       Col1: x=236 Col2: x=529 Col3: x=822
       Row1: y=201  Row2: y=434  Card h=215
  ════════════════════════════════ -->

  <!-- ── ROW 1 ── -->

  <!-- Card 1: chicago_boundary.geojson — SELECTED / GeoJSON -->
  <g id="Card_Boundary" transform="translate(236,201)">
    <rect width="273" height="215" rx="10" fill="white" stroke="#2F8F4A" stroke-width="1.5" filter="url(#hover-sh)"/>
    <rect width="273" height="28" rx="10" fill="#2F8F4A"/>
    <rect y="18" width="273" height="10" fill="#2F8F4A"/>
    <rect x="12" y="7" width="62" height="16" rx="8" fill="rgba(255,255,255,0.22)"/>
    <text class="f badge" x="43" y="19" text-anchor="middle" fill="white" font-size="10px">GeoJSON</text>
    <!-- Selected active dot -->
    <circle cx="255" cy="14" r="5" fill="rgba(255,255,255,0.45)"/>
    <circle cx="255" cy="14" r="2.5" fill="white"/>
    <text class="f h3" x="16" y="55">chicago_boundary.geojson</text>
    <text class="f small" x="16" y="69">Urban Lab · v2.3.0</text>
    <text class="f small" x="16" y="83">Chicago city boundary — 77 community</text>
    <text class="f small" x="16" y="95">areas and shoreline, EPSG:4326</text>
    <rect x="16" y="104" width="52" height="16" rx="8" fill="#F0F0F0"/>
    <text x="42" y="116" text-anchor="middle" font-size="9px" fill="#555">chicago</text>
    <rect x="74" y="104" width="56" height="16" rx="8" fill="#F0F0F0"/>
    <text x="102" y="116" text-anchor="middle" font-size="9px" fill="#555">boundary</text>
    <rect x="136" y="104" width="64" height="16" rx="8" fill="#DFF2E1"/>
    <text x="168" y="116" text-anchor="middle" font-size="9px" fill="#2F8F4A">geospatial</text>
    <line x1="16" y1="130" x2="257" y2="130" stroke="#F0F0F0" stroke-width="1"/>
    <text class="f" x="16" y="147" font-size="10px" fill="#888">2,408 feat. | 1.8 MB | 3 nodes consume</text>
    <circle cx="223" cy="143" r="4" fill="#2F8F4A"/>
    <text class="f small" x="234" y="147">1h ago</text>
    <line x1="16" y1="160" x2="257" y2="160" stroke="#F0F0F0" stroke-width="1"/>
    <text class="f" x="16" y="178" font-size="11px" font-weight="600" fill="#2F8F4A">View details ↗</text>
    <!-- Install button -->
    <rect x="168" y="168" width="89" height="28" rx="7" fill="#1E1F23"/>
    <text class="f btn-w" x="212" y="186" text-anchor="middle">Install</text>
  </g>

  <!-- Card 2: us_census_tract_2020.csv — CSV, POPULAR -->
  <g id="Card_Census" transform="translate(529,201)">
    <rect width="273" height="215" rx="10" fill="white" filter="url(#card-sh)"/>
    <rect width="273" height="28" rx="10" fill="#3B6FD4"/>
    <rect y="18" width="273" height="10" fill="#3B6FD4"/>
    <rect x="12" y="7" width="38" height="16" rx="8" fill="rgba(255,255,255,0.22)"/>
    <text class="f badge" x="31" y="19" text-anchor="middle" fill="white" font-size="10px">CSV</text>
    <!-- POPULAR badge -->
    <rect x="182" y="6" width="79" height="16" rx="8" fill="rgba(255,255,255,0.22)"/>
    <text x="258" y="18" text-anchor="end" font-size="9px" font-weight="700" fill="white">🔥 POPULAR</text>
    <text class="f h3" x="16" y="55">us_census_tract_2020.csv</text>
    <text class="f small" x="16" y="69">DataCommons · v1.0.0</text>
    <text class="f small" x="16" y="83">US Census tract demographics — race,</text>
    <text class="f small" x="16" y="95">income, housing by tract, 2020</text>
    <rect x="16" y="104" width="44" height="16" rx="8" fill="#F0F0F0"/>
    <text x="38" y="116" text-anchor="middle" font-size="9px" fill="#555">census</text>
    <rect x="66" y="104" width="28" height="16" rx="8" fill="#F0F0F0"/>
    <text x="80" y="116" text-anchor="middle" font-size="9px" fill="#555">US</text>
    <rect x="100" y="104" width="54" height="16" rx="8" fill="#DCE8FF"/>
    <text x="127" y="116" text-anchor="middle" font-size="9px" fill="#3B6FD4">tabular</text>
    <line x1="16" y1="130" x2="257" y2="130" stroke="#F0F0F0" stroke-width="1"/>
    <text class="f" x="16" y="147" font-size="10px" fill="#888">84K rows | 24.6 MB | 0 nodes consume</text>
    <circle cx="223" cy="143" r="4" fill="#9E9E9E"/>
    <text class="f small" x="234" y="147">2d ago</text>
    <line x1="16" y1="160" x2="257" y2="160" stroke="#F0F0F0" stroke-width="1"/>
    <text class="f" x="16" y="178" font-size="11px" font-weight="600" fill="#3B6FD4">View details ↗</text>
    <rect x="168" y="168" width="89" height="28" rx="7" fill="#1E1F23"/>
    <text class="f btn-w" x="212" y="186" text-anchor="middle">Install</text>
  </g>

  <!-- Card 3: chicago_buildings.geojson — INSTALLED -->
  <g id="Card_Buildings" transform="translate(822,201)">
    <rect width="273" height="215" rx="10" fill="white" filter="url(#card-sh)"/>
    <rect width="273" height="28" rx="10" fill="#2F8F4A"/>
    <rect y="18" width="273" height="10" fill="#2F8F4A"/>
    <rect x="12" y="7" width="62" height="16" rx="8" fill="rgba(255,255,255,0.22)"/>
    <text class="f badge" x="43" y="19" text-anchor="middle" fill="white" font-size="10px">GeoJSON</text>
    <text class="f h3" x="16" y="55">chicago_buildings.geojson</text>
    <text class="f small" x="16" y="69">Urban Lab · v1.4.2</text>
    <text class="f small" x="16" y="83">Building footprints, heights and use</text>
    <text class="f small" x="16" y="95">classifications — 42K structures</text>
    <rect x="16" y="104" width="60" height="16" rx="8" fill="#F0F0F0"/>
    <text x="46" y="116" text-anchor="middle" font-size="9px" fill="#555">buildings</text>
    <rect x="82" y="104" width="52" height="16" rx="8" fill="#F0F0F0"/>
    <text x="108" y="116" text-anchor="middle" font-size="9px" fill="#555">chicago</text>
    <rect x="140" y="104" width="42" height="16" rx="8" fill="#DFF2E1"/>
    <text x="161" y="116" text-anchor="middle" font-size="9px" fill="#2F8F4A">urban</text>
    <line x1="16" y1="130" x2="257" y2="130" stroke="#F0F0F0" stroke-width="1"/>
    <text class="f" x="16" y="147" font-size="10px" fill="#888">42K feat. | 8.4 MB | 2 nodes consume</text>
    <circle cx="223" cy="143" r="4" fill="#2F8F4A"/>
    <text class="f small" x="234" y="147">2m ago</text>
    <line x1="16" y1="160" x2="257" y2="160" stroke="#F0F0F0" stroke-width="1"/>
    <text class="f" x="16" y="178" font-size="11px" font-weight="600" fill="#2F8F4A">View details ↗</text>
    <!-- Installed state: outlined check -->
    <rect x="156" y="168" width="101" height="28" rx="7" fill="transparent" stroke="#2F8F4A" stroke-width="1.5"/>
    <path d="M170 182 L173 185 L181 177" stroke="#2F8F4A" stroke-width="1.5" fill="none" stroke-linecap="round"/>
    <text class="f" x="227" y="186" text-anchor="middle" font-size="11px" font-weight="700" fill="#2F8F4A">Installed</text>
  </g>

  <!-- ── ROW 2 ── -->

  <!-- Card 4: openstreetmap_poi.json — JSON -->
  <g id="Card_OSM" transform="translate(236,434)">
    <rect width="273" height="215" rx="10" fill="white" filter="url(#card-sh)"/>
    <rect width="273" height="28" rx="10" fill="#7A4BD1"/>
    <rect y="18" width="273" height="10" fill="#7A4BD1"/>
    <rect x="12" y="7" width="40" height="16" rx="8" fill="rgba(255,255,255,0.22)"/>
    <text class="f badge" x="32" y="19" text-anchor="middle" fill="white" font-size="10px">JSON</text>
    <text class="f h3" x="16" y="55">openstreetmap_poi.json</text>
    <text class="f small" x="16" y="69">OSM Community · v3.1.0</text>
    <text class="f small" x="16" y="83">Points of interest — cafés, parks, transit,</text>
    <text class="f small" x="16" y="95">hospitals, shops. Regional extract.</text>
    <rect x="16" y="104" width="26" height="16" rx="8" fill="#F0F0F0"/>
    <text x="29" y="116" text-anchor="middle" font-size="9px" fill="#555">OSM</text>
    <rect x="48" y="104" width="44" height="16" rx="8" fill="#F0F0F0"/>
    <text x="70" y="116" text-anchor="middle" font-size="9px" fill="#555">places</text>
    <rect x="98" y="104" width="48" height="16" rx="8" fill="#EADCFB"/>
    <text x="122" y="116" text-anchor="middle" font-size="9px" fill="#7A4BD1">spatial</text>
    <line x1="16" y1="130" x2="257" y2="130" stroke="#F0F0F0" stroke-width="1"/>
    <text class="f" x="16" y="147" font-size="10px" fill="#888">180K pts | 12.3 MB | 0 nodes consume</text>
    <circle cx="223" cy="143" r="4" fill="#9E9E9E"/>
    <text class="f small" x="234" y="147">3d ago</text>
    <line x1="16" y1="160" x2="257" y2="160" stroke="#F0F0F0" stroke-width="1"/>
    <text class="f" x="16" y="178" font-size="11px" font-weight="600" fill="#7A4BD1">View details ↗</text>
    <rect x="168" y="168" width="89" height="28" rx="7" fill="#1E1F23"/>
    <text class="f btn-w" x="212" y="186" text-anchor="middle">Install</text>
  </g>

  <!-- Card 5: noaa_climate_normals.csv — OFFICIAL -->
  <g id="Card_NOAA" transform="translate(529,434)">
    <rect width="273" height="215" rx="10" fill="white" filter="url(#card-sh)"/>
    <rect width="273" height="28" rx="10" fill="#3B6FD4"/>
    <rect y="18" width="273" height="10" fill="#3B6FD4"/>
    <rect x="12" y="7" width="38" height="16" rx="8" fill="rgba(255,255,255,0.22)"/>
    <text class="f badge" x="31" y="19" text-anchor="middle" fill="white" font-size="10px">CSV</text>
    <!-- OFFICIAL badge -->
    <rect x="172" y="6" width="89" height="16" rx="8" fill="rgba(255,255,255,0.22)"/>
    <path d="M182 10 L184 12 L188 8" stroke="rgba(255,255,255,0.9)" stroke-width="1.2" fill="none"/>
    <text x="258" y="18" text-anchor="end" font-size="9px" font-weight="700" fill="white">✓ OFFICIAL</text>
    <text class="f h3" x="16" y="55">noaa_climate_normals.csv</text>
    <text class="f small" x="16" y="69">NOAA · v2024.1</text>
    <text class="f small" x="16" y="83">30-year climate normals — temperature,</text>
    <text class="f small" x="16" y="95">precipitation, wind. US stations.</text>
    <rect x="16" y="104" width="44" height="16" rx="8" fill="#F0F0F0"/>
    <text x="38" y="116" text-anchor="middle" font-size="9px" fill="#555">climate</text>
    <rect x="66" y="104" width="28" height="16" rx="8" fill="#F0F0F0"/>
    <text x="80" y="116" text-anchor="middle" font-size="9px" fill="#555">US</text>
    <rect x="100" y="104" width="44" height="16" rx="8" fill="#DCE8FF"/>
    <text x="122" y="116" text-anchor="middle" font-size="9px" fill="#3B6FD4">NOAA</text>
    <line x1="16" y1="130" x2="257" y2="130" stroke="#F0F0F0" stroke-width="1"/>
    <text class="f" x="16" y="147" font-size="10px" fill="#888">9K rows | 3.1 MB | 1 node consume</text>
    <circle cx="223" cy="143" r="4" fill="#2F8F4A"/>
    <text class="f small" x="234" y="147">4h ago</text>
    <line x1="16" y1="160" x2="257" y2="160" stroke="#F0F0F0" stroke-width="1"/>
    <text class="f" x="16" y="178" font-size="11px" font-weight="600" fill="#3B6FD4">View details ↗</text>
    <rect x="168" y="168" width="89" height="28" rx="7" fill="#1E1F23"/>
    <text class="f btn-w" x="212" y="186" text-anchor="middle">Install</text>
  </g>

  <!-- Card 6: urban_green_spaces.geojson — NEW -->
  <g id="Card_GreenSpaces" transform="translate(822,434)">
    <rect width="273" height="215" rx="10" fill="white" filter="url(#card-sh)"/>
    <rect width="273" height="28" rx="10" fill="#2F8F4A"/>
    <rect y="18" width="273" height="10" fill="#2F8F4A"/>
    <rect x="12" y="7" width="62" height="16" rx="8" fill="rgba(255,255,255,0.22)"/>
    <text class="f badge" x="43" y="19" text-anchor="middle" fill="white" font-size="10px">GeoJSON</text>
    <!-- NEW badge -->
    <rect x="206" y="6" width="55" height="16" rx="8" fill="#FBAA69"/>
    <text x="233" y="18" text-anchor="middle" font-size="9px" font-weight="700" fill="white">NEW</text>
    <text class="f h3" x="16" y="55">urban_green_spaces.geojson</text>
    <text class="f small" x="16" y="69">GreenData Initiative · v1.0.0</text>
    <text class="f small" x="16" y="83">Parks, gardens, urban forests and green</text>
    <text class="f small" x="16" y="95">corridors — Chicago metro area</text>
    <rect x="16" y="104" width="38" height="16" rx="8" fill="#F0F0F0"/>
    <text x="35" y="116" text-anchor="middle" font-size="9px" fill="#555">parks</text>
    <rect x="60" y="104" width="52" height="16" rx="8" fill="#F0F0F0"/>
    <text x="86" y="116" text-anchor="middle" font-size="9px" fill="#555">chicago</text>
    <rect x="118" y="104" width="44" height="16" rx="8" fill="#DFF2E1"/>
    <text x="140" y="116" text-anchor="middle" font-size="9px" fill="#2F8F4A">green</text>
    <line x1="16" y1="130" x2="257" y2="130" stroke="#F0F0F0" stroke-width="1"/>
    <text class="f" x="16" y="147" font-size="10px" fill="#888">620 feat. | 0.9 MB | 0 nodes consume</text>
    <circle cx="223" cy="143" r="4" fill="#9E9E9E"/>
    <text class="f small" x="234" y="147">1d ago</text>
    <line x1="16" y1="160" x2="257" y2="160" stroke="#F0F0F0" stroke-width="1"/>
    <text class="f" x="16" y="178" font-size="11px" font-weight="600" fill="#2F8F4A">View details ↗</text>
    <rect x="168" y="168" width="89" height="28" rx="7" fill="#1E1F23"/>
    <text class="f btn-w" x="212" y="186" text-anchor="middle">Install</text>
  </g>

  <!-- Scroll hint fade -->
  <rect x="212" y="820" width="908" height="80" fill="url(#fade-btm)"/>
  <text class="f" x="666" y="868" text-anchor="middle" font-size="11px" fill="#AAAAAA">↓ 48 datasets · scroll to browse more</text>

  <!-- ════════════════════════════════
       RIGHT DETAIL DRAWER  (1120 → 1440)
  ════════════════════════════════ -->
  <g id="DetailDrawer" filter="url(#drawer-sh)">
    <rect x="1120" y="65" width="320" height="835" fill="#FFFFFF"/>
    <line x1="1120" y1="65" x2="1120" y2="900" stroke="#E0E0E0" stroke-width="1"/>

    <!-- Drawer header -->
    <rect x="1120" y="65" width="320" height="50" fill="#FAFAFA"/>
    <line x1="1120" y1="115" x2="1440" y2="115" stroke="#EBEBEB" stroke-width="1"/>
    <text class="f h3" x="1140" y="96">Dataset Details</text>
    <!-- Close -->
    <line x1="1406" y1="80" x2="1422" y2="96" stroke="#AAAAAA" stroke-width="1.5"/>
    <line x1="1422" y1="80" x2="1406" y2="96" stroke="#AAAAAA" stroke-width="1.5"/>

    <!-- Hero placeholder / abstract geo preview -->
    <rect x="1132" y="125" width="296" height="112" rx="8" fill="#F0FAF2"/>
    <!-- Abstract boundary polygon representation -->
    <path d="M1190 180 L1230 153 L1270 165 L1300 155 L1320 175 L1318 210 L1280 218 L1230 215 L1190 208 Z"
          fill="#2F8F4A" opacity="0.12" stroke="#2F8F4A" stroke-width="1" stroke-opacity="0.3"/>
    <path d="M1208 185 L1240 162 L1275 172 L1295 165 L1308 182 L1306 205 L1270 210 L1235 207 L1208 200 Z"
          fill="#2F8F4A" opacity="0.08"/>
    <text class="f" x="1280" y="230" text-anchor="middle" font-size="10px" fill="#999">2,408 polygons · preview</text>

    <!-- Dataset name + badges -->
    <text class="f h2" x="1140" y="257">chicago_boundary</text>
    <text class="f h2" x="1140" y="276">.geojson</text>
    <rect x="1140" y="284" width="62" height="20" rx="10" fill="#DFF2E1"/>
    <text class="f badge" x="1171" y="298" text-anchor="middle" fill="#2F8F4A">GeoJSON</text>
    <!-- Hub badge -->
    <rect x="1210" y="284" width="68" height="20" rx="10" fill="#F0F0F0"/>
    <circle cx="1223" cy="294" r="5" stroke="#888" stroke-width="1" fill="none"/>
    <line x1="1223" y1="289" x2="1223" y2="299" stroke="#888" stroke-width="0.8"/>
    <line x1="1218" y1="294" x2="1228" y2="294" stroke="#888" stroke-width="0.8"/>
    <text class="f" x="1274" y="298" text-anchor="middle" font-size="10px" fill="#888">Hub</text>

    <!-- Publisher + verified -->
    <text class="f small-b" x="1140" y="320">Urban Lab · v2.3.0</text>
    <circle cx="1234" cy="315" r="6" fill="#DFF2E1"/>
    <path d="M1231 315 L1233 317 L1237 312" stroke="#2F8F4A" stroke-width="1.2" fill="none"/>
    <text class="f" x="1248" y="319" font-size="10px" fill="#2F8F4A">Verified</text>

    <!-- Usage metadata row -->
    <text class="f small" x="1140" y="339">2,408 feat. | 1.8 MB | 3 nodes consume</text>
    <circle cx="1348" cy="335" r="4" fill="#2F8F4A"/>
    <text class="f small" x="1360" y="339">1h ago</text>

    <!-- Description -->
    <line x1="1140" y1="350" x2="1420" y2="350" stroke="#F2F2F2" stroke-width="1"/>
    <text class="f small" x="1140" y="368">Chicago city boundary polygon dataset</text>
    <text class="f small" x="1140" y="382">including 77 community areas, city-wide</text>
    <text class="f small" x="1140" y="396">boundary and Lake Michigan shoreline.</text>

    <!-- Dataset info -->
    <line x1="1140" y1="412" x2="1420" y2="412" stroke="#EBEBEB" stroke-width="1"/>
    <text class="f label" x="1140" y="430">DATASET INFO</text>

    <text class="f small-b" x="1140" y="450">Format</text>
    <text class="f small" x="1360" y="450" text-anchor="end">GeoJSON</text>
    <line x1="1140" y1="457" x2="1420" y2="457" stroke="#F8F8F8" stroke-width="1"/>

    <text class="f small-b" x="1140" y="473">Features</text>
    <text class="f small" x="1360" y="473" text-anchor="end">2,408</text>
    <line x1="1140" y1="480" x2="1420" y2="480" stroke="#F8F8F8" stroke-width="1"/>

    <text class="f small-b" x="1140" y="496">File size</text>
    <text class="f small" x="1360" y="496" text-anchor="end">1.8 MB</text>
    <line x1="1140" y1="503" x2="1420" y2="503" stroke="#F8F8F8" stroke-width="1"/>

    <text class="f small-b" x="1140" y="519">CRS</text>
    <text class="f small" x="1360" y="519" text-anchor="end">EPSG:4326</text>
    <line x1="1140" y1="526" x2="1420" y2="526" stroke="#F8F8F8" stroke-width="1"/>

    <text class="f small-b" x="1140" y="542">License</text>
    <text class="f small" x="1360" y="542" text-anchor="end">CC BY 4.0</text>

    <!-- Tags -->
    <line x1="1140" y1="556" x2="1420" y2="556" stroke="#EBEBEB" stroke-width="1"/>
    <text class="f label" x="1140" y="574">TAGS</text>
    <rect x="1140" y="582" width="54" height="20" rx="10" fill="#F0F0F0"/>
    <text class="f" x="1167" y="596" text-anchor="middle" font-size="10px" fill="#555">chicago</text>
    <rect x="1200" y="582" width="58" height="20" rx="10" fill="#F0F0F0"/>
    <text class="f" x="1229" y="596" text-anchor="middle" font-size="10px" fill="#555">boundary</text>
    <rect x="1264" y="582" width="64" height="20" rx="10" fill="#F0F0F0"/>
    <text class="f" x="1296" y="596" text-anchor="middle" font-size="10px" fill="#555">geospatial</text>

    <!-- CTAs -->
    <line x1="1120" y1="616" x2="1440" y2="616" stroke="#EBEBEB" stroke-width="1"/>

    <!-- Primary: Add to palette -->
    <rect x="1132" y="628" width="296" height="42" rx="8" fill="#1E1F23"/>
    <!-- download arrow icon -->
    <line x1="1212" y1="645" x2="1212" y2="655" stroke="white" stroke-width="1.5"/>
    <path d="M1208 652 L1212 657 L1216 652" stroke="white" stroke-width="1.5" fill="none" stroke-linecap="round"/>
    <line x1="1206" y1="659" x2="1218" y2="659" stroke="white" stroke-width="1.5"/>
    <text class="f btn-w" x="1300" y="654" text-anchor="middle" font-size="13px">Add to Palette</text>

    <!-- Secondary: View sample data -->
    <rect x="1132" y="680" width="296" height="36" rx="8" fill="transparent" stroke="#E5E5E5" stroke-width="1"/>
    <text class="f btn-d" x="1280" y="702" text-anchor="middle">View sample data</text>

    <!-- Trust note -->
    <text class="f" x="1280" y="736" text-anchor="middle" font-size="10px" fill="#BBBBBB">Published by verified author</text>
    <text class="f" x="1280" y="750" text-anchor="middle" font-size="10px" fill="#BBBBBB">Last updated: May 20, 2026</text>
  </g>

</svg>
