<?xml version="1.0" encoding="UTF-8"?>
<svg xmlns="http://www.w3.org/2000/svg" viewBox="0 0 1440 900" width="1440" height="900" fill="none">
    <title>Curio - Dataset Detail Inspector (Simplified)</title>
    <desc>Simplified dataset inspector for chicago_buildings.geojson. Tabs: Overview, Schema, Table Preview, Lineage. Map Preview, Distribution and Quality tabs removed. Data Quality section removed from right panel. Installed badge + Publish to Hub action in header. Lineage tab = simple list of dataflows that generate/consume. Visual identity: Rubik, #1E1F23, #FBAA69.</desc>

    <defs>
        <style>
            .f { font-family: Rubik, -apple-system, BlinkMacSystemFont, 'Helvetica Neue', Helvetica, Arial, sans-serif; }
            .nav     { font-size:14px; font-weight:700; fill:#FBFCF6; }
            .nav-dim { font-size:14px; font-weight:500; fill:rgba(251,252,246,0.65); }
            .nav-acc { font-size:14px; font-weight:700; fill:#FBAA69; }
            .crumb   { font-size:11px; font-weight:600; fill:#888888; letter-spacing:0.05em; }
            .h1      { font-size:22px; font-weight:700; fill:#1E1F23; }
            .h2      { font-size:15px; font-weight:700; fill:#1E1F23; }
            .h3      { font-size:13px; font-weight:700; fill:#1E1F23; }
            .body    { font-size:13px; font-weight:400; fill:#1E1F23; }
            .small   { font-size:11px; font-weight:400; fill:#777777; }
            .small-b { font-size:11px; font-weight:600; fill:#555555; }
            .label   { font-size:10px; font-weight:700; fill:#999999; letter-spacing:0.06em; }
            .badge   { font-size:10px; font-weight:700; letter-spacing:0.05em; }
            .tab     { font-size:13px; font-weight:600; fill:#777777; }
            .tab-act { font-size:13px; font-weight:700; fill:#1E1F23; }
            .mono    { font-family:'Fira Code','Courier New',monospace; font-size:12px; fill:#1E1F23; }
            .mono-t  { font-family:'Fira Code','Courier New',monospace; font-size:11px; fill:#777777; }
            .mono-v  { font-family:'Fira Code','Courier New',monospace; font-size:12px; fill:#3B6FD4; }
            .mono-n  { font-family:'Fira Code','Courier New',monospace; font-size:12px; fill:#2F8F4A; }
        </style>
        <filter id="card-sh">
            <feDropShadow dx="0" dy="1" stdDeviation="3" flood-color="#000" flood-opacity="0.06"/>
        </filter>
        <linearGradient id="geo-grad" x1="0" y1="0" x2="1" y2="1">
            <stop offset="0%" stop-color="#DFF2E1"/>
            <stop offset="100%" stop-color="#DFF2E1"/>
        </linearGradient>
    </defs>

    <rect width="1440" height="900" fill="#f0f0f0"/>

    <!-- NAV BAR -->
    <g id="NavBar">
        <rect width="1440" height="65" fill="#1E1F23"/>
        <line x1="0" y1="65" x2="1440" y2="65" stroke="white" stroke-opacity="0.08" stroke-width="1"/>
        <text class="f nav" x="22" y="41">Curio</text>
        <text class="f nav-dim" x="106" y="41">File</text>
        <text class="f nav-dim" x="154" y="41">View</text>
        <text class="f nav-acc" x="206" y="41">Data Catalog</text>
        <text class="f nav-dim" x="303" y="41">Provenance</text>
        <text class="f nav-dim" x="408" y="41">Help</text>
        <text class="f nav-dim" x="455" y="41">Nodes hub</text>
        <rect x="558" y="17" width="324" height="32" rx="8" fill="rgba(255,255,255,0.07)" stroke="rgba(255,255,255,0.12)" stroke-width="1"/>
        <circle cx="580" cy="33" r="7" stroke="rgba(251,252,246,0.3)" stroke-width="1.5" fill="none"/>
        <line x1="585" y1="38" x2="589" y2="42" stroke="rgba(251,252,246,0.3)" stroke-width="1.5"/>
        <text class="f" x="600" y="37" font-size="12px" fill="rgba(251,252,246,0.3)">Search canvas, datasets, nodes...</text>
        <circle cx="1408" cy="32" r="15" fill="#FBAA69"/>
        <text class="f" x="1408" y="37" text-anchor="middle" font-size="12px" font-weight="700" fill="#1E1F23">KA</text>
    </g>

    <!-- PAGE HEADER -->
    <g id="PageHeader">
        <rect x="0" y="65" width="1440" height="128" fill="#FAFAFA"/>
        <line x1="0" y1="193" x2="1440" y2="193" stroke="#E5E5E5" stroke-width="1"/>

        <!-- Breadcrumb -->
        <text class="f crumb" x="24" y="88">DATA CATALOG</text>
        <text class="f" x="116" y="88" font-size="11px" fill="#BBBBBB">/</text>
        <text class="f crumb" x="126" y="88">INSTALLED DATASETS</text>
        <text class="f" x="246" y="88" font-size="11px" fill="#BBBBBB">/</text>
        <text class="f" x="256" y="88" font-size="11px" font-weight="600" fill="#1E1F23">chicago_buildings.geojson</text>

        <!-- Back button -->
        <rect x="24" y="96" width="72" height="28" rx="6" fill="transparent" stroke="#E5E5E5" stroke-width="1"/>
        <path d="M38 110 L46 110 M38 110 L42 106 M38 110 L42 114" stroke="#777777" stroke-width="1.3" fill="none"/>
        <text class="f" x="52" y="115" font-size="12px" fill="#555">Back</text>

        <!-- Dataset icon + title -->
        <rect x="24" y="132" width="40" height="40" rx="10" fill="url(#geo-grad)"/>
        <path d="M34 160 L39 150 L44 156 L48 152 L54 160 Z" fill="#2F8F4A" opacity="0.7"/>
        <circle cx="38" cy="146" r="4" fill="#2F8F4A"/>
        <text class="f h1" x="76" y="157">chicago_buildings.geojson</text>

        <!-- Installed badge -->
        <rect x="76" y="164" width="76" height="20" rx="10" fill="#1E1F23"/>
        <text class="f badge" x="114" y="178" text-anchor="middle" fill="white">INSTALLED</text>

        <!-- Format badge -->
        <rect x="160" y="164" width="60" height="20" rx="10" fill="#DFF2E1"/>
        <text class="f badge" x="190" y="178" text-anchor="middle" fill="#2F8F4A">GeoJSON</text>

        <!-- Quick stats -->
        <text class="f small-b" x="232" y="178">42,156 features</text>
        <text class="f" x="302" y="178" font-size="11px" fill="#D0D0D0">.</text>
        <text class="f small-b" x="310" y="178">18 columns</text>
        <text class="f" x="366" y="178" font-size="11px" fill="#D0D0D0">.</text>
        <text class="f small-b" x="374" y="178">8.4 MB</text>
        <text class="f" x="414" y="178" font-size="11px" fill="#D0D0D0">.</text>
        <text class="f small-b" x="422" y="178">Updated 2m ago</text>

        <!-- Action buttons -->
        <!-- Publish to Hub -->
        <rect x="1184" y="140" width="130" height="34" rx="7" fill="#1E1F23"/>
        <line x1="1203" y1="159" x2="1203" y2="151" stroke="white" stroke-width="1.5"/>
        <path d="M1199 155 L1203 150 L1207 155" stroke="white" stroke-width="1.5" fill="none" stroke-linecap="round"/>
        <line x1="1197" y1="162" x2="1209" y2="162" stroke="white" stroke-width="1.5"/>
        <text class="f" x="1314" y="162" text-anchor="end" font-size="12px" font-weight="700" fill="white">Publish to Hub</text>
        <!-- Export secondary -->
        <rect x="1324" y="140" width="92" height="34" rx="7" fill="transparent" stroke="#E5E5E5" stroke-width="1"/>
        <text class="f" x="1370" y="162" text-anchor="middle" font-size="12px" font-weight="600" fill="#555555">Export</text>

        <!-- Tabs row: only Overview, Schema, Table Preview, Lineage -->
        <rect x="0" y="157" width="1440" height="36" fill="#FAFAFA"/>
        <line x1="0" y1="193" x2="1440" y2="193" stroke="#E5E5E5" stroke-width="1"/>
        <text class="f tab-act" x="24" y="180">Overview</text>
        <rect x="24" y="190" width="68" height="3" rx="1.5" fill="#1E1F23"/>
        <text class="f tab" x="110" y="180">Schema</text>
        <text class="f tab" x="188" y="180">Table Preview</text>
        <text class="f tab" x="298" y="180">Lineage</text>
        <!-- NOTE: Map Preview, Distribution, Quality tabs deliberately removed -->
    </g>

    <!-- LEFT PANEL: SCHEMA TREE (0 to 296) -->
    <g id="SchemaPanel">
        <rect x="0" y="193" width="296" height="707" fill="white"/>
        <line x1="296" y1="193" x2="296" y2="900" stroke="#E5E5E5" stroke-width="1"/>

        <rect x="0" y="193" width="296" height="44" fill="#FAFAFA"/>
        <line x1="0" y1="237" x2="296" y2="237" stroke="#EBEBEB" stroke-width="1"/>
        <text class="f h3" x="16" y="220">Schema</text>
        <rect x="86" y="209" width="30" height="18" rx="9" fill="#F0F0F0"/>
        <text class="f" x="101" y="221" text-anchor="middle" font-size="10px" font-weight="700" fill="#777">18</text>
        <rect x="184" y="208" width="96" height="22" rx="6" fill="#f0f0f0" stroke="#EBEBEB" stroke-width="1"/>
        <text class="f" x="280" y="223" text-anchor="end" font-size="10px" fill="#BBBBBB">Filter fields...</text>

        <!-- Column header -->
        <rect x="0" y="237" width="296" height="26" fill="#F8F8F8"/>
        <text class="f label" x="16" y="254">FIELD</text>
        <text class="f label" x="180" y="254">TYPE</text>
        <text class="f label" x="252" y="254">NULL</text>

        <!-- Field rows -->
        <rect x="0" y="263" width="296" height="26" fill="rgba(0,0,0,0.015)"/>
        <rect x="10" y="268" width="15" height="15" rx="3" fill="#DFF2E1"/>
        <text x="17" y="279" text-anchor="middle" font-size="9px" font-weight="700" fill="#2F8F4A">G</text>
        <text class="f mono" x="32" y="280">geometry</text>
        <text class="f mono-t" x="180" y="280">GEOMETRY</text>

        <rect x="0" y="289" width="296" height="26" fill="transparent"/>
        <rect x="10" y="294" width="15" height="15" rx="3" fill="#DCE8FF"/>
        <text x="17" y="305" text-anchor="middle" font-size="9px" font-weight="700" fill="#3B6FD4">#</text>
        <text class="f mono" x="32" y="306">polygon_id</text>
        <text class="f mono-t" x="180" y="306">INTEGER</text>
        <rect x="148" y="296" width="22" height="11" rx="5.5" fill="#FDF0E8"/>
        <text x="159" y="305" text-anchor="middle" font-size="8px" font-weight="700" fill="#FBAA69">PK</text>

        <rect x="0" y="315" width="296" height="26" fill="rgba(0,0,0,0.015)"/>
        <rect x="10" y="320" width="15" height="15" rx="3" fill="#F3F4F6"/>
        <text x="17" y="331" text-anchor="middle" font-size="9px" font-weight="700" fill="#6B7280">T</text>
        <text class="f mono" x="32" y="332">name</text>
        <text class="f mono-t" x="180" y="332">STRING</text>

        <rect x="0" y="341" width="296" height="26" fill="transparent"/>
        <rect x="10" y="346" width="15" height="15" rx="3" fill="#F3F4F6"/>
        <text x="17" y="357" text-anchor="middle" font-size="9px" font-weight="700" fill="#6B7280">T</text>
        <text class="f mono" x="32" y="358">address</text>
        <text class="f mono-t" x="180" y="358">STRING</text>

        <rect x="0" y="367" width="296" height="26" fill="rgba(0,0,0,0.015)"/>
        <rect x="10" y="372" width="15" height="15" rx="3" fill="#F3F4F6"/>
        <text x="17" y="383" text-anchor="middle" font-size="9px" font-weight="700" fill="#6B7280">T</text>
        <text class="f mono" x="32" y="384">building_type</text>
        <text class="f mono-t" x="180" y="384">STRING</text>

        <rect x="0" y="393" width="296" height="26" fill="transparent"/>
        <rect x="10" y="398" width="15" height="15" rx="3" fill="#DCE8FF"/>
        <text x="17" y="409" text-anchor="middle" font-size="9px" font-weight="700" fill="#3B6FD4">#</text>
        <text class="f mono" x="32" y="410">year_built</text>
        <text class="f mono-t" x="180" y="410">INTEGER</text>
        <text class="f mono-t" x="252" y="410">null</text>

        <rect x="0" y="419" width="296" height="26" fill="rgba(0,0,0,0.015)"/>
        <rect x="10" y="424" width="15" height="15" rx="3" fill="#DCE8FF"/>
        <text x="17" y="435" text-anchor="middle" font-size="9px" font-weight="700" fill="#3B6FD4">#</text>
        <text class="f mono" x="32" y="436">floors</text>
        <text class="f mono-t" x="180" y="436">INTEGER</text>

        <rect x="0" y="445" width="296" height="26" fill="transparent"/>
        <rect x="10" y="450" width="15" height="15" rx="3" fill="#EADCFB"/>
        <text x="17" y="461" text-anchor="middle" font-size="9px" font-weight="700" fill="#7A4BD1">~</text>
        <text class="f mono" x="32" y="462">area_sqm</text>
        <text class="f mono-t" x="180" y="462">FLOAT</text>

        <rect x="0" y="471" width="296" height="26" fill="rgba(0,0,0,0.015)"/>
        <rect x="10" y="476" width="15" height="15" rx="3" fill="#EADCFB"/>
        <text x="17" y="487" text-anchor="middle" font-size="9px" font-weight="700" fill="#7A4BD1">~</text>
        <text class="f mono" x="32" y="488">height_m</text>
        <text class="f mono-t" x="180" y="488">FLOAT</text>

        <rect x="0" y="497" width="296" height="26" fill="transparent"/>
        <rect x="10" y="502" width="15" height="15" rx="3" fill="#EADCFB"/>
        <text x="17" y="513" text-anchor="middle" font-size="9px" font-weight="700" fill="#7A4BD1">~</text>
        <text class="f mono" x="32" y="514">latitude</text>
        <text class="f mono-t" x="180" y="514">FLOAT</text>

        <rect x="0" y="523" width="296" height="26" fill="rgba(0,0,0,0.015)"/>
        <rect x="10" y="528" width="15" height="15" rx="3" fill="#EADCFB"/>
        <text x="17" y="539" text-anchor="middle" font-size="9px" font-weight="700" fill="#7A4BD1">~</text>
        <text class="f mono" x="32" y="540">longitude</text>
        <text class="f mono-t" x="180" y="540">FLOAT</text>

        <rect x="0" y="549" width="296" height="26" fill="transparent"/>
        <rect x="10" y="554" width="15" height="15" rx="3" fill="#F3F4F6"/>
        <text x="17" y="565" text-anchor="middle" font-size="9px" font-weight="700" fill="#6B7280">T</text>
        <text class="f mono" x="32" y="566">district</text>
        <text class="f mono-t" x="180" y="566">STRING</text>

        <rect x="0" y="575" width="296" height="26" fill="rgba(0,0,0,0.015)"/>
        <rect x="10" y="580" width="15" height="15" rx="3" fill="#F3F4F6"/>
        <text x="17" y="591" text-anchor="middle" font-size="9px" font-weight="700" fill="#6B7280">T</text>
        <text class="f mono" x="32" y="592">land_use</text>
        <text class="f mono-t" x="180" y="592">STRING</text>

        <rect x="0" y="601" width="296" height="26" fill="transparent"/>
        <rect x="10" y="606" width="15" height="15" rx="3" fill="#DFF2E1"/>
        <text x="17" y="617" text-anchor="middle" font-size="9px" font-weight="700" fill="#2F8F4A">b</text>
        <text class="f mono" x="32" y="618">historic_flag</text>
        <text class="f mono-t" x="180" y="618">BOOLEAN</text>

        <!-- Schema stats bar -->
        <rect x="0" y="860" width="296" height="40" fill="#F8F8F8"/>
        <line x1="0" y1="860" x2="296" y2="860" stroke="#EBEBEB" stroke-width="1"/>
        <text class="f small" x="16" y="884">18 fields  .  4 nullable  .  1 geometry</text>
    </g>

    <!-- CENTER PANEL: TABLE PREVIEW + DATA FLOWS LINEAGE -->
    <g id="CenterPanel">
        <!-- Sub-tab header: only Table Preview (no Map Preview, Distribution, Quality) -->
        <rect x="296" y="193" width="744" height="38" fill="#FAFAFA"/>
        <line x1="296" y1="231" x2="1040" y2="231" stroke="#E5E5E5" stroke-width="1"/>
        <text class="f tab-act" x="316" y="216">Table Preview</text>
        <rect x="316" y="228" width="96" height="3" rx="1.5" fill="#1E1F23"/>
        <!-- Map Preview, Distribution, Quality intentionally removed here -->

        <!-- Row count note -->
        <rect x="296" y="231" width="744" height="24" fill="#F8F8F8"/>
        <text class="f small" x="316" y="247" fill="#888">Showing rows 1-6 of 42,156</text>
        <text class="f" x="940" y="247" font-size="11px" fill="#555" font-weight="600">Columns</text>

        <!-- Table header -->
        <rect x="296" y="255" width="744" height="30" fill="#F0F0F0"/>
        <line x1="296" y1="285" x2="1040" y2="285" stroke="#E0E0E0" stroke-width="1"/>
        <text class="f label" x="310" y="274">polygon_id</text>
        <line x1="404" y1="255" x2="404" y2="285" stroke="#E0E0E0" stroke-width="1"/>
        <text class="f label" x="414" y="274">name</text>
        <line x1="554" y1="255" x2="554" y2="285" stroke="#E0E0E0" stroke-width="1"/>
        <text class="f label" x="564" y="274">building_type</text>
        <line x1="694" y1="255" x2="694" y2="285" stroke="#E0E0E0" stroke-width="1"/>
        <text class="f label" x="704" y="274">year_built</text>
        <line x1="796" y1="255" x2="796" y2="285" stroke="#E0E0E0" stroke-width="1"/>
        <text class="f label" x="806" y="274">floors</text>
        <line x1="870" y1="255" x2="870" y2="285" stroke="#E0E0E0" stroke-width="1"/>
        <text class="f label" x="880" y="274">district</text>

        <!-- Data rows 1-6 -->
        <rect x="296" y="285" width="744" height="32" fill="rgba(16,185,129,0.04)"/>
        <text class="f mono-v" x="310" y="305">100001</text>
        <text class="f mono" x="414" y="305">Chicago Tribune Tower</text>
        <text class="f mono" x="564" y="305">commercial</text>
        <text class="f mono-n" x="704" y="305">1925</text>
        <text class="f mono-n" x="806" y="305">36</text>
        <text class="f mono" x="880" y="305">Streeterville</text>

        <rect x="296" y="317" width="744" height="32" fill="rgba(0,0,0,0.012)"/>
        <text class="f mono-v" x="310" y="337">100002</text>
        <text class="f mono" x="414" y="337">Willis Tower</text>
        <text class="f mono" x="564" y="337">office</text>
        <text class="f mono-n" x="704" y="337">1973</text>
        <text class="f mono-n" x="806" y="337">108</text>
        <text class="f mono" x="880" y="337">The Loop</text>

        <rect x="296" y="349" width="744" height="32" fill="transparent"/>
        <text class="f mono-v" x="310" y="369">100003</text>
        <text class="f mono" x="414" y="369">Chicago City Hall</text>
        <text class="f mono" x="564" y="369">government</text>
        <text class="f mono-n" x="704" y="369">1911</text>
        <text class="f mono-n" x="806" y="369">11</text>
        <text class="f mono" x="880" y="369">The Loop</text>

        <rect x="296" y="381" width="744" height="32" fill="rgba(0,0,0,0.012)"/>
        <text class="f mono-v" x="310" y="401">100004</text>
        <text class="f mono" x="414" y="401">Marina City</text>
        <text class="f mono" x="564" y="401">residential</text>
        <text class="f mono-n" x="704" y="401">1964</text>
        <text class="f mono-n" x="806" y="401">61</text>
        <text class="f mono" x="880" y="401">Near North</text>

        <rect x="296" y="413" width="744" height="32" fill="transparent"/>
        <text class="f mono-v" x="310" y="433">100005</text>
        <text class="f mono" x="414" y="433">Palmolive Building</text>
        <text class="f mono" x="564" y="433">commercial</text>
        <text class="f mono-n" x="704" y="433">1929</text>
        <text class="f mono-n" x="806" y="433">37</text>
        <text class="f mono" x="880" y="433">Streeterville</text>

        <rect x="296" y="445" width="744" height="32" fill="rgba(0,0,0,0.012)"/>
        <text class="f mono-v" x="310" y="465">100006</text>
        <text class="f mono" x="414" y="465">Wrigley Field</text>
        <text class="f mono" x="564" y="465">stadium</text>
        <text class="f mono-n" x="704" y="465">1914</text>
        <text class="f mono-n" x="806" y="465">3</text>
        <text class="f mono" x="880" y="465">Lakeview</text>

        <!-- Pagination bar -->
        <rect x="296" y="477" width="744" height="34" fill="#FAFAFA"/>
        <line x1="296" y1="477" x2="1040" y2="477" stroke="#EBEBEB" stroke-width="1"/>
        <text class="f small" x="316" y="498">Showing 1-6 of 42,156</text>
        <rect x="872" y="483" width="22" height="20" rx="4" fill="transparent" stroke="#EBEBEB" stroke-width="1"/>
        <text x="883" y="497" text-anchor="middle" font-size="11px" fill="#888">-</text>
        <rect x="900" y="483" width="22" height="20" rx="4" fill="#1E1F23"/>
        <text x="911" y="497" text-anchor="middle" font-size="11px" fill="white">1</text>
        <rect x="928" y="483" width="22" height="20" rx="4" fill="transparent" stroke="#EBEBEB" stroke-width="1"/>
        <text x="939" y="497" text-anchor="middle" font-size="11px" fill="#888">2</text>
        <rect x="956" y="483" width="22" height="20" rx="4" fill="transparent" stroke="#EBEBEB" stroke-width="1"/>
        <text x="967" y="497" text-anchor="middle" font-size="11px" fill="#888">+</text>

        <!-- DATA FLOWS LINEAGE (simplified list, replacing graph) -->
        <rect x="296" y="511" width="744" height="389" fill="#FAFAFA"/>
        <line x1="296" y1="511" x2="1040" y2="511" stroke="#E5E5E5" stroke-width="1"/>
        <text class="f h3" x="316" y="538">Data Flows</text>
        <rect x="408" y="525" width="46" height="18" rx="9" fill="#F0FAF2"/>
        <text class="f badge" x="431" y="537" text-anchor="middle" fill="#2F8F4A">live</text>
        <text class="f small" x="316" y="556">Dataflows that generate or consume this dataset</text>

        <!-- GENERATED BY -->
        <text class="f label" x="316" y="578">GENERATED BY</text>
        <rect x="316" y="585" width="700" height="54" rx="8" fill="white" stroke="#EBEBEB" stroke-width="1"/>
        <rect x="316" y="585" width="4" height="54" rx="2" fill="#FBAA69"/>
        <rect x="328" y="595" width="28" height="28" rx="6" fill="#FDF0E8"/>
        <path d="M334 599 L334 615 L348 615 L348 604 L343 599 Z" stroke="#FBAA69" stroke-width="1.2" fill="none" stroke-linejoin="round"/>
        <path d="M343 599 L343 604 L348 604" stroke="#FBAA69" stroke-width="1.2" fill="none"/>
        <text class="f small-b" x="364" y="607">Chicago Buildings Loader</text>
        <rect x="364" y="611" width="54" height="14" rx="7" fill="#FDF0E8"/>
        <text x="391" y="621" text-anchor="middle" font-size="8px" font-weight="700" fill="#FBAA69">SOURCE NODE</text>
        <text class="f small" x="364" y="630">Dataflow: Chicago Urban Analysis</text>
        <text class="f" x="994" y="617" text-anchor="end" font-size="11px" font-weight="600" fill="#2F8F4A">View node</text>

        <!-- CONSUMED BY -->
        <text class="f label" x="316" y="660">CONSUMED BY (2)</text>

        <rect x="316" y="667" width="700" height="54" rx="8" fill="white" stroke="#EBEBEB" stroke-width="1"/>
        <rect x="316" y="667" width="4" height="54" rx="2" fill="#6B6B76"/>
        <rect x="328" y="677" width="28" height="28" rx="6" fill="#F0F0F0"/>
        <path d="M334 681 L342 681 L339 687 L339 693 L337 693 L337 687 Z" stroke="#6B6B76" stroke-width="1.2" fill="none" stroke-linejoin="round"/>
        <text class="f small-b" x="364" y="687">Spatial Filter</text>
        <rect x="364" y="691" width="68" height="14" rx="7" fill="#F1F5F9"/>
        <text x="398" y="701" text-anchor="middle" font-size="8px" font-weight="700" fill="#6B6B76">COMPUTE NODE</text>
        <text class="f small" x="364" y="710">Dataflow: Chicago Urban Analysis</text>
        <text class="f" x="994" y="697" text-anchor="end" font-size="11px" font-weight="600" fill="#2F8F4A">View node</text>

        <rect x="316" y="729" width="700" height="54" rx="8" fill="white" stroke="#EBEBEB" stroke-width="1"/>
        <rect x="316" y="729" width="4" height="54" rx="2" fill="#3B6FD4"/>
        <rect x="328" y="739" width="28" height="28" rx="6" fill="#DCE8FF"/>
        <circle cx="342" cy="753" r="6" stroke="#3B6FD4" stroke-width="1.2" fill="none"/>
        <line x1="338" y1="749" x2="346" y2="757" stroke="#3B6FD4" stroke-width="1"/>
        <line x1="346" y1="749" x2="338" y2="757" stroke="#3B6FD4" stroke-width="1"/>
        <text class="f small-b" x="364" y="749">Building Type Classifier</text>
        <rect x="364" y="753" width="62" height="14" rx="7" fill="#DCE8FF"/>
        <text x="395" y="763" text-anchor="middle" font-size="8px" font-weight="700" fill="#3B6FD4">ML COMPUTE</text>
        <text class="f small" x="364" y="772">Dataflow: Chicago Urban Analysis</text>
        <text class="f" x="994" y="759" text-anchor="end" font-size="11px" font-weight="600" fill="#2F8F4A">View node</text>

        <text class="f small" x="316" y="806">Last execution: today 09:44  .  Duration: 13.4s  .  Data live</text>
        <text class="f" x="316" y="826" font-size="11px" font-weight="600" fill="#2F8F4A">View full lineage graph</text>
    </g>

    <!-- RIGHT PANEL: METADATA (no Data Quality section) -->
    <g id="MetadataPanel">
        <rect x="1040" y="193" width="400" height="707" fill="white"/>
        <line x1="1040" y1="193" x2="1040" y2="900" stroke="#E5E5E5" stroke-width="1"/>

        <rect x="1040" y="193" width="400" height="44" fill="#FAFAFA"/>
        <line x1="1040" y1="237" x2="1440" y2="237" stroke="#EBEBEB" stroke-width="1"/>
        <text class="f h3" x="1060" y="220">Dataset Info</text>

        <!-- GENERAL -->
        <text class="f label" x="1060" y="258">GENERAL</text>

        <text class="f small-b" x="1060" y="278">Format</text>
        <text class="f body" x="1280" y="278">GeoJSON</text>
        <line x1="1060" y1="286" x2="1420" y2="286" stroke="#F5F5F5" stroke-width="1"/>

        <text class="f small-b" x="1060" y="303">Total features</text>
        <text class="f body" x="1280" y="303">42,156</text>
        <line x1="1060" y1="311" x2="1420" y2="311" stroke="#F5F5F5" stroke-width="1"/>

        <text class="f small-b" x="1060" y="328">Columns</text>
        <text class="f body" x="1280" y="328">18</text>
        <line x1="1060" y1="336" x2="1420" y2="336" stroke="#F5F5F5" stroke-width="1"/>

        <text class="f small-b" x="1060" y="353">File size</text>
        <text class="f body" x="1280" y="353">8.4 MB</text>
        <line x1="1060" y1="361" x2="1420" y2="361" stroke="#F5F5F5" stroke-width="1"/>

        <text class="f small-b" x="1060" y="378">CRS</text>
        <text class="f body" x="1280" y="378">EPSG:4326</text>
        <line x1="1060" y1="386" x2="1420" y2="386" stroke="#F5F5F5" stroke-width="1"/>

        <text class="f small-b" x="1060" y="403">Availability</text>
        <rect x="1280" y="391" width="76" height="20" rx="10" fill="#1E1F23"/>
        <text class="f badge" x="1318" y="405" text-anchor="middle" fill="white">INSTALLED</text>
        <line x1="1060" y1="419" x2="1420" y2="419" stroke="#F5F5F5" stroke-width="1"/>

        <text class="f small-b" x="1060" y="436">Created</text>
        <text class="f body" x="1280" y="436">May 26, 09:44</text>
        <line x1="1060" y1="444" x2="1420" y2="444" stroke="#F5F5F5" stroke-width="1"/>

        <text class="f small-b" x="1060" y="461">Last updated</text>
        <text class="f body" x="1280" y="461">2 min ago</text>

        <line x1="1060" y1="478" x2="1420" y2="478" stroke="#EBEBEB" stroke-width="1"/>

        <!-- ORIGIN (hub source info) -->
        <text class="f label" x="1060" y="498">ORIGIN</text>
        <rect x="1060" y="506" width="360" height="52" rx="8" fill="#FAFAFA" stroke="#EBEBEB" stroke-width="1"/>
        <rect x="1060" y="506" width="4" height="52" rx="2" fill="#FBAA69"/>
        <text class="f h3" x="1074" y="525">Chicago Buildings Loader</text>
        <text class="f small" x="1074" y="539">Source node  .  GeoJSON Loader</text>
        <text class="f" x="1074" y="551" font-size="10px" font-weight="600" fill="#2F8F4A">View node</text>

        <!-- Hub source indicator -->
        <rect x="1060" y="566" width="360" height="44" rx="8" fill="#F8FDF9" stroke="#DFF2E1" stroke-width="1"/>
        <circle cx="1074" cy="588" r="6" stroke="#2F8F4A" stroke-width="1" fill="none"/>
        <line x1="1074" y1="582" x2="1074" y2="594" stroke="#2F8F4A" stroke-width="0.8"/>
        <line x1="1068" y1="588" x2="1080" y2="588" stroke="#2F8F4A" stroke-width="0.8"/>
        <text class="f" x="1090" y="586" font-size="11px" font-weight="600" fill="#2F8F4A">Installed from Data Catalog</text>
        <text class="f small" x="1090" y="600">Urban Lab  .  v1.4.2  .  Installed May 26</text>

        <!-- CONSUMED BY -->
        <line x1="1060" y1="620" x2="1420" y2="620" stroke="#EBEBEB" stroke-width="1"/>
        <text class="f label" x="1060" y="640">CONSUMED BY (2)</text>

        <rect x="1060" y="648" width="360" height="40" rx="8" fill="#FAFAFA" stroke="#EBEBEB" stroke-width="1"/>
        <rect x="1060" y="648" width="4" height="40" rx="2" fill="#6B6B76"/>
        <text class="f small-b" x="1074" y="666">Spatial Filter</text>
        <text class="f small" x="1074" y="680">Compute node</text>
        <text class="f" x="1400" y="670" text-anchor="end" font-size="10px" fill="#6B6B76">-&gt;</text>

        <rect x="1060" y="694" width="360" height="40" rx="8" fill="#FAFAFA" stroke="#EBEBEB" stroke-width="1"/>
        <rect x="1060" y="694" width="4" height="40" rx="2" fill="#3B6FD4"/>
        <text class="f small-b" x="1074" y="712">Building Type Classifier</text>
        <text class="f small" x="1074" y="726">Compute node (ML)</text>
        <text class="f" x="1400" y="716" text-anchor="end" font-size="10px" fill="#6B6B76">-&gt;</text>

        <!-- TAGS -->
        <line x1="1060" y1="746" x2="1420" y2="746" stroke="#EBEBEB" stroke-width="1"/>
        <text class="f label" x="1060" y="766">TAGS</text>
        <rect x="1060" y="774" width="56" height="22" rx="11" fill="#F0F0F0"/>
        <text class="f" x="1088" y="789" text-anchor="middle" font-size="11px" fill="#555">chicago</text>
        <rect x="1122" y="774" width="62" height="22" rx="11" fill="#F0F0F0"/>
        <text class="f" x="1153" y="789" text-anchor="middle" font-size="11px" fill="#555">buildings</text>
        <rect x="1190" y="774" width="60" height="22" rx="11" fill="#F0F0F0"/>
        <text class="f" x="1220" y="789" text-anchor="middle" font-size="11px" fill="#555">geospatial</text>
        <rect x="1256" y="774" width="42" height="22" rx="11" fill="#F0F0F0"/>
        <text class="f" x="1277" y="789" text-anchor="middle" font-size="11px" fill="#555">urban</text>
    </g>

</svg>
