<?xml version="1.0" encoding="UTF-8"?>
<svg xmlns="http://www.w3.org/2000/svg" viewBox="0 0 1440 900" width="1440" height="900" fill="none">
  <title>Curio - Data Catalog Drawer</title>
  <desc>Canvas with the data catalog drawer open, using the same app chrome, floating tool palettes, node cards, right-side catalog drawer, tabs, cards, and primary action patterns shown in the base Curio UI screenshots.</desc>

  <defs>
    <style>
      .f { font-family: Rubik, -apple-system, BlinkMacSystemFont, 'Helvetica Neue', Helvetica, Arial, sans-serif; }
      .nav { font-size:15px; font-weight:800; fill:#F5F5F5; }
      .nav-dim { font-size:15px; font-weight:800; fill:#E5E5E5; }
      .h1 { font-size:22px; font-weight:700; fill:#1E1F23; }
      .h2 { font-size:16px; font-weight:800; fill:#1E1F23; }
      .h3 { font-size:13px; font-weight:800; fill:#1E1F23; }
      .panel-title { font-size:10px; font-weight:800; fill:#9A9A9E; letter-spacing:0.12em; }
      .panel-body { font-size:12px; font-weight:700; fill:#EDEDED; }
      .body { font-size:12px; font-weight:500; fill:#5E6066; }
      .small { font-size:10px; font-weight:500; fill:#7A7C82; }
      .tiny { font-size:9px; font-weight:800; fill:#777A80; letter-spacing:0.06em; }
      .chip { font-size:10px; font-weight:800; fill:#60636A; }
      .chip-dark { font-size:10px; font-weight:800; fill:#F8F8F8; letter-spacing:0.04em; }
      .tab-active { font-size:13px; font-weight:800; fill:#FFFFFF; }
      .button { font-size:13px; font-weight:800; fill:#1E1F23; }
      .button-invert { font-size:13px; font-weight:800; fill:#FFFFFF; }
      .code { font-family:'Fira Code','Courier New',monospace; font-size:11px; fill:#517B4A; }
      .code-blue { font-family:'Fira Code','Courier New',monospace; font-size:11px; fill:#3B64D8; }
    </style>

    <pattern id="dot-grid" x="0" y="0" width="20" height="20" patternUnits="userSpaceOnUse">
      <circle cx="10" cy="10" r="1.15" fill="#ACADB1" opacity="0.72"/>
    </pattern>

    <filter id="panel-shadow" x="-8%" y="-8%" width="116%" height="126%">
      <feDropShadow dx="0" dy="5" stdDeviation="9" flood-color="#000000" flood-opacity="0.24"/>
    </filter>
    <filter id="node-shadow" x="-8%" y="-8%" width="116%" height="126%">
      <feDropShadow dx="0" dy="8" stdDeviation="12" flood-color="#000000" flood-opacity="0.18"/>
    </filter>
    <filter id="drawer-shadow" x="-12%" y="0%" width="112%" height="100%">
      <feDropShadow dx="-4" dy="0" stdDeviation="10" flood-color="#000000" flood-opacity="0.12"/>
    </filter>
  </defs>

  <rect width="1440" height="900" fill="#F4F4F5"/>
  <rect y="62" width="1440" height="838" fill="url(#dot-grid)"/>

  <!-- App chrome -->
  <g id="TopNav">
    <rect width="1440" height="62" fill="#1E1F23"/>
    <line x1="0" y1="62" x2="1440" y2="62" stroke="#FFFFFF" stroke-opacity="0.08"/>
    <text class="f nav" x="22" y="38">Curio</text>
    <text class="f nav-dim" x="90" y="38">File v</text>
    <text class="f nav-dim" x="158" y="38">View v</text>
    <text class="f nav-dim" x="236" y="38">Data v</text>
    <text class="f nav-dim" x="322" y="38">Provenance v</text>
    <text class="f nav-dim" x="452" y="38">Help v</text>
    <rect x="538" y="23" width="16" height="16" rx="4" fill="none" stroke="#FFFFFF" stroke-width="1.8"/>
    <circle cx="542" cy="31" r="1.8" fill="#FFFFFF"/>
    <circle cx="550" cy="31" r="1.8" fill="#FFFFFF"/>
    <rect x="590" y="23" width="13" height="14" rx="3" fill="#6EB75F"/>
    <rect x="593" y="26" width="7" height="3" rx="1" fill="#1E1F23"/>
    <circle cx="1340" cy="31" r="14" fill="#FFFFFF"/>
    <text class="f" x="1340" y="36" text-anchor="middle" font-size="10px" font-weight="800" fill="#1E1F23">SG</text>
    <text class="f nav-dim" x="1362" y="37" font-size="12px">Shared Guest</text>
  </g>

  <text class="f h1" x="42" y="108">DefaultDataflow</text>

  <!-- Left floating tool palette -->
  <g id="BuiltInToolbar" transform="translate(42,142)" filter="url(#panel-shadow)">
    <rect width="88" height="360" rx="4" fill="#1E1F23"/>
    <text class="f panel-title" x="44" y="24" text-anchor="middle">BUILT-IN</text>

    <g transform="translate(18,48)" stroke="#FFFFFF" stroke-width="3" stroke-linecap="round" stroke-linejoin="round">
      <path d="M10 18 L10 2 M4 8 L10 2 L16 8"/>
      <path d="M2 22 H18"/>
    </g>
    <g transform="translate(54,48)" stroke="#FFFFFF" stroke-width="3" stroke-linecap="round" stroke-linejoin="round">
      <path d="M10 2 L10 18 M4 12 L10 18 L16 12"/>
      <path d="M2 22 H18"/>
    </g>

    <g transform="translate(18,92)">
      <ellipse cx="10" cy="5" rx="10" ry="4" fill="#FFFFFF"/>
      <path d="M0 5 V22 C0 27 20 27 20 22 V5" fill="#FFFFFF"/>
      <ellipse cx="10" cy="22" rx="10" ry="4" fill="#FFFFFF"/>
    </g>
    <g transform="translate(52,92)">
      <path d="M0 5 L14 0 L28 5 V28 L14 23 L0 28 Z" fill="#FFFFFF"/>
      <circle cx="18" cy="16" r="6" fill="#1E1F23"/>
      <rect x="14" y="25" width="24" height="8" rx="3" fill="#2C63D8"/>
      <text class="f" x="26" y="31" text-anchor="middle" font-size="7px" font-weight="800" fill="#FFFFFF">AUTK</text>
    </g>

    <g transform="translate(16,142)" stroke="#FFFFFF" stroke-width="3" stroke-linecap="round" stroke-linejoin="round">
      <circle cx="5" cy="4" r="3" fill="#1E1F23"/>
      <circle cx="5" cy="24" r="3" fill="#1E1F23"/>
      <circle cx="23" cy="14" r="3" fill="#1E1F23"/>
      <path d="M5 7 V21 M8 14 H20"/>
    </g>
    <g transform="translate(55,142)" fill="#FFFFFF">
      <rect width="22" height="8" rx="3"/>
      <rect y="16" width="22" height="8" rx="3"/>
      <circle cx="17" cy="4" r="2" fill="#1E1F23"/>
      <circle cx="17" cy="20" r="2" fill="#1E1F23"/>
    </g>

    <line x1="12" y1="188" x2="76" y2="188" stroke="#3A3B40"/>

    <text class="f" x="23" y="224" text-anchor="middle" font-size="25px" font-weight="800" fill="#FFFFFF">Py</text>
    <g transform="translate(53,214)" fill="#FFFFFF">
      <rect width="24" height="18" rx="4"/>
      <circle cx="7" cy="6" r="2" fill="#1E1F23"/>
      <circle cx="17" cy="6" r="2" fill="#1E1F23"/>
      <rect x="6" y="12" width="12" height="2" rx="1" fill="#1E1F23"/>
    </g>

    <line x1="12" y1="252" x2="76" y2="252" stroke="#3A3B40"/>

    <g transform="translate(16,274)" stroke="#FFFFFF" stroke-width="3" fill="none" stroke-linecap="round" stroke-linejoin="round">
      <path d="M2 22 H24 M2 22 V2 M7 16 L13 10 L18 14 L24 6"/>
      <rect x="4" y="25" width="24" height="8" rx="3" fill="#2C63D8" stroke="none"/>
      <text class="f" x="16" y="31" text-anchor="middle" font-size="7px" font-weight="800" fill="#FFFFFF" stroke="none">VEGA</text>
    </g>
    <g transform="translate(54,274)" fill="#FFFFFF">
      <rect width="24" height="24" rx="3"/>
      <rect x="4" y="4" width="6" height="6" fill="#1E1F23"/>
      <rect x="14" y="4" width="6" height="6" fill="#1E1F23"/>
      <rect x="4" y="14" width="6" height="6" fill="#1E1F23"/>
      <rect x="14" y="14" width="6" height="6" fill="#1E1F23"/>
    </g>
  </g>

  <g id="DatasetTab" transform="translate(140,142)" filter="url(#panel-shadow)">
    <rect width="48" height="86" rx="4" fill="#1E1F23" stroke="#FBAA69" stroke-width="2"/>
    <path d="M24 16 L34 22 V34 L24 40 L14 34 V22 Z" fill="#FBAA69"/>
    <text class="f" x="24" y="50" text-anchor="middle" font-size="8px" font-weight="900" fill="#FBAA69">DATA</text>
    <circle cx="24" cy="64" r="10" fill="#3B3C42"/>
    <text class="f" x="24" y="68" text-anchor="middle" font-size="9px" font-weight="800" fill="#F6C18D">5</text>
    <path d="M19 77 L24 72 L29 77" stroke="#FBAA69" stroke-width="1.4" fill="none" stroke-linecap="round"/>
  </g>

  <g id="RunButton" transform="translate(42,510)" filter="url(#panel-shadow)">
    <rect width="88" height="38" rx="4" fill="#1E1F23"/>
    <path d="M39 11 L39 27 L53 19 Z" fill="#FFFFFF"/>
    <line x1="56" y1="11" x2="56" y2="27" stroke="#FFFFFF" stroke-width="3" stroke-linecap="round"/>
  </g>

  <!-- Floating dataset palette, matching the dark node package menu component -->
  <g id="DataPalette" transform="translate(200,142)" filter="url(#panel-shadow)">
    <rect width="328" height="432" rx="4" fill="#1E1F23"/>
    <text class="f panel-title" x="18" y="28">DATASET PALETTE</text>
    <line x1="0" y1="54" x2="328" y2="54" stroke="#2C2D32"/>

    <g transform="translate(10,64)">
      <rect width="308" height="54" rx="4" fill="#1A1B1F" stroke="#2A2B31"/>
      <text class="f panel-body" x="10" y="22">Installed datasets</text>
      <rect x="214" y="10" width="32" height="24" rx="4" fill="#1E1F23" stroke="#4A4B51"/>
      <path d="M230 17 V26 M226 22 L230 26 L234 22 M224 29 H236" stroke="#DADBE0" stroke-width="1.5" fill="none" stroke-linecap="round"/>
      <rect x="254" y="10" width="42" height="24" rx="12" fill="#303136"/>
      <text class="f chip-dark" x="275" y="26" text-anchor="middle">3</text>
    </g>

    <g transform="translate(10,124)">
      <rect width="308" height="214" rx="4" fill="#1A1B1F" stroke="#2C63D8" stroke-width="1.4"/>
      <text class="f panel-body" x="10" y="22">Current dataflow</text>
      <rect x="214" y="10" width="32" height="24" rx="4" fill="#1E1F23" stroke="#4A4B51"/>
      <path d="M230 17 V26 M226 22 L230 26 L234 22 M224 29 H236" stroke="#DADBE0" stroke-width="1.5" fill="none" stroke-linecap="round"/>
      <rect x="254" y="10" width="42" height="24" rx="12" fill="#303136"/>
      <text class="f chip-dark" x="275" y="26" text-anchor="middle">5</text>

      <g transform="translate(10,44)">
        <rect width="288" height="42" rx="4" fill="#1E1F23"/>
        <rect x="8" y="8" width="28" height="26" rx="4" fill="#DFF2E1"/>
        <text class="f tiny" x="22" y="25" text-anchor="middle" fill="#2F8F4A">GEO</text>
        <text class="f panel-body" x="48" y="18">chicago_buildings.geojson</text>
        <rect x="48" y="24" width="34" height="14" rx="4" fill="#3A3B40"/>
        <text class="f tiny" x="65" y="34" text-anchor="middle">DATA</text>
      </g>
      <g transform="translate(10,90)">
        <rect width="288" height="42" rx="4" fill="#1E1F23"/>
        <rect x="8" y="8" width="28" height="26" rx="4" fill="#DCE8FF"/>
        <text class="f tiny" x="22" y="25" text-anchor="middle" fill="#3B64D8">CSV</text>
        <text class="f panel-body" x="48" y="18">speed_violations.csv</text>
        <rect x="48" y="24" width="34" height="14" rx="4" fill="#3A3B40"/>
        <text class="f tiny" x="65" y="34" text-anchor="middle">DATA</text>
      </g>
      <g transform="translate(10,136)">
        <rect width="288" height="42" rx="4" fill="#1E1F23"/>
        <rect x="8" y="8" width="28" height="26" rx="4" fill="#F1F1F2"/>
        <text class="f tiny" x="22" y="25" text-anchor="middle" fill="#686B73">JSN</text>
        <text class="f panel-body" x="48" y="18">filtered_buildings.geojson</text>
        <rect x="48" y="24" width="58" height="14" rx="4" fill="#3A3B40"/>
        <text class="f tiny" x="77" y="34" text-anchor="middle">COMPUTE</text>
      </g>
    </g>

    <rect x="10" y="360" width="308" height="40" rx="4" fill="#FBAA69"/>
    <text class="f button" x="164" y="385" text-anchor="middle">Browse Data Catalog +</text>
  </g>

  <!-- Canvas node windows -->
  <g id="NodeDataLoading" transform="translate(580,220)" filter="url(#node-shadow)">
    <rect width="420" height="276" rx="8" fill="#FFFFFF" stroke="#C9C9CA"/>
    <rect x="0" y="0" width="420" height="34" rx="8" fill="#F6F6F7"/>
    <rect y="26" width="420" height="8" fill="#F6F6F7"/>
    <text class="f h3" x="210" y="22" text-anchor="middle" fill="#5D5F65">Chicago Buildings Loader</text>
    <rect x="298" y="9" width="42" height="16" rx="7" fill="#FDF0E8"/>
    <text class="f tiny" x="319" y="20" text-anchor="middle" fill="#FBAA69">DATA</text>
    <rect x="346" y="9" width="60" height="16" rx="7" fill="#DFF2E1"/>
    <text class="f tiny" x="376" y="20" text-anchor="middle" fill="#2F8F4A">LOADER</text>
    <line x1="10" y1="18" x2="18" y2="18" stroke="#7C7D82" stroke-width="1.4"/>

    <text class="f code" x="36" y="62">1    path = curio.datasets.get("chicago_buildings")</text>
    <text class="f code" x="36" y="84">2    data = load_geojson(path)</text>
    <text class="f code-blue" x="36" y="106">3    return data</text>
    <rect x="36" y="118" width="352" height="18" fill="none" stroke="#E4E4E6"/>

    <rect x="0" y="176" width="420" height="66" fill="#F4F4F5"/>
    <text class="f code-blue" x="18" y="202">[ ]:</text>
    <text class="f small" x="48" y="202">No output yet</text>
    <circle cx="28" cy="258" r="13" fill="#FBAA69"/>
    <path d="M24 250 L24 266 L36 258 Z" fill="#FFFFFF"/>
    <rect x="158" y="246" width="70" height="24" rx="6" fill="#1E1F23"/>
    <text class="f" x="193" y="262" text-anchor="middle" font-size="12px" font-weight="800" fill="#FFFFFF">&lt;/&gt;</text>
    <circle cx="420" cy="138" r="6" fill="#6B6B76"/>
  </g>

  <g id="NodeSpatialFilter" transform="translate(602,555)" filter="url(#node-shadow)">
    <rect width="360" height="178" rx="8" fill="#FFFFFF" stroke="#2C63D8" stroke-width="1.4"/>
    <rect width="360" height="30" rx="8" fill="#F6F6F7"/>
    <rect y="23" width="360" height="7" fill="#F6F6F7"/>
    <text class="f h3" x="180" y="20" text-anchor="middle" fill="#5D5F65">Spatial Filter</text>
    <rect x="270" y="8" width="48" height="15" rx="7" fill="#E9ECFF"/>
    <text class="f tiny" x="294" y="19" text-anchor="middle" fill="#3B64D8">COMPUTE</text>
    <text class="f code" x="28" y="58">1    buildings = input.geojson</text>
    <text class="f code" x="28" y="80">2    clipped = filter_by_area(buildings)</text>
    <text class="f code-blue" x="28" y="102">3    return clipped</text>
    <rect y="122" width="360" height="56" fill="#F4F4F5"/>
    <circle cx="24" cy="158" r="10" fill="#FBAA69"/>
    <path d="M21 152 L21 164 L30 158 Z" fill="#FFFFFF"/>
    <circle cx="0" cy="89" r="5" fill="#6B6B76"/>
    <circle cx="360" cy="89" r="5" fill="#6B6B76"/>
  </g>

  <path d="M 1000 358 C 1040 358 1056 404 1096 404" stroke="#6B6B76" stroke-width="1.6" fill="none" opacity="0.55"/>
  <path d="M 782 496 C 782 524 782 530 782 555" stroke="#6B6B76" stroke-width="1.6" fill="none" opacity="0.55"/>

  <!-- Zoom controls -->
  <g id="ZoomControls" transform="translate(12,788)">
    <rect width="28" height="96" fill="#FFFFFF" stroke="#D8D8DA"/>
    <line x1="0" y1="24" x2="28" y2="24" stroke="#D8D8DA"/>
    <line x1="0" y1="48" x2="28" y2="48" stroke="#D8D8DA"/>
    <line x1="0" y1="72" x2="28" y2="72" stroke="#D8D8DA"/>
    <text class="f" x="14" y="18" text-anchor="middle" font-size="20px" fill="#1E1F23">+</text>
    <text class="f" x="14" y="42" text-anchor="middle" font-size="20px" fill="#1E1F23">-</text>
    <path d="M9 58 H5 V54 M19 58 H23 V54 M9 62 H5 V66 M19 62 H23 V66" stroke="#1E1F23" stroke-width="1.4" fill="none"/>
    <path d="M10 84 H18 V74 H10 Z M12 74 V70 H16 V74" stroke="#1E1F23" stroke-width="1.4" fill="none"/>
  </g>

  <!-- Right catalog drawer, following the base Node catalog component -->
  <g id="DataCatalogDrawer" filter="url(#drawer-shadow)">
    <rect x="994" y="0" width="446" height="900" fill="#FFFFFF"/>
    <line x1="994" y1="0" x2="994" y2="900" stroke="#5E6066" stroke-opacity="0.35"/>
    <rect x="994" y="0" width="446" height="62" fill="#1E1F23"/>
    <rect x="1010" y="20" width="24" height="24" rx="4" fill="transparent" stroke="#46484E"/>
    <path d="M1022 25 V38 M1016 27 H1028 M1019 38 H1025 M1022 38 L1018 43 M1022 38 L1026 43" stroke="#FFFFFF" stroke-width="1.7" fill="none" stroke-linecap="round"/>
    <text class="f nav" x="1048" y="38">Data catalog</text>
    <rect x="1402" y="18" width="24" height="24" rx="4" fill="transparent" stroke="#46484E"/>
    <line x1="1408" y1="24" x2="1420" y2="36" stroke="#FFFFFF" stroke-width="1.8" stroke-linecap="round"/>
    <line x1="1420" y1="24" x2="1408" y2="36" stroke="#FFFFFF" stroke-width="1.8" stroke-linecap="round"/>

    <text class="f body" x="1010" y="92" font-size="13px" font-weight="700" fill="#73757B">Datasets available to this dataflow.</text>

    <g id="CatalogSearch" transform="translate(1010,116)">
      <rect width="306" height="38" rx="6" fill="#FFFFFF" stroke="#D4D5D8"/>
      <circle cx="18" cy="19" r="6" stroke="#9A9CA2" stroke-width="1.8" fill="none"/>
      <line x1="22" y1="23" x2="28" y2="29" stroke="#9A9CA2" stroke-width="1.8"/>
      <text class="f body" x="40" y="24" fill="#9A9CA2">Search datasets, sources...</text>
      <rect x="318" width="112" height="38" rx="6" fill="#FFFFFF" stroke="#D4D5D8"/>
      <text class="f h3" x="334" y="24">Sort: New</text>
      <path d="M414 17 L422 17 L418 23 Z" fill="#1E1F23"/>
    </g>

    <rect x="994" y="166" width="446" height="48" fill="#FFFFFF"/>
    <rect x="1010" y="176" width="78" height="28" rx="4" fill="#F1F1F2"/>
    <text class="f h3" x="1049" y="194" text-anchor="middle" fill="#5E6066">Featured</text>
    <rect x="1094" y="172" width="88" height="34" rx="4" fill="#1E1F23"/>
    <text class="f tab-active" x="1138" y="194" text-anchor="middle">Browse all</text>
    <text class="f h3" x="1222" y="194" text-anchor="middle" fill="#777A80">Installed</text>
    <rect x="1256" y="181" width="20" height="18" rx="9" fill="#E6E6E8"/>
    <text class="f tiny" x="1266" y="193" text-anchor="middle">3</text>
    <text class="f h3" x="1320" y="194" text-anchor="middle" fill="#999BA0">Computed</text>

    <rect x="994" y="214" width="446" height="686" fill="#EFEFEF"/>
    <text class="f panel-title" x="1010" y="246" fill="#A0A1A5">DATASETS</text>

    <g id="CardBuildings" transform="translate(1010,262)">
      <rect width="414" height="96" rx="6" fill="#FFFFFF" stroke="#E0E0E2"/>
      <rect x="14" y="18" width="62" height="62" rx="6" fill="#FCE1D9"/>
      <text class="f" x="45" y="55" text-anchor="middle" font-size="20px" font-weight="900" fill="#D86D45">CB</text>
      <text class="f h2" x="94" y="36">Chicago Buildings</text>
      <text class="f body" x="94" y="56">GeoJSON Loader - installed - MIT</text>
      <rect x="94" y="68" width="62" height="20" rx="5" fill="#F1F1F2"/>
      <text class="f chip" x="125" y="82" text-anchor="middle">42K feat.</text>
      <rect x="164" y="68" width="44" height="20" rx="5" fill="#F1F1F2"/>
      <text class="f chip" x="186" y="82" text-anchor="middle">data</text>
      <rect x="330" y="40" width="68" height="28" rx="6" fill="#1E1F23"/>
      <text class="f button-invert" x="364" y="59" text-anchor="middle">Open</text>
    </g>

    <g id="CardFiltered" transform="translate(1010,374)">
      <rect width="414" height="96" rx="6" fill="#FFFFFF" stroke="#E0E0E2"/>
      <rect x="14" y="18" width="62" height="62" rx="6" fill="#DCE8FF"/>
      <text class="f" x="45" y="55" text-anchor="middle" font-size="20px" font-weight="900" fill="#3B64D8">FB</text>
      <text class="f h2" x="94" y="36">filtered_buildings.geojson</text>
      <text class="f body" x="94" y="56">Spatial Filter - computed just now</text>
      <rect x="94" y="68" width="60" height="20" rx="5" fill="#F1F1F2"/>
      <text class="f chip" x="124" y="82" text-anchor="middle">8K feat.</text>
      <rect x="162" y="68" width="68" height="20" rx="5" fill="#F1F1F2"/>
      <text class="f chip" x="196" y="82" text-anchor="middle">computed</text>
      <rect x="324" y="34" width="74" height="28" rx="6" fill="#1E1F23"/>
      <text class="f button-invert" x="361" y="53" text-anchor="middle">Insert</text>
      <rect x="324" y="66" width="74" height="22" rx="6" fill="#FFFFFF" stroke="#D4D5D8"/>
      <text class="f chip" x="361" y="81" text-anchor="middle">Publish</text>
    </g>

    <g id="CardWeather" transform="translate(1010,486)">
      <rect width="414" height="96" rx="6" fill="#FFFFFF" stroke="#E0E0E2"/>
      <rect x="14" y="18" width="62" height="62" rx="6" fill="#E3F2FD"/>
      <text class="f" x="45" y="55" text-anchor="middle" font-size="20px" font-weight="900" fill="#1565C0">WX</text>
      <text class="f h2" x="94" y="36">UMEP weather timeseries</text>
      <text class="f body" x="94" y="56">CSV Loader - 8,760 rows</text>
      <rect x="94" y="68" width="48" height="20" rx="5" fill="#F1F1F2"/>
      <text class="f chip" x="118" y="82" text-anchor="middle">CSV</text>
      <rect x="150" y="68" width="48" height="20" rx="5" fill="#F1F1F2"/>
      <text class="f chip" x="174" y="82" text-anchor="middle">data</text>
      <rect x="330" y="40" width="68" height="28" rx="6" fill="#1E1F23"/>
      <text class="f button-invert" x="364" y="59" text-anchor="middle">Open</text>
    </g>

    <g id="InfoCard" transform="translate(1010,618)">
      <rect width="414" height="76" rx="6" fill="#FFFFFF" stroke="#E0E0E2"/>
      <circle cx="24" cy="28" r="8" fill="#3B64D8"/>
      <text class="f" x="24" y="32" text-anchor="middle" font-size="11px" font-weight="800" fill="#FFFFFF">i</text>
      <text class="f h3" x="44" y="30">Shared dataflow environment</text>
      <text class="f body" x="44" y="52">Drag a dataset onto a loader node to fill path,</text>
      <text class="f body" x="44" y="68">schema preview, and compatible input ports.</text>
    </g>

    <rect x="1010" y="842" width="414" height="42" rx="5" fill="#1E1F23"/>
    <text class="f button-invert" x="1217" y="868" text-anchor="middle" font-size="15px">Import dataset</text>
  </g>
</svg>
