<svg xmlns="http://www.w3.org/2000/svg" viewBox="0 0 3356 1474" width="3356" height="1474" shape-rendering="geometricPrecision">
<title>Screenshot 2026-05-06 at 08.25.16.png</title>
<desc>Vectorized mirror of Screenshot 2026-05-06 at 08.25.16.png. Every visible shape is an isolated &lt;g&gt; group at its original pixel coordinates.</desc>
<g id="background" data-role="background"><rect x="0" y="0" width="3356" height="1474" fill="#fbfbfb"/></g>
<g id="c0000_k01" data-area="386124" data-color="#1e1f23"><path d="M 0.00 0.00 L 0.00 121.00 L 3355.00 121.00 L 3355.00 0.00 Z M 3166.00 60.00 L 3171.00 55.00 L 3313.00 55.00 L 3318.00 60.00 L 3318.00 95.00 L 3313.00 100.00 L 3171.00 100.00 L 3166.00 95.00 Z M 1220.00 54.00 L 1222.00 54.00 L 1224.00 56.00 L 1224.00 65.00 L 1222.00 67.00 L 1220.00 67.00 L 1219.00 66.00 L 1219.00 55.00 Z M 1185.00 54.00 L 1187.00 54.00 L 1188.00 55.00 L 1188.00 66.00 L 1187.00 67.00 L 1185.00 67.00 L 1183.00 65.00 L 1183.00 56.00 Z M 264.00 56.00 L 265.00 54.00 L 284.00 54.00 L 285.00 55.00 L 274.00 66.00 Z M 773.00 51.00 L 778.00 51.00 L 781.00 55.00 L 782.00 60.00 L 783.00 56.00 L 784.00 55.00 L 784.00 53.00 L 786.00 51.00 L 791.00 51.00 L 792.00 52.00 L 792.00 54.00 L 789.00 59.00 L 789.00 61.00 L 785.00 69.00 L 779.00 69.00 L 778.00 68.00 L 778.00 66.00 L 776.00 63.00 L 776.00 61.00 L 772.00 53.00 Z M 742.00 51.00 L 747.00 51.00 L 748.00 52.00 L 749.00 51.00 L 754.00 51.00 L 755.00 52.00 L 755.00 56.00 L 754.00 57.00 L 751.00 57.00 L 749.00 58.00 L 749.00 68.00 L 748.00 69.00 L 742.00 69.00 L 741.00 68.00 L 741.00 52.00 Z M 413.00 52.00 L 414.00 51.00 L 419.00 51.00 L 420.00 52.00 L 421.00 58.00 L 422.00 57.00 L 423.00 52.00 L 424.00 51.00 L 428.00 51.00 L 430.00 53.00 L 431.00 58.00 L 432.00 54.00 L 434.00 51.00 L 439.00 51.00 L 440.00 53.00 L 439.00 54.00 L 439.00 57.00 L 438.00 58.00 L 438.00 60.00 L 437.00 61.00 L 437.00 63.00 L 436.00 64.00 L 435.00 68.00 L 434.00 69.00 L 429.00 69.00 L 428.00 68.00 L 428.00 66.00 L 426.00 62.00 L 425.00 67.00 L 423.00 69.00 L 418.00 69.00 L 417.00 68.00 L 416.00 62.00 L 415.00 61.00 L 415.00 59.00 L 413.00 55.00 Z M 388.00 51.00 L 393.00 51.00 L 394.00 52.00 L 394.00 68.00 L 393.00 69.00 L 388.00 69.00 L 387.00 68.00 L 387.00 52.00 Z M 230.00 51.00 L 235.00 51.00 L 236.00 52.00 L 236.00 68.00 L 235.00 69.00 L 230.00 69.00 L 229.00 68.00 L 229.00 52.00 Z M 1074.00 50.00 L 1076.00 51.00 L 1080.00 56.00 L 1080.00 64.00 L 1076.00 69.00 L 1074.00 69.00 L 1073.00 70.00 L 1068.00 69.00 L 1068.00 74.00 L 1066.00 76.00 L 1063.00 76.00 L 1061.00 74.00 L 1061.00 52.00 L 1062.00 51.00 L 1070.00 51.00 L 1071.00 50.00 Z M 1037.00 51.00 L 1039.00 51.00 L 1040.00 50.00 L 1045.00 50.00 L 1047.00 51.00 L 1051.00 55.00 L 1051.00 61.00 L 1050.00 62.00 L 1051.00 63.00 L 1051.00 65.00 L 1049.00 68.00 L 1045.00 69.00 L 1044.00 70.00 L 1040.00 70.00 L 1036.00 68.00 L 1034.00 66.00 L 1033.00 64.00 L 1033.00 56.00 Z M 894.00 50.00 L 899.00 50.00 L 903.00 52.00 L 906.00 57.00 L 905.00 66.00 L 902.00 69.00 L 900.00 69.00 L 899.00 70.00 L 895.00 70.00 L 894.00 69.00 L 892.00 69.00 L 888.00 65.00 L 888.00 62.00 L 887.00 61.00 L 888.00 55.00 L 892.00 51.00 Z M 873.00 51.00 L 875.00 51.00 L 876.00 50.00 L 880.00 50.00 L 886.00 53.00 L 887.00 55.00 L 887.00 58.00 L 886.00 59.00 L 881.00 59.00 L 880.00 57.00 L 878.00 56.00 L 876.00 58.00 L 876.00 62.00 L 878.00 64.00 L 880.00 63.00 L 881.00 61.00 L 886.00 61.00 L 887.00 62.00 L 887.00 65.00 L 883.00 69.00 L 881.00 69.00 L 880.00 70.00 L 876.00 70.00 L 872.00 68.00 L 870.00 66.00 L 869.00 64.00 L 869.00 56.00 Z M 849.00 52.00 L 850.00 51.00 L 855.00 51.00 L 856.00 52.00 L 859.00 50.00 L 863.00 50.00 L 868.00 55.00 L 868.00 68.00 L 867.00 69.00 L 862.00 69.00 L 861.00 68.00 L 861.00 58.00 L 859.00 56.00 L 857.00 57.00 L 857.00 68.00 L 856.00 69.00 L 850.00 69.00 L 849.00 68.00 Z M 834.00 51.00 L 836.00 51.00 L 837.00 50.00 L 841.00 50.00 L 842.00 51.00 L 844.00 51.00 L 847.00 54.00 L 847.00 56.00 L 848.00 57.00 L 848.00 68.00 L 847.00 69.00 L 840.00 69.00 L 839.00 70.00 L 835.00 70.00 L 830.00 66.00 L 830.00 61.00 L 833.00 58.00 L 835.00 58.00 L 832.00 58.00 L 831.00 57.00 L 831.00 54.00 Z M 810.00 52.00 L 811.00 51.00 L 816.00 51.00 L 817.00 52.00 L 820.00 50.00 L 824.00 50.00 L 829.00 55.00 L 829.00 68.00 L 828.00 69.00 L 823.00 69.00 L 822.00 68.00 L 822.00 58.00 L 820.00 56.00 L 818.00 57.00 L 818.00 68.00 L 817.00 69.00 L 811.00 69.00 L 810.00 68.00 Z M 795.00 51.00 L 797.00 51.00 L 798.00 50.00 L 803.00 50.00 L 805.00 51.00 L 809.00 55.00 L 809.00 61.00 L 808.00 62.00 L 809.00 63.00 L 809.00 65.00 L 807.00 68.00 L 803.00 69.00 L 802.00 70.00 L 798.00 70.00 L 794.00 68.00 L 792.00 66.00 L 791.00 64.00 L 791.00 56.00 Z M 761.00 50.00 L 766.00 50.00 L 767.00 51.00 L 769.00 51.00 L 773.00 56.00 L 773.00 65.00 L 769.00 69.00 L 767.00 70.00 L 761.00 70.00 L 759.00 69.00 L 755.00 65.00 L 755.00 62.00 L 754.00 61.00 L 755.00 55.00 L 759.00 51.00 Z M 602.00 51.00 L 604.00 51.00 L 605.00 50.00 L 609.00 50.00 L 610.00 51.00 L 612.00 51.00 L 615.00 54.00 L 615.00 68.00 L 614.00 69.00 L 607.00 69.00 L 606.00 70.00 L 603.00 70.00 L 598.00 67.00 L 597.00 62.00 L 601.00 58.00 L 603.00 58.00 L 600.00 58.00 L 598.00 56.00 L 598.00 55.00 Z M 569.00 51.00 L 571.00 51.00 L 572.00 50.00 L 576.00 50.00 L 577.00 51.00 L 579.00 51.00 L 582.00 54.00 L 582.00 56.00 L 583.00 57.00 L 583.00 68.00 L 582.00 69.00 L 575.00 69.00 L 574.00 70.00 L 570.00 70.00 L 565.00 66.00 L 565.00 61.00 L 568.00 58.00 L 570.00 58.00 L 567.00 58.00 L 566.00 57.00 L 566.00 54.00 Z M 399.00 51.00 L 401.00 51.00 L 402.00 50.00 L 407.00 50.00 L 409.00 51.00 L 413.00 55.00 L 413.00 61.00 L 412.00 62.00 L 413.00 63.00 L 413.00 65.00 L 411.00 68.00 L 407.00 69.00 L 406.00 70.00 L 402.00 70.00 L 398.00 68.00 L 396.00 66.00 L 395.00 64.00 L 395.00 56.00 Z M 252.00 50.00 L 257.00 50.00 L 261.00 52.00 L 264.00 57.00 L 263.00 66.00 L 260.00 69.00 L 258.00 69.00 L 257.00 70.00 L 253.00 70.00 L 252.00 69.00 L 250.00 69.00 L 246.00 65.00 L 246.00 62.00 L 245.00 61.00 L 246.00 55.00 L 250.00 51.00 Z M 1086.00 49.00 L 1104.00 49.00 L 1105.00 50.00 L 1105.00 52.00 L 1098.00 66.00 L 1096.00 68.00 L 1095.00 68.00 L 1091.00 63.00 L 1085.00 51.00 Z M 912.00 49.00 L 930.00 49.00 L 931.00 50.00 L 922.00 68.00 L 920.00 68.00 L 919.00 67.00 L 911.00 51.00 Z M 622.00 49.00 L 640.00 49.00 L 641.00 50.00 L 632.00 68.00 L 630.00 68.00 L 629.00 67.00 L 621.00 51.00 Z M 445.00 49.00 L 463.00 49.00 L 464.00 50.00 L 455.00 68.00 L 453.00 68.00 L 452.00 67.00 L 444.00 51.00 Z M 1011.00 45.00 L 1017.00 45.00 L 1018.00 46.00 L 1018.00 54.00 L 1024.00 54.00 L 1024.00 46.00 L 1025.00 45.00 L 1030.00 45.00 L 1031.00 46.00 L 1031.00 68.00 L 1030.00 69.00 L 1025.00 69.00 L 1024.00 68.00 L 1024.00 60.00 L 1018.00 60.00 L 1018.00 68.00 L 1017.00 69.00 L 1011.00 69.00 L 1010.00 68.00 L 1010.00 46.00 Z M 735.00 45.00 L 740.00 49.00 L 740.00 51.00 L 741.00 52.00 L 740.00 57.00 L 736.00 61.00 L 728.00 61.00 L 728.00 68.00 L 727.00 69.00 L 721.00 69.00 L 720.00 68.00 L 720.00 46.00 L 721.00 45.00 Z M 544.00 45.00 L 558.00 45.00 L 563.00 49.00 L 564.00 51.00 L 564.00 63.00 L 563.00 65.00 L 559.00 69.00 L 544.00 69.00 L 543.00 68.00 L 543.00 46.00 Z M 365.00 45.00 L 371.00 45.00 L 372.00 46.00 L 375.00 58.00 L 376.00 57.00 L 376.00 55.00 L 377.00 54.00 L 379.00 46.00 L 380.00 45.00 L 386.00 45.00 L 387.00 46.00 L 386.00 50.00 L 385.00 51.00 L 385.00 53.00 L 384.00 54.00 L 384.00 57.00 L 383.00 58.00 L 381.00 66.00 L 379.00 69.00 L 372.00 69.00 L 371.00 68.00 L 370.00 64.00 L 369.00 63.00 L 369.00 61.00 L 368.00 60.00 L 368.00 58.00 L 367.00 57.00 L 367.00 55.00 L 366.00 54.00 L 366.00 52.00 L 365.00 51.00 L 365.00 49.00 L 364.00 48.00 L 364.00 46.00 Z M 227.00 45.00 L 228.00 46.00 L 228.00 50.00 L 227.00 51.00 L 217.00 51.00 L 217.00 54.00 L 225.00 54.00 L 227.00 56.00 L 227.00 60.00 L 226.00 61.00 L 217.00 61.00 L 217.00 68.00 L 216.00 69.00 L 210.00 69.00 L 209.00 68.00 L 209.00 47.00 L 211.00 45.00 Z M 1054.00 44.00 L 1058.00 44.00 L 1059.00 45.00 L 1059.00 68.00 L 1058.00 69.00 L 1053.00 69.00 L 1052.00 68.00 L 1052.00 46.00 Z M 587.00 44.00 L 591.00 44.00 L 593.00 46.00 L 593.00 51.00 L 596.00 51.00 L 597.00 52.00 L 597.00 56.00 L 596.00 57.00 L 593.00 57.00 L 593.00 63.00 L 596.00 63.00 L 598.00 65.00 L 598.00 68.00 L 597.00 69.00 L 589.00 69.00 L 586.00 66.00 L 586.00 57.00 L 584.00 57.00 L 582.00 55.00 L 582.00 52.00 L 583.00 51.00 L 586.00 51.00 L 586.00 45.00 Z M 387.00 45.00 L 388.00 44.00 L 393.00 44.00 L 394.00 45.00 L 394.00 49.00 L 393.00 50.00 L 388.00 50.00 L 387.00 49.00 Z M 239.00 44.00 L 243.00 44.00 L 244.00 45.00 L 244.00 68.00 L 243.00 69.00 L 238.00 69.00 L 237.00 68.00 L 237.00 46.00 Z M 228.00 46.00 L 230.00 44.00 L 235.00 44.00 L 236.00 45.00 L 236.00 49.00 L 235.00 50.00 L 230.00 50.00 L 228.00 48.00 Z M 1191.00 46.00 L 1201.00 46.00 L 1201.00 41.00 L 1202.00 40.00 L 1205.00 40.00 L 1206.00 41.00 L 1206.00 46.00 L 1216.00 46.00 L 1218.00 49.00 L 1218.00 70.00 L 1215.00 73.00 L 1191.00 73.00 L 1189.00 70.00 L 1189.00 49.00 Z M 3116.00 29.00 L 3129.00 29.00 L 3130.00 30.00 L 3132.00 30.00 L 3138.00 33.00 L 3147.00 42.00 L 3150.00 48.00 L 3150.00 50.00 L 3151.00 51.00 L 3151.00 64.00 L 3150.00 65.00 L 3150.00 67.00 L 3147.00 73.00 L 3138.00 82.00 L 3132.00 85.00 L 3130.00 85.00 L 3129.00 86.00 L 3116.00 86.00 L 3115.00 85.00 L 3113.00 85.00 L 3107.00 82.00 L 3098.00 73.00 L 3095.00 67.00 L 3095.00 65.00 L 3094.00 64.00 L 3094.00 51.00 L 3095.00 50.00 L 3095.00 48.00 L 3098.00 42.00 L 3107.00 33.00 L 3113.00 30.00 L 3115.00 30.00 Z M 3286.00 28.00 L 3293.00 28.00 L 3296.00 33.00 L 3296.00 36.00 L 3295.00 37.00 L 3287.00 37.00 L 3288.00 38.00 L 3291.00 38.00 L 3292.00 37.00 L 3295.00 37.00 L 3296.00 38.00 L 3296.00 39.00 L 3291.00 43.00 L 3288.00 43.00 L 3283.00 39.00 L 3283.00 31.00 Z M 3269.00 29.00 L 3270.00 28.00 L 3272.00 28.00 L 3273.00 29.00 L 3273.00 37.00 L 3274.00 38.00 L 3276.00 38.00 L 3277.00 37.00 L 3277.00 29.00 L 3278.00 28.00 L 3281.00 28.00 L 3282.00 29.00 L 3282.00 41.00 L 3281.00 42.00 L 3276.00 42.00 L 3275.00 43.00 L 3271.00 42.00 L 3269.00 40.00 Z M 3222.00 28.00 L 3228.00 28.00 L 3231.00 31.00 L 3231.00 36.00 L 3230.00 37.00 L 3223.00 37.00 L 3225.00 39.00 L 3227.00 37.00 L 3230.00 37.00 L 3231.00 38.00 L 3231.00 40.00 L 3229.00 42.00 L 3224.00 43.00 L 3223.00 42.00 L 3221.00 42.00 L 3219.00 40.00 L 3218.00 38.00 L 3218.00 33.00 Z M 3218.00 28.00 L 3219.00 29.00 L 3219.00 31.00 L 3215.00 33.00 L 3214.00 35.00 L 3214.00 41.00 L 3213.00 42.00 L 3211.00 42.00 L 3210.00 41.00 L 3210.00 29.00 L 3211.00 28.00 Z M 3199.00 28.00 L 3206.00 28.00 L 3208.00 30.00 L 3209.00 32.00 L 3209.00 41.00 L 3208.00 42.00 L 3200.00 43.00 L 3196.00 40.00 L 3196.00 36.00 L 3198.00 34.00 L 3200.00 33.00 L 3204.00 33.00 L 3204.00 32.00 L 3198.00 33.00 L 3197.00 32.00 L 3197.00 30.00 Z M 3313.00 23.00 L 3314.00 24.00 L 3314.00 28.00 L 3317.00 28.00 L 3318.00 29.00 L 3318.00 31.00 L 3317.00 32.00 L 3314.00 32.00 L 3314.00 37.00 L 3315.00 38.00 L 3317.00 38.00 L 3318.00 39.00 L 3318.00 41.00 L 3317.00 42.00 L 3312.00 42.00 L 3310.00 40.00 L 3310.00 32.00 L 3308.00 32.00 L 3307.00 33.00 L 3301.00 32.00 L 3302.00 33.00 L 3306.00 34.00 L 3308.00 36.00 L 3308.00 40.00 L 3306.00 42.00 L 3304.00 42.00 L 3303.00 43.00 L 3300.00 43.00 L 3298.00 42.00 L 3296.00 40.00 L 3296.00 38.00 L 3297.00 37.00 L 3299.00 37.00 L 3301.00 39.00 L 3303.00 38.00 L 3302.00 37.00 L 3298.00 36.00 L 3296.00 34.00 L 3296.00 31.00 L 3299.00 28.00 L 3305.00 28.00 L 3307.00 30.00 L 3308.00 28.00 L 3310.00 28.00 L 3310.00 24.00 L 3311.00 23.00 Z M 3259.00 23.00 L 3262.00 23.00 L 3264.00 24.00 L 3268.00 28.00 L 3268.00 29.00 L 3266.00 31.00 L 3264.00 31.00 L 3262.00 28.00 L 3258.00 28.00 L 3257.00 29.00 L 3257.00 37.00 L 3258.00 38.00 L 3262.00 38.00 L 3263.00 37.00 L 3263.00 35.00 L 3260.00 35.00 L 3259.00 34.00 L 3259.00 32.00 L 3260.00 31.00 L 3267.00 31.00 L 3268.00 32.00 L 3268.00 37.00 L 3267.00 39.00 L 3262.00 43.00 L 3256.00 42.00 L 3252.00 37.00 L 3252.00 29.00 L 3256.00 24.00 L 3258.00 24.00 Z M 3244.00 23.00 L 3245.00 24.00 L 3245.00 41.00 L 3244.00 42.00 L 3240.00 42.00 L 3239.00 43.00 L 3237.00 43.00 L 3232.00 39.00 L 3232.00 31.00 L 3235.00 28.00 L 3241.00 28.00 L 3241.00 24.00 L 3242.00 23.00 Z M 3183.00 23.00 L 3185.00 23.00 L 3186.00 24.00 L 3186.00 28.00 L 3192.00 28.00 L 3195.00 31.00 L 3195.00 41.00 L 3194.00 42.00 L 3192.00 42.00 L 3191.00 41.00 L 3191.00 34.00 L 3190.00 32.00 L 3188.00 32.00 L 3186.00 35.00 L 3186.00 41.00 L 3185.00 42.00 L 3183.00 42.00 L 3182.00 41.00 L 3182.00 24.00 Z M 3172.00 23.00 L 3176.00 23.00 L 3178.00 24.00 L 3181.00 28.00 L 3180.00 30.00 L 3177.00 30.00 L 3175.00 28.00 L 3172.00 28.00 L 3171.00 29.00 L 3181.00 34.00 L 3181.00 39.00 L 3178.00 42.00 L 3176.00 42.00 L 3175.00 43.00 L 3169.00 42.00 L 3166.00 38.00 L 3167.00 36.00 L 3170.00 36.00 L 3172.00 38.00 L 3176.00 38.00 L 3176.00 36.00 L 3170.00 34.00 L 3167.00 31.00 L 3167.00 26.00 Z M 75.00 19.00 L 78.00 21.00 L 78.00 24.00 L 77.00 25.00 L 74.00 25.00 L 73.00 24.00 L 73.00 21.00 Z M 136.00 28.00 L 139.00 34.00 L 132.00 38.00 L 134.00 54.00 L 131.00 65.00 L 125.00 75.00 L 120.00 80.00 L 107.00 87.00 L 107.00 92.00 L 108.00 93.00 L 111.00 91.00 L 117.00 95.00 L 116.00 97.00 L 112.00 99.00 L 106.00 98.00 L 105.00 100.00 L 99.00 101.00 L 92.00 97.00 L 90.00 89.00 L 85.00 90.00 L 80.00 89.00 L 70.00 96.00 L 59.00 100.00 L 57.00 102.00 L 55.00 101.00 L 50.00 102.00 L 48.00 100.00 L 47.00 95.00 L 49.00 91.00 L 56.00 87.00 L 55.00 82.00 L 61.00 77.00 L 68.00 68.00 L 65.00 70.00 L 57.00 68.00 L 49.00 58.00 L 48.00 48.00 L 52.00 43.00 L 56.00 43.00 L 62.00 50.00 L 60.00 53.00 L 57.00 53.00 L 55.00 49.00 L 53.00 48.00 L 54.00 55.00 L 58.00 61.00 L 64.00 65.00 L 66.00 63.00 L 65.00 58.00 L 67.00 56.00 L 70.00 59.00 L 70.00 66.00 L 95.00 35.00 L 96.00 32.00 L 109.00 19.00 L 114.00 17.00 L 121.00 17.00 L 129.00 21.00 Z M 93.00 13.00 L 94.00 14.00 L 94.00 20.00 L 93.00 21.00 L 95.00 25.00 L 94.00 29.00 L 91.00 31.00 L 89.00 31.00 L 89.00 35.00 L 85.00 37.00 L 85.00 41.00 L 83.00 43.00 L 80.00 44.00 L 77.00 41.00 L 76.00 38.00 L 77.00 42.00 L 78.00 43.00 L 78.00 45.00 L 79.00 46.00 L 77.00 50.00 L 74.00 52.00 L 74.00 54.00 L 72.00 56.00 L 68.00 56.00 L 66.00 55.00 L 63.00 51.00 L 62.00 47.00 L 64.00 45.00 L 65.00 45.00 L 69.00 51.00 L 70.00 51.00 L 70.00 49.00 L 69.00 49.00 L 65.00 44.00 L 65.00 42.00 L 68.00 40.00 L 73.00 45.00 L 73.00 46.00 L 73.00 42.00 L 72.00 40.00 L 71.00 40.00 L 69.00 38.00 L 69.00 34.00 L 71.00 32.00 L 72.00 33.00 L 75.00 33.00 L 76.00 32.00 L 80.00 35.00 L 81.00 38.00 L 80.00 33.00 L 77.00 29.00 L 77.00 27.00 L 79.00 25.00 L 80.00 25.00 L 85.00 31.00 L 85.00 28.00 L 83.00 25.00 L 83.00 19.00 L 86.00 17.00 L 89.00 17.00 L 90.00 18.00 L 91.00 17.00 L 91.00 14.00 Z" fill="#1e1f23" stroke="none" fill-rule="evenodd"/></g>
<g id="c0001_k01" data-area="110711" data-color="#1e1f23"><path d="M 107.00 296.00 L 100.00 303.00 L 100.00 938.00 L 107.00 945.00 L 292.00 945.00 L 299.00 938.00 L 299.00 303.00 L 292.00 296.00 Z M 133.00 870.00 L 134.00 869.00 L 175.00 869.00 L 176.00 870.00 L 176.00 911.00 L 175.00 912.00 L 134.00 912.00 L 133.00 911.00 Z M 266.00 786.00 L 266.00 791.00 L 253.00 804.00 L 248.00 804.00 L 243.00 799.00 L 234.00 807.00 L 231.00 807.00 L 229.00 805.00 L 229.00 801.00 L 240.00 790.00 L 244.00 789.00 L 246.00 790.00 L 250.00 794.00 L 251.00 794.00 L 260.00 785.00 L 265.00 785.00 Z M 220.00 781.00 L 222.00 779.00 L 225.00 779.00 L 227.00 781.00 L 227.00 814.00 L 228.00 815.00 L 267.00 815.00 L 269.00 817.00 L 269.00 820.00 L 267.00 822.00 L 225.00 822.00 L 223.00 821.00 L 220.00 817.00 Z M 128.00 781.00 L 130.00 779.00 L 178.00 779.00 L 180.00 780.00 L 182.00 783.00 L 182.00 818.00 L 181.00 820.00 L 178.00 822.00 L 130.00 822.00 L 127.00 818.00 L 127.00 783.00 Z M 180.00 689.00 L 182.00 691.00 L 182.00 725.00 L 180.00 727.00 L 178.00 727.00 L 175.00 729.00 L 173.00 729.00 L 167.00 732.00 L 166.00 731.00 L 166.00 694.00 L 167.00 693.00 L 172.00 692.00 L 175.00 690.00 Z M 146.00 689.00 L 148.00 689.00 L 149.00 690.00 L 151.00 690.00 L 155.00 692.00 L 158.00 692.00 L 164.00 695.00 L 164.00 731.00 L 163.00 732.00 L 161.00 732.00 L 160.00 731.00 L 158.00 731.00 L 154.00 729.00 L 151.00 729.00 L 145.00 726.00 L 145.00 690.00 Z M 142.00 689.00 L 143.00 690.00 L 143.00 727.00 L 142.00 728.00 L 137.00 729.00 L 134.00 731.00 L 128.00 732.00 L 127.00 731.00 L 127.00 696.00 L 129.00 694.00 L 131.00 694.00 L 134.00 692.00 L 136.00 692.00 Z M 228.00 686.00 L 234.00 686.00 L 238.00 689.00 L 239.00 691.00 L 239.00 697.00 L 238.00 699.00 L 236.00 701.00 L 235.00 701.00 L 235.00 702.00 L 239.00 707.00 L 241.00 708.00 L 251.00 708.00 L 251.00 707.00 L 255.00 704.00 L 261.00 704.00 L 263.00 705.00 L 266.00 709.00 L 266.00 715.00 L 265.00 717.00 L 261.00 720.00 L 255.00 720.00 L 253.00 719.00 L 251.00 717.00 L 251.00 716.00 L 240.00 716.00 L 239.00 715.00 L 235.00 714.00 L 235.00 720.00 L 236.00 720.00 L 239.00 724.00 L 239.00 730.00 L 238.00 732.00 L 234.00 735.00 L 228.00 735.00 L 226.00 734.00 L 223.00 730.00 L 223.00 724.00 L 224.00 722.00 L 226.00 720.00 L 227.00 720.00 L 227.00 701.00 L 226.00 701.00 L 223.00 697.00 L 223.00 691.00 L 224.00 689.00 Z M 176.00 606.00 L 176.00 611.00 L 163.00 624.00 L 158.00 624.00 L 153.00 619.00 L 144.00 627.00 L 141.00 627.00 L 139.00 625.00 L 139.00 621.00 L 150.00 610.00 L 154.00 609.00 L 156.00 610.00 L 160.00 614.00 L 161.00 614.00 L 170.00 605.00 L 175.00 605.00 Z M 221.00 601.00 L 223.00 599.00 L 265.00 599.00 L 267.00 600.00 L 269.00 603.00 L 269.00 638.00 L 268.00 640.00 L 265.00 642.00 L 223.00 642.00 L 220.00 638.00 L 220.00 603.00 Z M 130.00 601.00 L 132.00 599.00 L 135.00 599.00 L 137.00 601.00 L 137.00 634.00 L 138.00 635.00 L 177.00 635.00 L 179.00 637.00 L 179.00 640.00 L 177.00 642.00 L 135.00 642.00 L 133.00 641.00 L 130.00 637.00 Z M 130.00 537.00 L 133.00 533.00 L 175.00 533.00 L 177.00 534.00 L 179.00 537.00 L 179.00 548.00 L 178.00 550.00 L 175.00 552.00 L 133.00 552.00 L 130.00 548.00 Z M 130.00 513.00 L 133.00 509.00 L 175.00 509.00 L 177.00 510.00 L 179.00 513.00 L 179.00 524.00 L 178.00 526.00 L 175.00 528.00 L 133.00 528.00 L 130.00 524.00 Z M 242.00 506.00 L 247.00 506.00 L 248.00 507.00 L 250.00 507.00 L 251.00 508.00 L 259.00 510.00 L 262.00 512.00 L 266.00 513.00 L 269.00 516.00 L 269.00 545.00 L 264.00 549.00 L 262.00 549.00 L 259.00 551.00 L 257.00 551.00 L 256.00 552.00 L 254.00 552.00 L 253.00 553.00 L 251.00 553.00 L 247.00 555.00 L 242.00 555.00 L 241.00 554.00 L 239.00 554.00 L 238.00 553.00 L 230.00 551.00 L 227.00 549.00 L 223.00 548.00 L 220.00 545.00 L 220.00 516.00 L 225.00 512.00 L 227.00 512.00 L 230.00 510.00 L 232.00 510.00 L 233.00 509.00 L 235.00 509.00 L 236.00 508.00 L 238.00 508.00 Z M 223.00 449.00 L 224.00 448.00 L 229.00 451.00 L 235.00 452.00 L 236.00 453.00 L 253.00 453.00 L 254.00 452.00 L 260.00 451.00 L 265.00 448.00 L 266.00 449.00 L 266.00 459.00 L 263.00 462.00 L 259.00 463.00 L 258.00 464.00 L 255.00 464.00 L 254.00 465.00 L 234.00 465.00 L 233.00 464.00 L 231.00 464.00 L 230.00 463.00 L 226.00 462.00 L 223.00 459.00 Z M 223.00 434.00 L 224.00 433.00 L 229.00 436.00 L 235.00 437.00 L 236.00 438.00 L 253.00 438.00 L 254.00 437.00 L 260.00 436.00 L 265.00 433.00 L 266.00 434.00 L 266.00 445.00 L 264.00 448.00 L 260.00 450.00 L 258.00 450.00 L 257.00 451.00 L 253.00 451.00 L 252.00 452.00 L 237.00 452.00 L 236.00 451.00 L 232.00 451.00 L 224.00 447.00 L 223.00 445.00 Z M 223.00 422.00 L 226.00 419.00 L 230.00 418.00 L 231.00 417.00 L 234.00 417.00 L 235.00 416.00 L 254.00 416.00 L 255.00 417.00 L 261.00 418.00 L 266.00 422.00 L 266.00 430.00 L 264.00 433.00 L 260.00 435.00 L 258.00 435.00 L 257.00 436.00 L 253.00 436.00 L 252.00 437.00 L 237.00 437.00 L 236.00 436.00 L 232.00 436.00 L 231.00 435.00 L 229.00 435.00 L 224.00 432.00 L 223.00 430.00 Z M 138.00 419.00 L 142.00 417.00 L 144.00 417.00 L 145.00 416.00 L 155.00 416.00 L 156.00 417.00 L 160.00 418.00 L 167.00 424.00 L 169.00 428.00 L 169.00 430.00 L 170.00 431.00 L 170.00 442.00 L 167.00 447.00 L 169.00 449.00 L 169.00 450.00 L 179.00 460.00 L 179.00 464.00 L 178.00 465.00 L 173.00 465.00 L 161.00 453.00 L 156.00 456.00 L 145.00 456.00 L 144.00 455.00 L 142.00 455.00 L 138.00 453.00 L 133.00 448.00 L 130.00 442.00 L 130.00 430.00 L 133.00 424.00 Z M 220.00 363.00 L 223.00 359.00 L 237.00 359.00 L 242.00 364.00 L 245.00 365.00 L 247.00 364.00 L 252.00 359.00 L 265.00 359.00 L 267.00 360.00 L 269.00 363.00 L 269.00 371.00 L 268.00 373.00 L 265.00 375.00 L 223.00 375.00 L 220.00 371.00 Z M 130.00 363.00 L 133.00 359.00 L 149.00 359.00 L 150.00 360.00 L 150.00 362.00 L 152.00 364.00 L 155.00 365.00 L 159.00 362.00 L 159.00 360.00 L 160.00 359.00 L 175.00 359.00 L 177.00 360.00 L 179.00 363.00 L 179.00 371.00 L 178.00 373.00 L 175.00 375.00 L 133.00 375.00 L 130.00 371.00 Z M 243.00 326.00 L 246.00 326.00 L 248.00 328.00 L 248.00 350.00 L 254.00 344.00 L 259.00 344.00 L 260.00 345.00 L 260.00 349.00 L 246.00 363.00 L 243.00 363.00 L 229.00 349.00 L 229.00 345.00 L 230.00 344.00 L 235.00 344.00 L 241.00 350.00 L 241.00 328.00 Z M 153.00 326.00 L 156.00 326.00 L 170.00 340.00 L 170.00 344.00 L 169.00 345.00 L 164.00 345.00 L 158.00 339.00 L 158.00 361.00 L 156.00 363.00 L 153.00 363.00 L 151.00 361.00 L 151.00 339.00 L 145.00 345.00 L 140.00 345.00 L 139.00 344.00 L 139.00 340.00 Z" fill="#1e1f23" stroke="none" fill-rule="evenodd"/></g>
<g id="c0002_k01" data-area="14627" data-color="#1e1f23"><path d="M 101.00 966.00 L 100.00 1030.00 L 101.00 1034.00 L 104.00 1037.00 L 292.00 1038.00 L 298.00 1034.00 L 299.00 970.00 L 298.00 966.00 L 295.00 963.00 L 107.00 962.00 Z M 187.00 982.00 L 191.00 983.00 L 207.00 997.00 L 207.00 984.00 L 209.00 982.00 L 212.00 982.00 L 214.00 984.00 L 214.00 1016.00 L 213.00 1017.00 L 210.00 1018.00 L 207.00 1015.00 L 207.00 1003.00 L 189.00 1018.00 L 187.00 1018.00 L 185.00 1016.00 L 185.00 984.00 Z" fill="#1e1f23" stroke="none" fill-rule="evenodd"/></g>
<g id="c0003_k06" data-area="6712" data-color="#2f3033"><path d="M 0.00 122.00 L 3355.00 123.00 Z" fill="#2f3033" stroke="none" fill-rule="evenodd"/></g>
<g id="c0004_k01" data-area="5174" data-color="#1e1f23"><path d="M 3169.00 63.00 L 3169.00 92.00 L 3174.00 97.00 L 3310.00 97.00 L 3315.00 92.00 L 3315.00 63.00 L 3310.00 58.00 L 3174.00 58.00 Z M 3257.00 73.00 L 3258.00 72.00 L 3260.00 72.00 L 3261.00 73.00 L 3261.00 81.00 L 3263.00 82.00 L 3265.00 80.00 L 3265.00 73.00 L 3266.00 72.00 L 3268.00 72.00 L 3269.00 73.00 L 3269.00 84.00 L 3268.00 85.00 L 3264.00 85.00 L 3263.00 86.00 L 3259.00 85.00 L 3257.00 83.00 Z M 3247.00 72.00 L 3253.00 72.00 L 3256.00 75.00 L 3256.00 82.00 L 3251.00 86.00 L 3247.00 85.00 L 3244.00 82.00 L 3244.00 75.00 Z M 3234.00 72.00 L 3242.00 72.00 L 3243.00 73.00 L 3243.00 87.00 L 3240.00 90.00 L 3234.00 90.00 L 3231.00 87.00 L 3231.00 85.00 L 3232.00 84.00 L 3231.00 82.00 L 3231.00 75.00 Z M 3221.00 72.00 L 3227.00 72.00 L 3230.00 75.00 L 3231.00 77.00 L 3231.00 80.00 L 3230.00 81.00 L 3230.00 83.00 L 3228.00 85.00 L 3224.00 86.00 L 3223.00 85.00 L 3221.00 85.00 L 3219.00 83.00 L 3218.00 81.00 L 3218.00 76.00 Z M 3272.00 68.00 L 3274.00 68.00 L 3275.00 69.00 L 3275.00 72.00 L 3277.00 72.00 L 3279.00 74.00 L 3277.00 76.00 L 3275.00 76.00 L 3275.00 81.00 L 3277.00 81.00 L 3279.00 83.00 L 3278.00 85.00 L 3273.00 85.00 L 3271.00 83.00 L 3271.00 76.00 L 3269.00 75.00 L 3269.00 73.00 L 3271.00 72.00 L 3271.00 69.00 Z M 3208.00 68.00 L 3210.00 68.00 L 3211.00 69.00 L 3211.00 81.00 L 3217.00 81.00 L 3219.00 83.00 L 3218.00 85.00 L 3208.00 85.00 L 3207.00 84.00 L 3207.00 69.00 Z" fill="#1e1f23" stroke="none" fill-rule="evenodd"/></g>
<g id="c0005_k27" data-area="3736" data-color="#e9e9e8"><path d="M 26.00 1222.00 L 22.00 1226.00 L 22.00 1445.00 L 26.00 1449.00 L 81.00 1449.00 L 85.00 1445.00 L 85.00 1226.00 L 81.00 1222.00 Z M 27.00 1390.00 L 28.00 1389.00 L 79.00 1389.00 L 80.00 1390.00 L 80.00 1441.00 L 79.00 1442.00 L 28.00 1442.00 L 27.00 1441.00 Z M 27.00 1336.00 L 28.00 1335.00 L 79.00 1335.00 L 80.00 1336.00 L 80.00 1387.00 L 79.00 1388.00 L 28.00 1388.00 L 27.00 1387.00 Z M 27.00 1282.00 L 28.00 1281.00 L 79.00 1281.00 L 80.00 1282.00 L 80.00 1333.00 L 79.00 1334.00 L 28.00 1334.00 L 27.00 1333.00 Z M 27.00 1228.00 L 28.00 1227.00 L 79.00 1227.00 L 80.00 1228.00 L 80.00 1279.00 L 79.00 1280.00 L 28.00 1280.00 L 27.00 1279.00 Z" fill="#e9e9e8" stroke="none" fill-rule="evenodd"/></g>
<g id="c0006_k06" data-area="3340" data-color="#2f3033"><path d="M 107.00 294.00 L 98.00 303.00 L 98.00 938.00 L 107.00 947.00 L 292.00 947.00 L 301.00 938.00 L 301.00 303.00 L 292.00 294.00 Z M 104.00 295.00 L 295.00 295.00 L 300.00 300.00 L 300.00 940.00 L 295.00 946.00 L 104.00 946.00 L 99.00 940.00 L 99.00 300.00 Z" fill="#2f3033" stroke="none" fill-rule="evenodd"/></g>
<g id="c0007_k13" data-area="2608" data-color="#fefefe"><path d="M 28.00 1282.00 L 28.00 1333.00 L 79.00 1333.00 L 79.00 1282.00 Z M 41.00 1306.00 L 42.00 1305.00 L 65.00 1305.00 L 66.00 1306.00 L 66.00 1309.00 L 65.00 1310.00 L 42.00 1310.00 L 41.00 1309.00 Z" fill="#fefefe" stroke="none" fill-rule="evenodd"/></g>
<g id="c0008_k13" data-area="2551" data-color="#fefefe"><path d="M 28.00 1336.00 L 28.00 1387.00 L 79.00 1387.00 L 79.00 1336.00 Z M 65.00 1364.00 L 66.00 1365.00 L 66.00 1371.00 L 64.00 1373.00 L 58.00 1373.00 L 57.00 1372.00 L 57.00 1370.00 L 58.00 1369.00 L 62.00 1369.00 L 62.00 1365.00 L 63.00 1364.00 Z M 41.00 1365.00 L 42.00 1364.00 L 44.00 1364.00 L 45.00 1365.00 L 45.00 1369.00 L 49.00 1369.00 L 50.00 1370.00 L 50.00 1372.00 L 49.00 1373.00 L 43.00 1373.00 L 41.00 1371.00 Z M 57.00 1351.00 L 58.00 1350.00 L 65.00 1350.00 L 66.00 1351.00 L 66.00 1358.00 L 65.00 1359.00 L 63.00 1359.00 L 62.00 1358.00 L 62.00 1354.00 L 58.00 1354.00 L 57.00 1353.00 Z M 41.00 1358.00 L 41.00 1352.00 L 43.00 1350.00 L 49.00 1350.00 L 50.00 1351.00 L 50.00 1353.00 L 49.00 1354.00 L 45.00 1354.00 L 45.00 1358.00 L 44.00 1359.00 L 42.00 1359.00 Z" fill="#fefefe" stroke="none" fill-rule="evenodd"/></g>
<g id="c0009_k13" data-area="2528" data-color="#fefefe"><path d="M 28.00 1228.00 L 28.00 1279.00 L 79.00 1279.00 L 79.00 1228.00 Z M 52.00 1241.00 L 55.00 1241.00 L 56.00 1242.00 L 56.00 1251.00 L 65.00 1251.00 L 66.00 1252.00 L 66.00 1255.00 L 65.00 1256.00 L 56.00 1256.00 L 56.00 1265.00 L 55.00 1266.00 L 52.00 1266.00 L 51.00 1265.00 L 51.00 1256.00 L 42.00 1256.00 L 41.00 1255.00 L 41.00 1252.00 L 42.00 1251.00 L 51.00 1251.00 L 51.00 1242.00 Z" fill="#fefefe" stroke="none" fill-rule="evenodd"/></g>
<g id="c0010_k13" data-area="2369" data-color="#fefefe"><path d="M 28.00 1390.00 L 28.00 1441.00 L 79.00 1441.00 L 79.00 1390.00 Z M 52.00 1403.00 L 56.00 1403.00 L 60.00 1407.00 L 60.00 1411.00 L 62.00 1411.00 L 63.00 1412.00 L 63.00 1427.00 L 62.00 1428.00 L 45.00 1428.00 L 43.00 1426.00 L 43.00 1413.00 L 45.00 1411.00 L 56.00 1411.00 L 55.00 1407.00 L 51.00 1405.00 Z" fill="#fefefe" stroke="none" fill-rule="evenodd"/></g>
<g id="c0011_k13" data-area="1691" data-color="#fefefe"><path d="M 3122.00 32.00 L 3121.00 33.00 L 3116.00 33.00 L 3115.00 34.00 L 3113.00 34.00 L 3109.00 36.00 L 3104.00 40.00 L 3104.00 41.00 L 3101.00 44.00 L 3099.00 48.00 L 3099.00 50.00 L 3098.00 51.00 L 3098.00 56.00 L 3097.00 58.00 L 3098.00 59.00 L 3098.00 64.00 L 3099.00 65.00 L 3099.00 67.00 L 3101.00 71.00 L 3105.00 76.00 L 3106.00 76.00 L 3109.00 79.00 L 3113.00 81.00 L 3115.00 81.00 L 3116.00 82.00 L 3121.00 82.00 L 3123.00 83.00 L 3124.00 82.00 L 3129.00 82.00 L 3130.00 81.00 L 3132.00 81.00 L 3136.00 79.00 L 3141.00 75.00 L 3141.00 74.00 L 3144.00 71.00 L 3146.00 67.00 L 3146.00 65.00 L 3147.00 64.00 L 3147.00 59.00 L 3148.00 57.00 L 3147.00 56.00 L 3147.00 51.00 L 3146.00 50.00 L 3146.00 48.00 L 3144.00 44.00 L 3140.00 39.00 L 3139.00 39.00 L 3136.00 36.00 L 3132.00 34.00 L 3130.00 34.00 L 3129.00 33.00 L 3124.00 33.00 Z M 3126.00 49.00 L 3133.00 49.00 L 3137.00 52.00 L 3137.00 55.00 L 3136.00 56.00 L 3132.00 56.00 L 3131.00 54.00 L 3128.00 54.00 L 3128.00 61.00 L 3131.00 61.00 L 3131.00 60.00 L 3129.00 59.00 L 3129.00 57.00 L 3130.00 56.00 L 3136.00 56.00 L 3137.00 57.00 L 3137.00 63.00 L 3134.00 66.00 L 3131.00 66.00 L 3130.00 67.00 L 3128.00 66.00 L 3125.00 66.00 L 3122.00 62.00 L 3122.00 53.00 Z M 3110.00 49.00 L 3117.00 49.00 L 3121.00 52.00 L 3121.00 54.00 L 3119.00 56.00 L 3117.00 56.00 L 3115.00 54.00 L 3113.00 54.00 L 3121.00 58.00 L 3121.00 64.00 L 3120.00 65.00 L 3116.00 66.00 L 3115.00 67.00 L 3113.00 67.00 L 3107.00 64.00 L 3106.00 62.00 L 3107.00 60.00 L 3111.00 60.00 L 3114.00 62.00 L 3115.00 61.00 L 3107.00 57.00 L 3107.00 52.00 Z" fill="#fefefe" stroke="none" fill-rule="evenodd"/></g>
<g id="c0012_k05" data-area="1658" data-color="#fafbf6"><path d="M 129.00 783.00 L 129.00 785.00 L 128.00 786.00 L 128.00 815.00 L 129.00 816.00 L 129.00 818.00 L 131.00 820.00 L 133.00 821.00 L 176.00 821.00 L 180.00 818.00 L 180.00 816.00 L 181.00 815.00 L 181.00 786.00 L 180.00 785.00 L 180.00 783.00 L 178.00 781.00 L 176.00 780.00 L 133.00 780.00 Z M 145.00 809.00 L 148.00 806.00 L 170.00 806.00 L 173.00 809.00 L 173.00 810.00 L 170.00 813.00 L 148.00 813.00 L 145.00 810.00 Z M 136.00 807.00 L 137.00 806.00 L 142.00 806.00 L 143.00 807.00 L 143.00 812.00 L 142.00 813.00 L 137.00 813.00 L 136.00 812.00 Z M 145.00 800.00 L 148.00 797.00 L 170.00 797.00 L 173.00 800.00 L 173.00 801.00 L 170.00 804.00 L 148.00 804.00 L 145.00 801.00 Z M 136.00 798.00 L 137.00 797.00 L 142.00 797.00 L 143.00 798.00 L 143.00 803.00 L 142.00 804.00 L 137.00 804.00 L 136.00 803.00 Z M 145.00 791.00 L 148.00 788.00 L 170.00 788.00 L 173.00 791.00 L 173.00 792.00 L 170.00 795.00 L 148.00 795.00 L 145.00 792.00 Z M 136.00 789.00 L 137.00 788.00 L 142.00 788.00 L 143.00 789.00 L 143.00 794.00 L 142.00 795.00 L 137.00 795.00 L 136.00 794.00 Z" fill="#fafbf6" stroke="none" fill-rule="evenodd"/></g>
<g id="c0013_k05" data-area="1454" data-color="#fafbf6"><path d="M 134.00 870.00 L 134.00 911.00 L 175.00 911.00 L 175.00 870.00 Z M 162.00 888.00 L 169.00 888.00 L 172.00 891.00 L 172.00 892.00 L 168.00 895.00 L 166.00 893.00 L 165.00 893.00 L 165.00 895.00 L 169.00 896.00 L 173.00 900.00 L 173.00 905.00 L 169.00 909.00 L 163.00 909.00 L 158.00 905.00 L 158.00 904.00 L 162.00 901.00 L 163.00 903.00 L 165.00 904.00 L 167.00 903.00 L 167.00 902.00 L 162.00 900.00 L 159.00 896.00 L 159.00 891.00 Z M 156.00 888.00 L 157.00 889.00 L 157.00 905.00 L 156.00 907.00 L 153.00 909.00 L 148.00 909.00 L 144.00 906.00 L 144.00 904.00 L 147.00 902.00 L 151.00 904.00 L 151.00 889.00 L 152.00 888.00 Z" fill="#fafbf6" stroke="none" fill-rule="evenodd"/></g>
<g id="c0014_k05" data-area="1424" data-color="#fafbf6"><path d="M 222.00 603.00 L 222.00 605.00 L 221.00 606.00 L 221.00 635.00 L 222.00 636.00 L 222.00 638.00 L 224.00 640.00 L 226.00 641.00 L 263.00 641.00 L 267.00 638.00 L 267.00 636.00 L 268.00 635.00 L 268.00 606.00 L 267.00 605.00 L 267.00 603.00 L 265.00 601.00 L 263.00 600.00 L 226.00 600.00 Z M 247.00 627.00 L 248.00 626.00 L 262.00 626.00 L 263.00 627.00 L 263.00 635.00 L 262.00 636.00 L 248.00 636.00 L 247.00 635.00 Z M 226.00 627.00 L 227.00 626.00 L 241.00 626.00 L 242.00 627.00 L 242.00 635.00 L 241.00 636.00 L 227.00 636.00 L 226.00 635.00 Z M 247.00 612.00 L 248.00 611.00 L 262.00 611.00 L 263.00 612.00 L 263.00 620.00 L 262.00 621.00 L 248.00 621.00 L 247.00 620.00 Z M 226.00 612.00 L 227.00 611.00 L 241.00 611.00 L 242.00 612.00 L 242.00 620.00 L 241.00 621.00 L 227.00 621.00 L 226.00 620.00 Z" fill="#fafbf6" stroke="none" fill-rule="evenodd"/></g>
<g id="c0015_k05" data-area="1321" data-color="#fafbf6"><path d="M 242.00 508.00 L 241.00 509.00 L 236.00 510.00 L 233.00 512.00 L 225.00 514.00 L 222.00 517.00 L 221.00 519.00 L 221.00 542.00 L 223.00 546.00 L 225.00 547.00 L 233.00 549.00 L 236.00 551.00 L 238.00 551.00 L 242.00 553.00 L 247.00 553.00 L 248.00 552.00 L 253.00 551.00 L 256.00 549.00 L 264.00 547.00 L 267.00 544.00 L 268.00 542.00 L 268.00 519.00 L 264.00 514.00 L 256.00 512.00 L 253.00 510.00 L 251.00 510.00 L 247.00 508.00 Z M 262.00 523.00 L 263.00 524.00 L 263.00 542.00 L 261.00 544.00 L 259.00 544.00 L 258.00 545.00 L 256.00 545.00 L 255.00 546.00 L 253.00 546.00 L 252.00 547.00 L 248.00 548.00 L 247.00 547.00 L 247.00 529.00 L 248.00 528.00 L 250.00 528.00 L 253.00 526.00 L 255.00 526.00 L 256.00 525.00 L 258.00 525.00 Z M 227.00 518.00 L 228.00 517.00 L 231.00 517.00 L 234.00 515.00 L 236.00 515.00 L 237.00 514.00 L 239.00 514.00 L 243.00 512.00 L 246.00 512.00 L 247.00 513.00 L 249.00 513.00 L 250.00 514.00 L 252.00 514.00 L 253.00 515.00 L 255.00 515.00 L 258.00 517.00 L 261.00 517.00 L 262.00 518.00 L 258.00 521.00 L 256.00 521.00 L 255.00 522.00 L 253.00 522.00 L 252.00 523.00 L 250.00 523.00 L 246.00 525.00 L 243.00 525.00 L 242.00 524.00 L 240.00 524.00 L 239.00 523.00 L 231.00 521.00 Z" fill="#fafbf6" stroke="none" fill-rule="evenodd"/></g>
<g id="c0016_k10" data-area="1046" data-color="#414144"><path d="M 98.00 969.00 L 98.00 1031.00 L 100.00 1036.00 L 107.00 1040.00 L 292.00 1040.00 L 297.00 1038.00 L 301.00 1031.00 L 301.00 969.00 L 299.00 964.00 L 292.00 960.00 L 107.00 960.00 L 102.00 962.00 Z M 99.00 966.00 L 104.00 961.00 L 295.00 961.00 L 300.00 966.00 L 300.00 1034.00 L 295.00 1039.00 L 104.00 1039.00 L 99.00 1034.00 Z" fill="#414144" stroke="none" fill-rule="evenodd"/></g>
<g id="c0017_k01" data-area="1045" data-color="#1e1f23"><path d="M 123.00 24.00 L 119.00 22.00 L 116.00 22.00 L 113.00 24.00 L 111.00 24.00 L 105.00 30.00 L 105.00 32.00 L 108.00 32.00 L 112.00 34.00 L 117.00 39.00 L 117.00 41.00 L 118.00 42.00 L 118.00 50.00 L 117.00 51.00 L 117.00 53.00 L 113.00 58.00 L 111.00 62.00 L 108.00 65.00 L 107.00 65.00 L 107.00 66.00 L 105.00 68.00 L 102.00 69.00 L 100.00 71.00 L 96.00 73.00 L 94.00 73.00 L 89.00 76.00 L 87.00 76.00 L 81.00 79.00 L 76.00 80.00 L 76.00 81.00 L 80.00 83.00 L 86.00 83.00 L 87.00 84.00 L 91.00 84.00 L 92.00 83.00 L 95.00 83.00 L 97.00 84.00 L 98.00 83.00 L 101.00 83.00 L 104.00 81.00 L 106.00 82.00 L 114.00 78.00 L 122.00 70.00 L 123.00 67.00 L 126.00 63.00 L 127.00 57.00 L 128.00 56.00 L 128.00 45.00 L 127.00 44.00 L 127.00 41.00 L 126.00 40.00 L 126.00 38.00 L 122.00 34.00 L 125.00 28.00 Z M 116.00 27.00 L 117.00 26.00 L 121.00 26.00 L 122.00 27.00 L 122.00 31.00 L 121.00 32.00 L 117.00 32.00 L 116.00 31.00 Z" fill="#1e1f23" stroke="none" fill-rule="evenodd"/></g>
<g id="c0018_k05" data-area="994" data-color="#fafbf6"><path d="M 140.00 420.00 L 134.00 426.00 L 132.00 430.00 L 132.00 434.00 L 131.00 436.00 L 132.00 437.00 L 132.00 442.00 L 134.00 446.00 L 140.00 452.00 L 144.00 453.00 L 145.00 454.00 L 147.00 454.00 L 148.00 455.00 L 150.00 455.00 L 151.00 454.00 L 156.00 454.00 L 162.00 451.00 L 175.00 464.00 L 176.00 464.00 L 177.00 463.00 L 177.00 460.00 L 165.00 448.00 L 165.00 446.00 L 168.00 442.00 L 168.00 431.00 L 167.00 430.00 L 166.00 426.00 L 160.00 420.00 L 156.00 419.00 L 155.00 418.00 L 153.00 418.00 L 152.00 417.00 L 148.00 417.00 L 147.00 418.00 L 145.00 418.00 L 144.00 419.00 Z M 141.00 434.00 L 144.00 434.00 L 146.00 436.00 L 146.00 443.00 L 143.00 446.00 L 142.00 446.00 L 139.00 443.00 L 139.00 436.00 Z M 156.00 431.00 L 159.00 431.00 L 161.00 433.00 L 161.00 443.00 L 158.00 446.00 L 157.00 446.00 L 154.00 443.00 L 154.00 433.00 Z M 148.00 425.00 L 152.00 425.00 L 153.00 426.00 L 153.00 444.00 L 151.00 446.00 L 149.00 446.00 L 147.00 444.00 L 147.00 426.00 Z" fill="#fafbf6" stroke="none" fill-rule="evenodd"/></g>
<g id="c0019_k01" data-area="800" data-color="#1e1f23"><path d="M 112.00 41.00 L 107.00 37.00 L 104.00 37.00 L 103.00 38.00 L 99.00 37.00 L 99.00 38.00 L 91.00 47.00 L 89.00 51.00 L 86.00 53.00 L 85.00 56.00 L 83.00 57.00 L 83.00 58.00 L 80.00 61.00 L 80.00 62.00 L 70.00 73.00 L 70.00 74.00 L 66.00 78.00 L 66.00 79.00 L 74.00 75.00 L 76.00 75.00 L 82.00 72.00 L 84.00 72.00 L 85.00 71.00 L 90.00 70.00 L 93.00 68.00 L 95.00 68.00 L 99.00 66.00 L 103.00 62.00 L 104.00 62.00 L 104.00 61.00 L 108.00 57.00 L 108.00 56.00 L 112.00 51.00 Z" fill="#1e1f23" stroke="none" fill-rule="evenodd"/></g>
<g id="c0020_k05" data-area="764" data-color="#fafbf6"><path d="M 131.00 516.00 L 131.00 521.00 L 132.00 522.00 L 132.00 524.00 L 136.00 527.00 L 173.00 527.00 L 177.00 524.00 L 177.00 522.00 L 178.00 521.00 L 178.00 516.00 L 177.00 515.00 L 177.00 513.00 L 173.00 510.00 L 136.00 510.00 L 132.00 513.00 L 132.00 515.00 Z M 169.00 515.00 L 170.00 515.00 L 173.00 518.00 L 173.00 519.00 L 170.00 522.00 L 169.00 522.00 L 166.00 519.00 L 166.00 518.00 Z M 160.00 517.00 L 162.00 515.00 L 163.00 515.00 L 166.00 517.00 L 166.00 520.00 L 162.00 522.00 L 160.00 520.00 Z" fill="#fafbf6" stroke="none" fill-rule="evenodd"/></g>
<g id="c0021_k05" data-area="764" data-color="#fafbf6"><path d="M 131.00 540.00 L 131.00 545.00 L 132.00 546.00 L 132.00 548.00 L 136.00 551.00 L 173.00 551.00 L 177.00 548.00 L 177.00 546.00 L 178.00 545.00 L 178.00 540.00 L 177.00 539.00 L 177.00 537.00 L 173.00 534.00 L 136.00 534.00 L 132.00 537.00 L 132.00 539.00 Z M 170.00 539.00 L 171.00 539.00 L 173.00 541.00 L 173.00 544.00 L 171.00 546.00 L 167.00 544.00 L 167.00 541.00 Z M 160.00 541.00 L 162.00 539.00 L 163.00 539.00 L 166.00 541.00 L 166.00 544.00 L 162.00 546.00 L 160.00 544.00 Z" fill="#fafbf6" stroke="none" fill-rule="evenodd"/></g>
<g id="c0022_k10" data-area="720" data-color="#414144"><path d="M 3167.00 62.00 L 3167.00 93.00 L 3173.00 99.00 L 3311.00 99.00 L 3317.00 93.00 L 3317.00 62.00 L 3311.00 56.00 L 3173.00 56.00 Z M 3168.00 61.00 L 3172.00 57.00 L 3312.00 57.00 L 3316.00 61.00 L 3316.00 94.00 L 3312.00 98.00 L 3172.00 98.00 L 3168.00 94.00 Z" fill="#414144" stroke="none" fill-rule="evenodd"/></g>
<g id="c0023_k05" data-area="634" data-color="#fafbf6"><path d="M 146.00 691.00 L 146.00 725.00 L 150.00 726.00 L 151.00 727.00 L 154.00 727.00 L 155.00 728.00 L 157.00 728.00 L 161.00 730.00 L 163.00 730.00 L 163.00 696.00 L 159.00 695.00 L 158.00 694.00 L 155.00 694.00 L 154.00 693.00 L 152.00 693.00 L 148.00 691.00 Z" fill="#fafbf6" stroke="none" fill-rule="evenodd"/></g>
<g id="c0024_k05" data-area="632" data-color="#fafbf6"><path d="M 224.00 424.00 L 224.00 428.00 L 226.00 431.00 L 232.00 434.00 L 236.00 434.00 L 237.00 435.00 L 252.00 435.00 L 253.00 434.00 L 256.00 434.00 L 257.00 433.00 L 259.00 433.00 L 263.00 431.00 L 265.00 428.00 L 265.00 425.00 L 261.00 420.00 L 259.00 420.00 L 255.00 418.00 L 246.00 418.00 L 245.00 417.00 L 243.00 418.00 L 234.00 418.00 L 233.00 419.00 L 228.00 420.00 Z" fill="#fafbf6" stroke="none" fill-rule="evenodd"/></g>
<g id="c0025_k05" data-area="626" data-color="#fafbf6"><path d="M 1192.00 48.00 L 1190.00 51.00 L 1190.00 68.00 L 1192.00 71.00 L 1194.00 72.00 L 1213.00 72.00 L 1216.00 70.00 L 1217.00 68.00 L 1217.00 51.00 L 1215.00 48.00 L 1213.00 47.00 L 1206.00 47.00 L 1205.00 46.00 L 1205.00 43.00 L 1204.00 42.00 L 1202.00 43.00 L 1202.00 46.00 L 1201.00 47.00 L 1194.00 47.00 Z M 1207.00 65.00 L 1208.00 64.00 L 1211.00 64.00 L 1212.00 66.00 L 1211.00 67.00 L 1208.00 67.00 Z M 1201.00 65.00 L 1202.00 64.00 L 1205.00 64.00 L 1206.00 66.00 L 1205.00 67.00 L 1202.00 67.00 Z M 1195.00 65.00 L 1196.00 64.00 L 1199.00 64.00 L 1200.00 66.00 L 1199.00 67.00 L 1196.00 67.00 Z M 1206.00 55.00 L 1208.00 53.00 L 1211.00 53.00 L 1213.00 55.00 L 1213.00 58.00 L 1211.00 60.00 L 1208.00 60.00 L 1206.00 58.00 Z M 1194.00 55.00 L 1196.00 53.00 L 1199.00 53.00 L 1201.00 55.00 L 1201.00 58.00 L 1199.00 60.00 L 1196.00 60.00 L 1194.00 58.00 Z" fill="#fafbf6" stroke="none" fill-rule="evenodd"/></g>
<g id="c0026_k05" data-area="580" data-color="#fafbf6"><path d="M 131.00 366.00 L 132.00 371.00 L 136.00 374.00 L 173.00 374.00 L 177.00 371.00 L 177.00 369.00 L 178.00 368.00 L 177.00 363.00 L 173.00 360.00 L 161.00 360.00 L 160.00 364.00 L 157.00 366.00 L 151.00 366.00 L 149.00 364.00 L 148.00 360.00 L 136.00 360.00 L 132.00 363.00 L 132.00 365.00 Z M 168.00 365.00 L 169.00 364.00 L 173.00 364.00 L 174.00 365.00 L 174.00 369.00 L 173.00 370.00 L 169.00 370.00 L 168.00 369.00 Z" fill="#fafbf6" stroke="none" fill-rule="evenodd"/></g>
<g id="c0027_k05" data-area="567" data-color="#fafbf6"><path d="M 221.00 366.00 L 222.00 371.00 L 226.00 374.00 L 263.00 374.00 L 267.00 371.00 L 267.00 369.00 L 268.00 368.00 L 267.00 363.00 L 263.00 360.00 L 254.00 360.00 L 249.00 365.00 L 247.00 366.00 L 242.00 366.00 L 240.00 365.00 L 235.00 360.00 L 226.00 360.00 L 222.00 363.00 L 222.00 365.00 Z M 258.00 365.00 L 259.00 364.00 L 263.00 364.00 L 264.00 365.00 L 264.00 369.00 L 263.00 370.00 L 259.00 370.00 L 258.00 369.00 Z" fill="#fafbf6" stroke="none" fill-rule="evenodd"/></g>
<g id="c0028_k05" data-area="561" data-color="#fafbf6"><path d="M 228.00 688.00 L 225.00 691.00 L 225.00 693.00 L 224.00 694.00 L 225.00 695.00 L 225.00 697.00 L 229.00 701.00 L 229.00 721.00 L 225.00 724.00 L 225.00 726.00 L 224.00 727.00 L 225.00 728.00 L 225.00 730.00 L 228.00 733.00 L 234.00 733.00 L 237.00 730.00 L 237.00 724.00 L 233.00 721.00 L 233.00 712.00 L 234.00 711.00 L 240.00 714.00 L 251.00 714.00 L 255.00 718.00 L 257.00 718.00 L 258.00 719.00 L 259.00 718.00 L 261.00 718.00 L 264.00 715.00 L 264.00 709.00 L 261.00 706.00 L 259.00 706.00 L 258.00 705.00 L 257.00 706.00 L 255.00 706.00 L 251.00 710.00 L 241.00 710.00 L 237.00 708.00 L 233.00 703.00 L 233.00 701.00 L 237.00 697.00 L 237.00 691.00 L 234.00 688.00 Z M 228.00 725.00 L 229.00 724.00 L 233.00 724.00 L 234.00 725.00 L 234.00 729.00 L 233.00 730.00 L 229.00 730.00 L 228.00 729.00 Z M 255.00 710.00 L 256.00 709.00 L 260.00 709.00 L 261.00 710.00 L 261.00 714.00 L 260.00 715.00 L 256.00 715.00 L 255.00 714.00 Z M 228.00 692.00 L 229.00 691.00 L 233.00 691.00 L 234.00 692.00 L 234.00 696.00 L 233.00 697.00 L 229.00 697.00 L 228.00 696.00 Z" fill="#fafbf6" stroke="none" fill-rule="evenodd"/></g>
<g id="c0029_k05" data-area="550" data-color="#fafbf6"><path d="M 188.00 984.00 L 186.00 987.00 L 186.00 1013.00 L 188.00 1016.00 L 190.00 1015.00 L 194.00 1011.00 L 195.00 1011.00 L 200.00 1006.00 L 201.00 1006.00 L 206.00 1001.00 L 208.00 1000.00 L 209.00 1001.00 L 209.00 1015.00 L 211.00 1016.00 L 212.00 1015.00 L 212.00 985.00 L 211.00 984.00 L 209.00 985.00 L 209.00 998.00 L 207.00 999.00 L 205.00 998.00 L 189.00 984.00 Z" fill="#fafbf6" stroke="none" fill-rule="evenodd"/></g>
<g id="c0030_k05" data-area="523" data-color="#fafbf6"><path d="M 142.00 691.00 L 134.00 695.00 L 129.00 696.00 L 128.00 698.00 L 128.00 729.00 L 129.00 730.00 L 134.00 729.00 L 142.00 725.00 Z" fill="#fafbf6" stroke="none" fill-rule="evenodd"/></g>
<g id="c0031_k05" data-area="522" data-color="#fafbf6"><path d="M 180.00 691.00 L 175.00 692.00 L 167.00 696.00 L 167.00 730.00 L 175.00 726.00 L 177.00 726.00 L 181.00 723.00 L 181.00 692.00 Z" fill="#fafbf6" stroke="none" fill-rule="evenodd"/></g>
<g id="c0032_k05" data-area="465" data-color="#fafbf6"><path d="M 132.00 601.00 L 131.00 603.00 L 131.00 634.00 L 132.00 635.00 L 132.00 637.00 L 135.00 640.00 L 137.00 640.00 L 138.00 641.00 L 175.00 641.00 L 177.00 640.00 L 177.00 637.00 L 175.00 636.00 L 137.00 636.00 L 136.00 635.00 L 136.00 603.00 L 135.00 601.00 Z" fill="#fafbf6" stroke="none" fill-rule="evenodd"/></g>
<g id="c0033_k05" data-area="465" data-color="#fafbf6"><path d="M 222.00 781.00 L 221.00 783.00 L 221.00 814.00 L 222.00 815.00 L 222.00 817.00 L 225.00 820.00 L 227.00 820.00 L 228.00 821.00 L 265.00 821.00 L 267.00 820.00 L 267.00 817.00 L 265.00 816.00 L 227.00 816.00 L 226.00 815.00 L 226.00 783.00 L 225.00 781.00 Z" fill="#fafbf6" stroke="none" fill-rule="evenodd"/></g>
<g id="c0034_k05" data-area="447" data-color="#fafbf6"><path d="M 224.00 435.00 L 224.00 443.00 L 225.00 445.00 L 232.00 449.00 L 236.00 449.00 L 237.00 450.00 L 252.00 450.00 L 253.00 449.00 L 256.00 449.00 L 257.00 448.00 L 259.00 448.00 L 263.00 446.00 L 265.00 443.00 L 265.00 435.00 L 261.00 438.00 L 253.00 439.00 L 252.00 440.00 L 237.00 440.00 L 236.00 439.00 L 228.00 438.00 Z" fill="#fafbf6" stroke="none" fill-rule="evenodd"/></g>
<g id="c0035_k12" data-area="442" data-color="#222428"><path d="M 255.00 166.00 L 255.00 199.00 L 266.00 199.00 L 267.00 198.00 L 272.00 198.00 L 276.00 196.00 L 280.00 191.00 L 280.00 189.00 L 281.00 188.00 L 281.00 177.00 L 280.00 176.00 L 279.00 172.00 L 275.00 168.00 L 271.00 167.00 L 270.00 166.00 Z M 260.00 169.00 L 267.00 169.00 L 268.00 170.00 L 271.00 170.00 L 276.00 175.00 L 277.00 177.00 L 277.00 187.00 L 275.00 191.00 L 270.00 195.00 L 260.00 195.00 L 259.00 194.00 L 259.00 170.00 Z" fill="#222428" stroke="none" fill-rule="evenodd"/></g>
<g id="c0036_k12" data-area="419" data-color="#222428"><path d="M 102.00 166.00 L 102.00 199.00 L 113.00 199.00 L 114.00 198.00 L 119.00 198.00 L 123.00 195.00 L 124.00 195.00 L 128.00 187.00 L 128.00 177.00 L 125.00 171.00 L 122.00 168.00 L 118.00 167.00 L 117.00 166.00 Z M 107.00 169.00 L 114.00 169.00 L 115.00 170.00 L 119.00 171.00 L 122.00 174.00 L 124.00 178.00 L 124.00 186.00 L 123.00 187.00 L 123.00 189.00 L 120.00 193.00 L 116.00 195.00 L 106.00 195.00 L 105.00 194.00 L 105.00 171.00 Z" fill="#222428" stroke="none" fill-rule="evenodd"/></g>
<g id="c0037_k05" data-area="380" data-color="#fafbf6"><path d="M 224.00 450.00 L 224.00 456.00 L 225.00 458.00 L 228.00 461.00 L 230.00 461.00 L 234.00 463.00 L 243.00 463.00 L 244.00 464.00 L 246.00 463.00 L 255.00 463.00 L 256.00 462.00 L 261.00 461.00 L 265.00 456.00 L 265.00 450.00 L 261.00 453.00 L 253.00 454.00 L 252.00 455.00 L 237.00 455.00 L 236.00 454.00 L 228.00 453.00 Z" fill="#fafbf6" stroke="none" fill-rule="evenodd"/></g>
<g id="c0038_k12" data-area="373" data-color="#222428"><path d="M 406.00 175.00 L 406.00 178.00 L 407.00 179.00 L 407.00 182.00 L 409.00 186.00 L 409.00 189.00 L 410.00 190.00 L 410.00 193.00 L 411.00 194.00 L 412.00 199.00 L 416.00 199.00 L 417.00 195.00 L 418.00 194.00 L 418.00 191.00 L 420.00 187.00 L 420.00 184.00 L 422.00 181.00 L 424.00 184.00 L 424.00 187.00 L 425.00 188.00 L 426.00 194.00 L 427.00 195.00 L 428.00 199.00 L 432.00 199.00 L 432.00 197.00 L 434.00 193.00 L 434.00 190.00 L 435.00 189.00 L 435.00 186.00 L 437.00 182.00 L 438.00 175.00 L 435.00 175.00 L 434.00 177.00 L 434.00 180.00 L 433.00 181.00 L 433.00 184.00 L 432.00 185.00 L 432.00 189.00 L 430.00 193.00 L 428.00 192.00 L 428.00 189.00 L 427.00 188.00 L 427.00 185.00 L 426.00 184.00 L 426.00 181.00 L 425.00 180.00 L 424.00 175.00 L 420.00 175.00 L 419.00 181.00 L 418.00 182.00 L 417.00 188.00 L 416.00 189.00 L 416.00 192.00 L 415.00 193.00 L 413.00 192.00 L 413.00 189.00 L 412.00 188.00 L 412.00 185.00 L 411.00 184.00 L 410.00 177.00 L 409.00 175.00 Z" fill="#222428" stroke="none" fill-rule="evenodd"/></g>
<g id="c0039_k05" data-area="344" data-color="#fafbf6"><path d="M 153.00 328.00 L 141.00 340.00 L 141.00 343.00 L 143.00 344.00 L 151.00 336.00 L 152.00 337.00 L 152.00 359.00 L 153.00 361.00 L 156.00 361.00 L 157.00 359.00 L 157.00 337.00 L 158.00 336.00 L 166.00 344.00 L 168.00 343.00 L 168.00 340.00 L 156.00 328.00 Z" fill="#fafbf6" stroke="none" fill-rule="evenodd"/></g>
<g id="c0040_k05" data-area="340" data-color="#fafbf6"><path d="M 243.00 328.00 L 242.00 330.00 L 242.00 352.00 L 241.00 353.00 L 234.00 346.00 L 231.00 346.00 L 231.00 349.00 L 243.00 361.00 L 246.00 361.00 L 258.00 349.00 L 258.00 346.00 L 255.00 346.00 L 248.00 353.00 L 247.00 352.00 L 247.00 330.00 L 246.00 328.00 Z" fill="#fafbf6" stroke="none" fill-rule="evenodd"/></g>
<g id="c0041_k12" data-area="311" data-color="#222428"><path d="M 178.00 176.00 L 176.00 178.00 L 175.00 181.00 L 179.00 181.00 L 179.00 180.00 L 181.00 178.00 L 187.00 178.00 L 190.00 181.00 L 190.00 184.00 L 189.00 185.00 L 183.00 185.00 L 182.00 186.00 L 178.00 186.00 L 176.00 188.00 L 175.00 188.00 L 174.00 190.00 L 174.00 194.00 L 175.00 196.00 L 179.00 199.00 L 184.00 199.00 L 188.00 196.00 L 190.00 197.00 L 190.00 199.00 L 194.00 199.00 L 194.00 181.00 L 193.00 180.00 L 193.00 178.00 L 189.00 175.00 L 180.00 175.00 Z M 190.00 189.00 L 190.00 192.00 L 186.00 196.00 L 181.00 196.00 L 178.00 194.00 L 178.00 191.00 L 181.00 188.00 L 186.00 188.00 L 188.00 187.00 Z" fill="#222428" stroke="none" fill-rule="evenodd"/></g>
<g id="c0042_k12" data-area="307" data-color="#222428"><path d="M 290.00 176.00 L 287.00 181.00 L 291.00 181.00 L 291.00 180.00 L 293.00 178.00 L 300.00 178.00 L 302.00 181.00 L 302.00 184.00 L 301.00 185.00 L 295.00 185.00 L 294.00 186.00 L 291.00 186.00 L 289.00 187.00 L 286.00 191.00 L 287.00 196.00 L 291.00 199.00 L 296.00 199.00 L 301.00 196.00 L 302.00 197.00 L 302.00 199.00 L 306.00 199.00 L 306.00 180.00 L 305.00 178.00 L 301.00 175.00 L 292.00 175.00 Z M 300.00 187.00 L 302.00 189.00 L 302.00 192.00 L 298.00 196.00 L 293.00 196.00 L 290.00 193.00 L 290.00 191.00 L 293.00 188.00 L 298.00 188.00 Z" fill="#222428" stroke="none" fill-rule="evenodd"/></g>
<g id="c0043_k12" data-area="307" data-color="#222428"><path d="M 331.00 176.00 L 328.00 181.00 L 332.00 181.00 L 332.00 180.00 L 334.00 178.00 L 341.00 178.00 L 343.00 181.00 L 343.00 184.00 L 342.00 185.00 L 336.00 185.00 L 335.00 186.00 L 332.00 186.00 L 330.00 187.00 L 327.00 191.00 L 328.00 196.00 L 332.00 199.00 L 337.00 199.00 L 342.00 196.00 L 343.00 197.00 L 343.00 199.00 L 347.00 199.00 L 347.00 180.00 L 346.00 178.00 L 342.00 175.00 L 333.00 175.00 Z M 341.00 187.00 L 343.00 189.00 L 343.00 192.00 L 339.00 196.00 L 334.00 196.00 L 331.00 193.00 L 331.00 191.00 L 334.00 188.00 L 339.00 188.00 Z" fill="#222428" stroke="none" fill-rule="evenodd"/></g>
<g id="c0044_k12" data-area="289" data-color="#222428"><path d="M 140.00 175.00 L 138.00 176.00 L 134.00 181.00 L 134.00 184.00 L 133.00 185.00 L 134.00 193.00 L 137.00 197.00 L 141.00 199.00 L 148.00 199.00 L 150.00 198.00 L 154.00 194.00 L 154.00 193.00 L 150.00 193.00 L 147.00 196.00 L 142.00 196.00 L 138.00 193.00 L 137.00 189.00 L 139.00 187.00 L 149.00 187.00 L 150.00 188.00 L 154.00 187.00 L 154.00 181.00 L 153.00 179.00 L 148.00 175.00 Z M 137.00 183.00 L 141.00 178.00 L 143.00 178.00 L 144.00 177.00 L 145.00 178.00 L 147.00 178.00 L 150.00 181.00 L 151.00 184.00 L 150.00 185.00 L 138.00 185.00 Z" fill="#222428" stroke="none" fill-rule="evenodd"/></g>
<g id="c0045_k12" data-area="286" data-color="#222428"><path d="M 383.00 177.00 L 383.00 178.00 L 380.00 182.00 L 380.00 191.00 L 381.00 192.00 L 381.00 194.00 L 385.00 198.00 L 387.00 198.00 L 388.00 199.00 L 394.00 199.00 L 395.00 198.00 L 397.00 198.00 L 400.00 195.00 L 401.00 191.00 L 402.00 190.00 L 402.00 183.00 L 400.00 179.00 L 395.00 175.00 L 387.00 175.00 Z M 388.00 178.00 L 394.00 178.00 L 398.00 183.00 L 398.00 190.00 L 396.00 194.00 L 393.00 196.00 L 389.00 196.00 L 387.00 195.00 L 384.00 191.00 L 384.00 182.00 Z" fill="#222428" stroke="none" fill-rule="evenodd"/></g>
<g id="c0046_k12" data-area="267" data-color="#222428"><path d="M 200.00 175.00 L 200.00 193.00 L 202.00 197.00 L 205.00 199.00 L 211.00 199.00 L 215.00 196.00 L 216.00 196.00 L 217.00 197.00 L 217.00 199.00 L 220.00 199.00 L 220.00 175.00 L 217.00 175.00 L 217.00 188.00 L 216.00 189.00 L 216.00 192.00 L 212.00 196.00 L 208.00 196.00 L 205.00 194.00 L 204.00 192.00 L 204.00 175.00 Z" fill="#222428" stroke="none" fill-rule="evenodd"/></g>
<g id="c0047_k07" data-area="253" data-color="#000000"><path d="M 54.00 1404.00 L 57.00 1407.00 L 58.00 1411.00 L 57.00 1412.00 L 47.00 1412.00 L 45.00 1413.00 L 45.00 1426.00 L 47.00 1427.00 L 60.00 1427.00 L 61.00 1426.00 L 61.00 1413.00 L 58.00 1411.00 L 58.00 1408.00 L 57.00 1406.00 Z M 53.00 1416.00 L 54.00 1416.00 L 56.00 1418.00 L 56.00 1421.00 L 54.00 1423.00 L 50.00 1421.00 L 50.00 1418.00 Z" fill="#000000" stroke="none" fill-rule="evenodd"/></g>
<g id="c0048_k01" data-area="251" data-color="#1e1f23"><path d="M 262.00 525.00 L 259.00 527.00 L 257.00 527.00 L 256.00 528.00 L 248.00 530.00 L 248.00 546.00 L 252.00 545.00 L 253.00 544.00 L 255.00 544.00 L 256.00 543.00 L 258.00 543.00 L 259.00 542.00 L 261.00 542.00 L 262.00 541.00 Z" fill="#1e1f23" stroke="none" fill-rule="evenodd"/></g>
<g id="c0049_k05" data-area="251" data-color="#fafbf6"><path d="M 545.00 47.00 L 545.00 68.00 L 554.00 68.00 L 555.00 67.00 L 558.00 67.00 L 560.00 66.00 L 562.00 63.00 L 562.00 51.00 L 558.00 47.00 Z M 550.00 49.00 L 554.00 49.00 L 556.00 50.00 L 558.00 52.00 L 558.00 54.00 L 559.00 55.00 L 559.00 60.00 L 555.00 65.00 L 550.00 65.00 L 549.00 64.00 L 549.00 50.00 Z" fill="#fafbf6" stroke="none" fill-rule="evenodd"/></g>
<g id="c0050_k28" data-area="244" data-color="#292a2d"><path d="M 3119.00 30.00 L 3118.00 31.00 L 3115.00 31.00 L 3114.00 32.00 L 3112.00 32.00 L 3108.00 34.00 L 3101.00 40.00 L 3096.00 50.00 L 3096.00 53.00 L 3095.00 54.00 L 3095.00 61.00 L 3096.00 62.00 L 3096.00 65.00 L 3097.00 66.00 L 3097.00 68.00 L 3099.00 72.00 L 3105.00 79.00 L 3115.00 84.00 L 3118.00 84.00 L 3119.00 85.00 L 3126.00 85.00 L 3127.00 84.00 L 3130.00 84.00 L 3131.00 83.00 L 3133.00 83.00 L 3137.00 81.00 L 3144.00 75.00 L 3149.00 65.00 L 3149.00 62.00 L 3150.00 61.00 L 3150.00 54.00 L 3149.00 53.00 L 3149.00 50.00 L 3148.00 49.00 L 3148.00 47.00 L 3146.00 43.00 L 3140.00 36.00 L 3130.00 31.00 L 3127.00 31.00 L 3126.00 30.00 Z M 3116.00 31.00 L 3129.00 31.00 L 3130.00 32.00 L 3132.00 32.00 L 3136.00 34.00 L 3144.00 41.00 L 3149.00 51.00 L 3149.00 64.00 L 3148.00 65.00 L 3148.00 67.00 L 3146.00 71.00 L 3139.00 79.00 L 3129.00 84.00 L 3116.00 84.00 L 3115.00 83.00 L 3113.00 83.00 L 3109.00 81.00 L 3101.00 74.00 L 3096.00 64.00 L 3096.00 51.00 L 3097.00 50.00 L 3097.00 48.00 L 3099.00 44.00 L 3106.00 36.00 Z" fill="#292a2d" stroke="none" fill-rule="evenodd"/></g>
<g id="c0051_k05" data-area="234" data-color="#fafbf6"><path d="M 1012.00 47.00 L 1012.00 68.00 L 1015.00 68.00 L 1016.00 67.00 L 1016.00 59.00 L 1017.00 58.00 L 1024.00 58.00 L 1026.00 60.00 L 1026.00 68.00 L 1029.00 68.00 L 1029.00 47.00 L 1026.00 47.00 L 1026.00 54.00 L 1025.00 55.00 L 1017.00 55.00 L 1016.00 54.00 L 1016.00 47.00 Z" fill="#fafbf6" stroke="none" fill-rule="evenodd"/></g>
<g id="c0052_k05" data-area="225" data-color="#fafbf6"><path d="M 174.00 607.00 L 171.00 607.00 L 161.00 617.00 L 160.00 617.00 L 154.00 611.00 L 152.00 611.00 L 141.00 622.00 L 141.00 625.00 L 144.00 625.00 L 153.00 616.00 L 160.00 623.00 L 161.00 623.00 L 174.00 610.00 Z" fill="#fafbf6" stroke="none" fill-rule="evenodd"/></g>
<g id="c0053_k05" data-area="225" data-color="#fafbf6"><path d="M 264.00 787.00 L 261.00 787.00 L 251.00 797.00 L 250.00 797.00 L 244.00 791.00 L 242.00 791.00 L 231.00 802.00 L 231.00 805.00 L 234.00 805.00 L 243.00 796.00 L 250.00 803.00 L 251.00 803.00 L 264.00 790.00 Z" fill="#fafbf6" stroke="none" fill-rule="evenodd"/></g>
<g id="c0054_k12" data-area="216" data-color="#222428"><path d="M 364.00 165.00 L 360.00 165.00 L 358.00 166.00 L 356.00 168.00 L 355.00 174.00 L 354.00 175.00 L 352.00 175.00 L 352.00 178.00 L 354.00 178.00 L 355.00 179.00 L 355.00 199.00 L 359.00 199.00 L 359.00 179.00 L 360.00 178.00 L 364.00 178.00 L 364.00 175.00 L 360.00 175.00 L 359.00 174.00 L 359.00 171.00 L 361.00 168.00 L 364.00 168.00 Z" fill="#222428" stroke="none" fill-rule="evenodd"/></g>
<g id="c0055_k05" data-area="213" data-color="#fafbf6"><path d="M 737.00 48.00 L 735.00 47.00 L 722.00 47.00 L 722.00 68.00 L 725.00 68.00 L 726.00 67.00 L 726.00 61.00 L 727.00 60.00 L 735.00 59.00 L 738.00 57.00 L 739.00 52.00 Z M 726.00 50.00 L 727.00 49.00 L 732.00 49.00 L 735.00 52.00 L 735.00 54.00 L 732.00 57.00 L 727.00 57.00 L 726.00 56.00 Z" fill="#fafbf6" stroke="none" fill-rule="evenodd"/></g>
<g id="c0056_k05" data-area="210" data-color="#fafbf6"><path d="M 415.00 52.00 L 415.00 55.00 L 416.00 56.00 L 416.00 58.00 L 417.00 59.00 L 417.00 61.00 L 418.00 62.00 L 418.00 64.00 L 420.00 68.00 L 422.00 68.00 L 423.00 67.00 L 423.00 65.00 L 424.00 64.00 L 424.00 62.00 L 426.00 58.00 L 428.00 60.00 L 428.00 62.00 L 429.00 63.00 L 430.00 67.00 L 431.00 68.00 L 433.00 68.00 L 438.00 52.00 L 435.00 52.00 L 433.00 60.00 L 431.00 62.00 L 430.00 61.00 L 430.00 59.00 L 429.00 58.00 L 429.00 56.00 L 427.00 52.00 L 425.00 53.00 L 424.00 57.00 L 423.00 58.00 L 423.00 60.00 L 421.00 62.00 L 420.00 61.00 L 418.00 53.00 L 417.00 52.00 Z" fill="#fafbf6" stroke="none" fill-rule="evenodd"/></g>
<g id="c0057_k05" data-area="209" data-color="#fafbf6"><path d="M 1074.00 52.00 L 1071.00 52.00 L 1068.00 54.00 L 1067.00 54.00 L 1066.00 52.00 L 1063.00 52.00 L 1063.00 74.00 L 1066.00 74.00 L 1066.00 68.00 L 1068.00 66.00 L 1071.00 68.00 L 1074.00 68.00 L 1078.00 64.00 L 1078.00 56.00 Z M 1069.00 55.00 L 1072.00 55.00 L 1075.00 59.00 L 1075.00 61.00 L 1072.00 65.00 L 1069.00 65.00 L 1066.00 61.00 L 1066.00 59.00 Z" fill="#fafbf6" stroke="none" fill-rule="evenodd"/></g>
<g id="c0058_k12" data-area="198" data-color="#222428"><path d="M 314.00 169.00 L 314.00 174.00 L 313.00 175.00 L 311.00 175.00 L 311.00 178.00 L 313.00 178.00 L 314.00 179.00 L 314.00 193.00 L 315.00 194.00 L 315.00 197.00 L 318.00 199.00 L 323.00 199.00 L 323.00 196.00 L 320.00 196.00 L 318.00 194.00 L 318.00 179.00 L 319.00 178.00 L 323.00 178.00 L 323.00 175.00 L 319.00 175.00 L 318.00 174.00 L 318.00 169.00 Z" fill="#222428" stroke="none" fill-rule="evenodd"/></g>
<g id="c0059_k12" data-area="191" data-color="#222428"><path d="M 170.00 165.00 L 164.00 166.00 L 162.00 168.00 L 162.00 174.00 L 161.00 175.00 L 158.00 175.00 L 158.00 178.00 L 161.00 178.00 L 162.00 179.00 L 162.00 199.00 L 165.00 199.00 L 165.00 179.00 L 166.00 178.00 L 170.00 178.00 L 170.00 175.00 L 166.00 175.00 L 165.00 174.00 L 165.00 171.00 L 168.00 168.00 L 170.00 168.00 Z" fill="#222428" stroke="none" fill-rule="evenodd"/></g>
<g id="c0060_k05" data-area="190" data-color="#fafbf6"><path d="M 366.00 47.00 L 367.00 51.00 L 368.00 52.00 L 368.00 54.00 L 369.00 55.00 L 369.00 57.00 L 370.00 58.00 L 370.00 60.00 L 371.00 61.00 L 371.00 63.00 L 372.00 64.00 L 372.00 66.00 L 374.00 68.00 L 377.00 68.00 L 379.00 66.00 L 379.00 63.00 L 380.00 62.00 L 380.00 60.00 L 381.00 59.00 L 381.00 57.00 L 382.00 56.00 L 382.00 54.00 L 383.00 53.00 L 383.00 51.00 L 385.00 47.00 L 381.00 47.00 L 380.00 51.00 L 379.00 52.00 L 379.00 55.00 L 378.00 56.00 L 378.00 58.00 L 376.00 62.00 L 374.00 61.00 L 374.00 59.00 L 373.00 58.00 L 373.00 56.00 L 372.00 55.00 L 370.00 47.00 Z" fill="#fafbf6" stroke="none" fill-rule="evenodd"/></g>
<g id="c0061_k05" data-area="182" data-color="#fafbf6"><path d="M 226.00 47.00 L 211.00 47.00 L 211.00 67.00 L 212.00 68.00 L 214.00 68.00 L 215.00 67.00 L 215.00 60.00 L 216.00 59.00 L 225.00 59.00 L 225.00 56.00 L 216.00 56.00 L 215.00 55.00 L 215.00 51.00 L 217.00 49.00 L 226.00 49.00 Z" fill="#fafbf6" stroke="none" fill-rule="evenodd"/></g>
<g id="c0062_k12" data-area="178" data-color="#222428"><path d="M 240.00 169.00 L 240.00 174.00 L 239.00 175.00 L 236.00 175.00 L 236.00 178.00 L 239.00 178.00 L 240.00 179.00 L 240.00 196.00 L 241.00 198.00 L 243.00 199.00 L 248.00 199.00 L 248.00 196.00 L 245.00 196.00 L 243.00 192.00 L 243.00 179.00 L 244.00 178.00 L 248.00 178.00 L 248.00 175.00 L 244.00 175.00 L 243.00 174.00 L 243.00 169.00 Z" fill="#222428" stroke="none" fill-rule="evenodd"/></g>
<g id="c0063_k12" data-area="170" data-color="#222428"><path d="M 227.00 166.00 L 227.00 199.00 L 231.00 199.00 L 231.00 166.00 Z" fill="#222428" stroke="none" fill-rule="evenodd"/></g>
<g id="c0064_k12" data-area="170" data-color="#222428"><path d="M 370.00 166.00 L 370.00 199.00 L 374.00 199.00 L 374.00 166.00 Z" fill="#222428" stroke="none" fill-rule="evenodd"/></g>
<g id="c0065_k05" data-area="168" data-color="#fafbf6"><path d="M 813.00 52.00 L 812.00 53.00 L 812.00 67.00 L 813.00 68.00 L 815.00 68.00 L 816.00 67.00 L 816.00 57.00 L 818.00 55.00 L 822.00 55.00 L 824.00 58.00 L 824.00 68.00 L 827.00 68.00 L 827.00 56.00 L 826.00 54.00 L 823.00 52.00 L 820.00 52.00 L 817.00 54.00 L 815.00 52.00 Z" fill="#fafbf6" stroke="none" fill-rule="evenodd"/></g>
<g id="c0066_k05" data-area="168" data-color="#fafbf6"><path d="M 852.00 52.00 L 851.00 53.00 L 851.00 67.00 L 852.00 68.00 L 854.00 68.00 L 855.00 67.00 L 855.00 57.00 L 857.00 55.00 L 861.00 55.00 L 863.00 58.00 L 863.00 68.00 L 866.00 68.00 L 866.00 56.00 L 865.00 54.00 L 862.00 52.00 L 859.00 52.00 L 856.00 54.00 L 854.00 52.00 Z" fill="#fafbf6" stroke="none" fill-rule="evenodd"/></g>
<g id="c0067_k05" data-area="167" data-color="#fafbf6"><path d="M 252.00 52.00 L 248.00 55.00 L 247.00 61.00 L 250.00 67.00 L 252.00 67.00 L 253.00 68.00 L 257.00 68.00 L 262.00 64.00 L 258.00 64.00 L 256.00 66.00 L 253.00 66.00 L 251.00 62.00 L 252.00 61.00 L 262.00 61.00 L 262.00 57.00 L 259.00 53.00 L 257.00 52.00 Z M 251.00 56.00 L 253.00 54.00 L 256.00 54.00 L 258.00 56.00 L 258.00 58.00 L 257.00 59.00 L 252.00 59.00 L 251.00 58.00 Z" fill="#fafbf6" stroke="none" fill-rule="evenodd"/></g>
<g id="c0068_k05" data-area="167" data-color="#fafbf6"><path d="M 894.00 52.00 L 890.00 55.00 L 889.00 61.00 L 892.00 67.00 L 894.00 67.00 L 895.00 68.00 L 899.00 68.00 L 904.00 64.00 L 900.00 64.00 L 898.00 66.00 L 895.00 66.00 L 893.00 62.00 L 894.00 61.00 L 904.00 61.00 L 904.00 57.00 L 901.00 53.00 L 899.00 52.00 Z M 893.00 56.00 L 895.00 54.00 L 898.00 54.00 L 900.00 56.00 L 900.00 58.00 L 899.00 59.00 L 894.00 59.00 L 893.00 58.00 Z" fill="#fafbf6" stroke="none" fill-rule="evenodd"/></g>
<g id="c0069_k05" data-area="164" data-color="#fafbf6"><path d="M 569.00 53.00 L 568.00 54.00 L 568.00 56.00 L 570.00 56.00 L 572.00 54.00 L 576.00 54.00 L 577.00 55.00 L 577.00 58.00 L 576.00 59.00 L 571.00 59.00 L 567.00 61.00 L 567.00 66.00 L 570.00 68.00 L 574.00 68.00 L 576.00 66.00 L 578.00 68.00 L 580.00 68.00 L 581.00 67.00 L 581.00 57.00 L 580.00 56.00 L 580.00 54.00 L 576.00 52.00 L 572.00 52.00 L 571.00 53.00 Z M 570.00 64.00 L 570.00 62.00 L 573.00 60.00 L 576.00 60.00 L 577.00 61.00 L 577.00 63.00 L 574.00 66.00 L 572.00 66.00 Z" fill="#fafbf6" stroke="none" fill-rule="evenodd"/></g>
<g id="c0070_k05" data-area="164" data-color="#fafbf6"><path d="M 834.00 53.00 L 833.00 54.00 L 833.00 56.00 L 835.00 56.00 L 837.00 54.00 L 841.00 54.00 L 842.00 55.00 L 842.00 58.00 L 841.00 59.00 L 836.00 59.00 L 832.00 61.00 L 832.00 66.00 L 835.00 68.00 L 839.00 68.00 L 841.00 66.00 L 843.00 68.00 L 845.00 68.00 L 846.00 67.00 L 846.00 57.00 L 845.00 56.00 L 845.00 54.00 L 841.00 52.00 L 837.00 52.00 L 836.00 53.00 Z M 835.00 64.00 L 835.00 62.00 L 838.00 60.00 L 841.00 60.00 L 842.00 61.00 L 842.00 63.00 L 839.00 66.00 L 837.00 66.00 Z" fill="#fafbf6" stroke="none" fill-rule="evenodd"/></g>
<g id="c0071_k05" data-area="162" data-color="#fafbf6"><path d="M 400.00 53.00 L 397.00 57.00 L 397.00 64.00 L 402.00 68.00 L 406.00 68.00 L 407.00 67.00 L 409.00 67.00 L 411.00 65.00 L 411.00 64.00 L 408.00 64.00 L 406.00 66.00 L 403.00 66.00 L 400.00 62.00 L 401.00 61.00 L 411.00 61.00 L 412.00 60.00 L 411.00 59.00 L 411.00 56.00 L 410.00 54.00 L 406.00 52.00 L 402.00 52.00 Z M 400.00 58.00 L 403.00 54.00 L 406.00 54.00 L 408.00 57.00 L 407.00 59.00 L 401.00 59.00 Z" fill="#fafbf6" stroke="none" fill-rule="evenodd"/></g>
<g id="c0072_k05" data-area="162" data-color="#fafbf6"><path d="M 759.00 53.00 L 757.00 55.00 L 757.00 57.00 L 756.00 58.00 L 756.00 62.00 L 757.00 63.00 L 757.00 65.00 L 761.00 68.00 L 766.00 68.00 L 767.00 67.00 L 769.00 67.00 L 771.00 64.00 L 771.00 56.00 L 770.00 54.00 L 766.00 52.00 L 761.00 52.00 Z M 763.00 54.00 L 765.00 54.00 L 768.00 57.00 L 768.00 63.00 L 765.00 66.00 L 763.00 66.00 L 760.00 63.00 L 760.00 57.00 Z" fill="#fafbf6" stroke="none" fill-rule="evenodd"/></g>
<g id="c0073_k05" data-area="162" data-color="#fafbf6"><path d="M 796.00 53.00 L 793.00 57.00 L 793.00 64.00 L 798.00 68.00 L 802.00 68.00 L 803.00 67.00 L 805.00 67.00 L 807.00 65.00 L 807.00 64.00 L 804.00 64.00 L 802.00 66.00 L 799.00 66.00 L 796.00 62.00 L 797.00 61.00 L 807.00 61.00 L 808.00 60.00 L 807.00 59.00 L 807.00 56.00 L 806.00 54.00 L 802.00 52.00 L 798.00 52.00 Z M 796.00 58.00 L 799.00 54.00 L 802.00 54.00 L 804.00 57.00 L 803.00 59.00 L 797.00 59.00 Z" fill="#fafbf6" stroke="none" fill-rule="evenodd"/></g>
<g id="c0074_k05" data-area="162" data-color="#fafbf6"><path d="M 1038.00 53.00 L 1035.00 57.00 L 1035.00 64.00 L 1040.00 68.00 L 1044.00 68.00 L 1045.00 67.00 L 1047.00 67.00 L 1049.00 65.00 L 1049.00 64.00 L 1046.00 64.00 L 1044.00 66.00 L 1041.00 66.00 L 1038.00 62.00 L 1039.00 61.00 L 1049.00 61.00 L 1050.00 60.00 L 1049.00 59.00 L 1049.00 56.00 L 1048.00 54.00 L 1044.00 52.00 L 1040.00 52.00 Z M 1038.00 58.00 L 1041.00 54.00 L 1044.00 54.00 L 1046.00 57.00 L 1045.00 59.00 L 1039.00 59.00 Z" fill="#fafbf6" stroke="none" fill-rule="evenodd"/></g>
<g id="c0075_k01" data-area="154" data-color="#1e1f23"><path d="M 232.00 518.00 L 232.00 519.00 L 234.00 519.00 L 237.00 521.00 L 239.00 521.00 L 243.00 523.00 L 246.00 523.00 L 247.00 522.00 L 252.00 521.00 L 255.00 519.00 L 257.00 519.00 L 257.00 518.00 L 255.00 517.00 L 253.00 517.00 L 252.00 516.00 L 250.00 516.00 L 246.00 514.00 L 243.00 514.00 L 242.00 515.00 L 240.00 515.00 L 239.00 516.00 L 237.00 516.00 L 236.00 517.00 Z" fill="#1e1f23" stroke="none" fill-rule="evenodd"/></g>
<g id="c0076_k05" data-area="154" data-color="#fafbf6"><path d="M 602.00 53.00 L 600.00 56.00 L 603.00 56.00 L 605.00 54.00 L 608.00 54.00 L 610.00 56.00 L 610.00 58.00 L 609.00 59.00 L 604.00 59.00 L 600.00 61.00 L 599.00 63.00 L 600.00 66.00 L 603.00 68.00 L 606.00 68.00 L 609.00 66.00 L 611.00 68.00 L 613.00 68.00 L 613.00 55.00 L 609.00 52.00 L 604.00 52.00 Z M 602.00 63.00 L 606.00 60.00 L 609.00 60.00 L 610.00 61.00 L 610.00 63.00 L 607.00 66.00 L 604.00 66.00 Z" fill="#fafbf6" stroke="none" fill-rule="evenodd"/></g>
<g id="c0077_k05" data-area="139" data-color="#fafbf6"><path d="M 876.00 52.00 L 871.00 56.00 L 871.00 64.00 L 876.00 68.00 L 881.00 68.00 L 885.00 65.00 L 885.00 63.00 L 882.00 63.00 L 878.00 66.00 L 875.00 64.00 L 874.00 62.00 L 874.00 58.00 L 875.00 56.00 L 878.00 54.00 L 882.00 57.00 L 885.00 57.00 L 885.00 55.00 L 883.00 53.00 L 881.00 53.00 L 880.00 52.00 Z" fill="#fafbf6" stroke="none" fill-rule="evenodd"/></g>
<g id="c0078_k05" data-area="137" data-color="#fafbf6"><path d="M 588.00 46.00 L 588.00 51.00 L 587.00 52.00 L 585.00 52.00 L 584.00 53.00 L 584.00 55.00 L 587.00 55.00 L 588.00 56.00 L 588.00 65.00 L 590.00 67.00 L 595.00 68.00 L 596.00 67.00 L 596.00 65.00 L 593.00 65.00 L 591.00 63.00 L 591.00 56.00 L 592.00 55.00 L 595.00 55.00 L 596.00 53.00 L 595.00 52.00 L 592.00 52.00 L 591.00 51.00 L 591.00 46.00 Z" fill="#fafbf6" stroke="none" fill-rule="evenodd"/></g>
<g id="c0079_k01" data-area="135" data-color="#1e1f23"><path d="M 227.00 612.00 L 227.00 620.00 L 241.00 620.00 L 241.00 612.00 Z" fill="#1e1f23" stroke="none" fill-rule="evenodd"/></g>
<g id="c0080_k01" data-area="135" data-color="#1e1f23"><path d="M 248.00 612.00 L 248.00 620.00 L 262.00 620.00 L 262.00 612.00 Z" fill="#1e1f23" stroke="none" fill-rule="evenodd"/></g>
<g id="c0081_k01" data-area="135" data-color="#1e1f23"><path d="M 227.00 627.00 L 227.00 635.00 L 241.00 635.00 L 241.00 627.00 Z" fill="#1e1f23" stroke="none" fill-rule="evenodd"/></g>
<g id="c0082_k01" data-area="135" data-color="#1e1f23"><path d="M 248.00 627.00 L 248.00 635.00 L 262.00 635.00 L 262.00 627.00 Z" fill="#1e1f23" stroke="none" fill-rule="evenodd"/></g>
<g id="c0083_k05" data-area="128" data-color="#fafbf6"><path d="M 774.00 52.00 L 780.00 67.00 L 781.00 68.00 L 783.00 68.00 L 785.00 66.00 L 785.00 64.00 L 787.00 61.00 L 787.00 59.00 L 789.00 56.00 L 790.00 52.00 L 787.00 52.00 L 785.00 56.00 L 784.00 61.00 L 782.00 63.00 L 780.00 60.00 L 780.00 58.00 L 778.00 55.00 L 778.00 53.00 L 777.00 52.00 Z" fill="#fafbf6" stroke="none" fill-rule="evenodd"/></g>
<g id="c0084_k05" data-area="113" data-color="#fafbf6"><path d="M 461.00 51.00 L 447.00 51.00 L 454.00 65.00 Z" fill="#fafbf6" stroke="none" fill-rule="evenodd"/></g>
<g id="c0085_k05" data-area="113" data-color="#fafbf6"><path d="M 638.00 51.00 L 624.00 51.00 L 631.00 65.00 Z" fill="#fafbf6" stroke="none" fill-rule="evenodd"/></g>
<g id="c0086_k05" data-area="113" data-color="#fafbf6"><path d="M 928.00 51.00 L 914.00 51.00 L 921.00 65.00 Z" fill="#fafbf6" stroke="none" fill-rule="evenodd"/></g>
<g id="c0087_k05" data-area="112" data-color="#fafbf6"><path d="M 239.00 46.00 L 239.00 67.00 L 240.00 68.00 L 242.00 68.00 L 243.00 67.00 L 243.00 47.00 L 242.00 46.00 Z" fill="#fafbf6" stroke="none" fill-rule="evenodd"/></g>
<g id="c0088_k05" data-area="112" data-color="#fafbf6"><path d="M 1054.00 46.00 L 1054.00 67.00 L 1055.00 68.00 L 1057.00 68.00 L 1058.00 67.00 L 1058.00 47.00 L 1057.00 46.00 Z" fill="#fafbf6" stroke="none" fill-rule="evenodd"/></g>
<g id="c0089_k05" data-area="112" data-color="#fafbf6"><path d="M 1102.00 51.00 L 1088.00 51.00 L 1090.00 55.00 L 1092.00 57.00 L 1095.00 64.00 L 1097.00 60.00 L 1099.00 58.00 Z" fill="#fafbf6" stroke="none" fill-rule="evenodd"/></g>
<g id="c0090_k05" data-area="101" data-color="#fafbf6"><path d="M 753.00 52.00 L 749.00 53.00 L 748.00 54.00 L 747.00 54.00 L 746.00 52.00 L 744.00 52.00 L 743.00 53.00 L 743.00 67.00 L 744.00 68.00 L 746.00 68.00 L 747.00 67.00 L 747.00 57.00 L 750.00 55.00 L 753.00 55.00 Z" fill="#fafbf6" stroke="none" fill-rule="evenodd"/></g>
<g id="c0091_k20" data-area="98" data-color="#0f0f11"><path d="M 3126.00 51.00 L 3124.00 53.00 L 3124.00 62.00 L 3126.00 64.00 L 3128.00 64.00 L 3129.00 65.00 L 3133.00 64.00 L 3135.00 62.00 L 3135.00 57.00 L 3131.00 57.00 L 3131.00 58.00 L 3132.00 58.00 L 3134.00 60.00 L 3132.00 63.00 L 3128.00 63.00 L 3126.00 61.00 L 3126.00 54.00 L 3128.00 52.00 L 3131.00 52.00 L 3133.00 54.00 L 3135.00 54.00 L 3135.00 53.00 L 3133.00 51.00 Z" fill="#0f0f11" stroke="none" fill-rule="evenodd"/></g>
<g id="c0092_k01" data-area="97" data-color="#1e1f23"><path d="M 165.00 889.00 L 161.00 892.00 L 161.00 896.00 L 163.00 898.00 L 166.00 899.00 L 169.00 902.00 L 169.00 904.00 L 166.00 906.00 L 162.00 904.00 L 160.00 904.00 L 160.00 905.00 L 163.00 907.00 L 169.00 907.00 L 171.00 905.00 L 171.00 901.00 L 170.00 899.00 L 165.00 897.00 L 163.00 895.00 L 163.00 892.00 L 164.00 891.00 L 167.00 891.00 L 168.00 892.00 L 169.00 892.00 L 169.00 891.00 Z" fill="#1e1f23" stroke="none" fill-rule="evenodd"/></g>
<g id="c0093_k01" data-area="96" data-color="#1e1f23"><path d="M 147.00 791.00 L 148.00 793.00 L 170.00 793.00 L 171.00 792.00 L 170.00 790.00 L 148.00 790.00 Z" fill="#1e1f23" stroke="none" fill-rule="evenodd"/></g>
<g id="c0094_k01" data-area="96" data-color="#1e1f23"><path d="M 147.00 800.00 L 148.00 802.00 L 170.00 802.00 L 171.00 801.00 L 170.00 799.00 L 148.00 799.00 Z" fill="#1e1f23" stroke="none" fill-rule="evenodd"/></g>
<g id="c0095_k01" data-area="96" data-color="#1e1f23"><path d="M 147.00 809.00 L 148.00 811.00 L 170.00 811.00 L 171.00 810.00 L 170.00 808.00 L 148.00 808.00 Z" fill="#1e1f23" stroke="none" fill-rule="evenodd"/></g>
<g id="c0096_k07" data-area="92" data-color="#000000"><path d="M 53.00 1242.00 L 53.00 1252.00 L 52.00 1253.00 L 42.00 1253.00 L 42.00 1254.00 L 52.00 1254.00 L 53.00 1255.00 L 53.00 1265.00 L 54.00 1265.00 L 54.00 1255.00 L 55.00 1254.00 L 65.00 1254.00 L 65.00 1253.00 L 55.00 1253.00 L 54.00 1252.00 L 54.00 1242.00 Z" fill="#000000" stroke="none" fill-rule="evenodd"/></g>
<g id="c0097_k20" data-area="91" data-color="#0f0f11"><path d="M 3109.00 52.00 L 3109.00 56.00 L 3117.00 60.00 L 3117.00 62.00 L 3114.00 64.00 L 3111.00 62.00 L 3109.00 62.00 L 3109.00 63.00 L 3113.00 65.00 L 3118.00 64.00 L 3120.00 61.00 L 3119.00 59.00 L 3116.00 57.00 L 3113.00 57.00 L 3111.00 55.00 L 3111.00 53.00 L 3112.00 52.00 L 3115.00 52.00 L 3117.00 54.00 L 3119.00 54.00 L 3119.00 53.00 L 3117.00 51.00 L 3111.00 51.00 Z" fill="#0f0f11" stroke="none" fill-rule="evenodd"/></g>
<g id="c0098_k01" data-area="82" data-color="#1e1f23"><path d="M 551.00 51.00 L 551.00 63.00 L 555.00 63.00 L 557.00 60.00 L 557.00 54.00 L 556.00 52.00 L 554.00 51.00 Z" fill="#1e1f23" stroke="none" fill-rule="evenodd"/></g>
<g id="c0099_k13" data-area="81" data-color="#fefefe"><path d="M 3259.00 25.00 L 3258.00 26.00 L 3256.00 26.00 L 3254.00 29.00 L 3254.00 37.00 L 3256.00 40.00 L 3262.00 41.00 L 3265.00 39.00 L 3266.00 37.00 L 3266.00 33.00 L 3261.00 33.00 L 3264.00 33.00 L 3265.00 34.00 L 3265.00 37.00 L 3262.00 40.00 L 3258.00 40.00 L 3255.00 37.00 L 3255.00 29.00 L 3258.00 26.00 L 3262.00 26.00 L 3265.00 29.00 L 3266.00 29.00 L 3266.00 28.00 L 3262.00 25.00 Z" fill="#fefefe" stroke="none" fill-rule="evenodd"/></g>
<g id="c0100_k03" data-area="80" data-color="#d2d2d2"><path d="M 3236.00 73.00 L 3233.00 75.00 L 3232.00 77.00 L 3232.00 80.00 L 3233.00 81.00 L 3233.00 83.00 L 3235.00 84.00 L 3238.00 84.00 L 3239.00 83.00 L 3240.00 84.00 L 3240.00 86.00 L 3238.00 88.00 L 3235.00 88.00 L 3234.00 86.00 L 3233.00 86.00 L 3234.00 88.00 L 3237.00 89.00 L 3241.00 87.00 L 3241.00 74.00 L 3238.00 74.00 Z M 3236.00 74.00 L 3238.00 74.00 L 3240.00 76.00 L 3240.00 81.00 L 3238.00 83.00 L 3235.00 83.00 L 3233.00 80.00 L 3233.00 77.00 Z" fill="#d2d2d2" stroke="none" fill-rule="evenodd"/></g>
<g id="c0101_k01" data-area="78" data-color="#1e1f23"><path d="M 75.00 86.00 L 73.00 85.00 L 72.00 86.00 L 70.00 86.00 L 68.00 88.00 L 66.00 88.00 L 59.00 92.00 L 55.00 93.00 L 54.00 95.00 L 56.00 94.00 L 58.00 95.00 L 59.00 94.00 L 64.00 93.00 L 66.00 91.00 L 68.00 91.00 L 70.00 89.00 L 72.00 89.00 L 74.00 87.00 L 75.00 87.00 Z" fill="#1e1f23" stroke="none" fill-rule="evenodd"/></g>
<g id="c0102_k05" data-area="72" data-color="#fafbf6"><path d="M 267.00 56.00 L 274.00 63.00 L 275.00 63.00 L 282.00 56.00 Z" fill="#fafbf6" stroke="none" fill-rule="evenodd"/></g>
<g id="c0103_k07" data-area="72" data-color="#000000"><path d="M 42.00 1306.00 L 42.00 1308.00 L 65.00 1308.00 L 65.00 1306.00 Z" fill="#000000" stroke="none" fill-rule="evenodd"/></g>
<g id="c0104_k13" data-area="71" data-color="#fefefe"><path d="M 3172.00 25.00 L 3169.00 27.00 L 3169.00 31.00 L 3172.00 33.00 L 3176.00 34.00 L 3178.00 36.00 L 3178.00 38.00 L 3176.00 40.00 L 3171.00 40.00 L 3169.00 38.00 L 3169.00 37.00 L 3168.00 37.00 L 3168.00 38.00 L 3172.00 41.00 L 3175.00 41.00 L 3179.00 39.00 L 3179.00 35.00 L 3176.00 33.00 L 3172.00 32.00 L 3169.00 29.00 L 3171.00 26.00 L 3176.00 26.00 L 3178.00 28.00 L 3179.00 28.00 L 3176.00 25.00 Z" fill="#fefefe" stroke="none" fill-rule="evenodd"/></g>
<g id="c0105_k01" data-area="68" data-color="#1e1f23"><path d="M 155.00 890.00 L 153.00 890.00 L 153.00 904.00 L 151.00 906.00 L 147.00 904.00 L 146.00 905.00 L 148.00 907.00 L 153.00 907.00 L 155.00 905.00 Z" fill="#1e1f23" stroke="none" fill-rule="evenodd"/></g>
<g id="c0106_k05" data-area="68" data-color="#fafbf6"><path d="M 389.00 52.00 L 389.00 68.00 L 392.00 68.00 L 392.00 52.00 Z" fill="#fafbf6" stroke="none" fill-rule="evenodd"/></g>
<g id="c0107_k05" data-area="66" data-color="#fafbf6"><path d="M 231.00 52.00 L 231.00 68.00 L 233.00 68.00 L 234.00 67.00 L 234.00 53.00 L 233.00 52.00 Z" fill="#fafbf6" stroke="none" fill-rule="evenodd"/></g>
<g id="c0108_k13" data-area="63" data-color="#fefefe"><path d="M 3243.00 25.00 L 3243.00 29.00 L 3241.00 31.00 L 3238.00 29.00 L 3234.00 31.00 L 3234.00 34.00 L 3233.00 35.00 L 3234.00 36.00 L 3234.00 39.00 L 3237.00 41.00 L 3239.00 41.00 L 3240.00 40.00 L 3242.00 40.00 L 3243.00 41.00 Z M 3237.00 30.00 L 3240.00 30.00 L 3242.00 32.00 L 3242.00 34.00 L 3243.00 35.00 L 3242.00 36.00 L 3242.00 38.00 L 3240.00 40.00 L 3237.00 40.00 L 3234.00 37.00 L 3234.00 34.00 Z" fill="#fefefe" stroke="none" fill-rule="evenodd"/></g>
<g id="c0109_k13" data-area="60" data-color="#fefefe"><path d="M 3200.00 30.00 L 3199.00 31.00 L 3201.00 30.00 L 3204.00 30.00 L 3206.00 32.00 L 3206.00 33.00 L 3203.00 35.00 L 3200.00 35.00 L 3198.00 37.00 L 3198.00 39.00 L 3200.00 41.00 L 3203.00 41.00 L 3204.00 40.00 L 3207.00 41.00 L 3207.00 32.00 L 3206.00 30.00 L 3204.00 30.00 L 3203.00 29.00 Z M 3198.00 38.00 L 3201.00 35.00 L 3205.00 35.00 L 3206.00 36.00 L 3206.00 38.00 L 3204.00 40.00 L 3200.00 40.00 Z" fill="#fefefe" stroke="none" fill-rule="evenodd"/></g>
<g id="c0110_k13" data-area="56" data-color="#fefefe"><path d="M 3184.00 25.00 L 3184.00 41.00 L 3185.00 40.00 L 3185.00 32.00 L 3187.00 30.00 L 3190.00 30.00 L 3192.00 32.00 L 3193.00 34.00 L 3193.00 41.00 L 3193.00 31.00 L 3189.00 29.00 L 3186.00 31.00 L 3185.00 30.00 L 3185.00 25.00 Z" fill="#fefefe" stroke="none" fill-rule="evenodd"/></g>
<g id="c0111_k03" data-area="55" data-color="#d2d2d2"><path d="M 3224.00 73.00 L 3223.00 74.00 L 3221.00 74.00 L 3220.00 76.00 L 3220.00 82.00 L 3223.00 84.00 L 3226.00 84.00 L 3228.00 83.00 L 3229.00 81.00 L 3229.00 77.00 L 3227.00 74.00 Z M 3223.00 74.00 L 3226.00 74.00 L 3228.00 77.00 L 3228.00 80.00 L 3226.00 83.00 L 3223.00 83.00 L 3221.00 81.00 L 3221.00 76.00 Z" fill="#d2d2d2" stroke="none" fill-rule="evenodd"/></g>
<g id="c0112_k01" data-area="54" data-color="#1e1f23"><path d="M 149.00 427.00 L 149.00 444.00 L 151.00 444.00 L 151.00 427.00 Z" fill="#1e1f23" stroke="none" fill-rule="evenodd"/></g>
<g id="c0113_k13" data-area="54" data-color="#fefefe"><path d="M 3289.00 29.00 L 3285.00 32.00 L 3284.00 36.00 L 3286.00 40.00 L 3288.00 41.00 L 3291.00 41.00 L 3294.00 39.00 L 3292.00 39.00 L 3291.00 40.00 L 3287.00 40.00 L 3285.00 37.00 L 3286.00 35.00 L 3294.00 35.00 L 3294.00 32.00 L 3292.00 30.00 L 3290.00 30.00 Z M 3285.00 33.00 L 3288.00 30.00 L 3291.00 30.00 L 3293.00 32.00 L 3293.00 34.00 L 3292.00 35.00 L 3286.00 35.00 Z" fill="#fefefe" stroke="none" fill-rule="evenodd"/></g>
<g id="c0114_k13" data-area="54" data-color="#fefefe"><path d="M 3270.00 30.00 L 3270.00 36.00 L 3271.00 37.00 L 3271.00 39.00 L 3274.00 41.00 L 3276.00 41.00 L 3277.00 40.00 L 3280.00 41.00 L 3280.00 30.00 L 3279.00 30.00 L 3279.00 38.00 L 3277.00 40.00 L 3273.00 40.00 L 3271.00 37.00 L 3271.00 30.00 Z" fill="#fefefe" stroke="none" fill-rule="evenodd"/></g>
<g id="c0115_k03" data-area="53" data-color="#d2d2d2"><path d="M 3253.00 74.00 L 3251.00 74.00 L 3250.00 73.00 L 3246.00 75.00 L 3245.00 79.00 L 3246.00 80.00 L 3246.00 82.00 L 3248.00 84.00 L 3252.00 84.00 L 3254.00 82.00 L 3255.00 78.00 Z M 3249.00 74.00 L 3251.00 74.00 L 3254.00 77.00 L 3254.00 80.00 L 3252.00 83.00 L 3248.00 83.00 L 3247.00 82.00 L 3246.00 78.00 Z" fill="#d2d2d2" stroke="none" fill-rule="evenodd"/></g>
<g id="c0116_k03" data-area="52" data-color="#d2d2d2"><path d="M 3258.00 74.00 L 3258.00 80.00 L 3259.00 81.00 L 3259.00 83.00 L 3261.00 84.00 L 3264.00 84.00 L 3265.00 83.00 L 3267.00 84.00 L 3267.00 74.00 L 3266.00 74.00 L 3266.00 81.00 L 3264.00 83.00 L 3261.00 83.00 L 3259.00 80.00 L 3259.00 74.00 Z" fill="#d2d2d2" stroke="none" fill-rule="evenodd"/></g>
<g id="c0117_k13" data-area="51" data-color="#fefefe"><path d="M 3225.00 29.00 L 3224.00 30.00 L 3222.00 30.00 L 3220.00 33.00 L 3220.00 38.00 L 3223.00 41.00 L 3226.00 41.00 L 3229.00 39.00 L 3225.00 41.00 L 3223.00 40.00 L 3221.00 38.00 L 3221.00 36.00 L 3222.00 35.00 L 3230.00 35.00 L 3229.00 34.00 L 3229.00 32.00 Z M 3221.00 32.00 L 3223.00 30.00 L 3226.00 30.00 L 3229.00 33.00 L 3229.00 34.00 L 3228.00 35.00 L 3222.00 35.00 L 3221.00 34.00 Z" fill="#fefefe" stroke="none" fill-rule="evenodd"/></g>
<g id="c0118_k01" data-area="46" data-color="#1e1f23"><path d="M 156.00 433.00 L 156.00 443.00 L 158.00 444.00 L 159.00 443.00 L 159.00 433.00 Z" fill="#1e1f23" stroke="none" fill-rule="evenodd"/></g>
<g id="c0119_k03" data-area="46" data-color="#d2d2d2"><path d="M 3208.00 70.00 L 3208.00 84.00 L 3217.00 84.00 L 3217.00 83.00 L 3210.00 83.00 L 3209.00 82.00 L 3209.00 70.00 Z" fill="#d2d2d2" stroke="none" fill-rule="evenodd"/></g>
<g id="c0120_k13" data-area="45" data-color="#fefefe"><path d="M 3302.00 29.00 L 3301.00 30.00 L 3299.00 30.00 L 3298.00 31.00 L 3298.00 33.00 L 3300.00 35.00 L 3304.00 36.00 L 3305.00 37.00 L 3305.00 39.00 L 3302.00 41.00 L 3298.00 39.00 L 3298.00 40.00 L 3300.00 41.00 L 3303.00 41.00 L 3306.00 39.00 L 3306.00 37.00 L 3304.00 35.00 L 3301.00 35.00 L 3299.00 33.00 L 3299.00 31.00 L 3300.00 30.00 L 3304.00 30.00 L 3306.00 31.00 Z" fill="#fefefe" stroke="none" fill-rule="evenodd"/></g>
<g id="c0121_k22" data-area="45" data-color="#989999"><path d="M 3249.00 1448.00 L 3249.00 1461.00 L 3249.00 1456.00 L 3250.00 1455.00 L 3253.00 1455.00 L 3255.00 1457.00 L 3257.00 1461.00 L 3255.00 1457.00 L 3255.00 1455.00 L 3257.00 1453.00 L 3257.00 1450.00 L 3255.00 1448.00 Z M 3249.00 1449.00 L 3250.00 1448.00 L 3254.00 1448.00 L 3257.00 1451.00 L 3257.00 1452.00 L 3254.00 1455.00 L 3250.00 1455.00 L 3249.00 1454.00 Z" fill="#989999" stroke="none" fill-rule="evenodd"/></g>
<g id="c0122_k22" data-area="43" data-color="#989999"><path d="M 3274.00 1452.00 L 3273.00 1453.00 L 3275.00 1452.00 L 3278.00 1452.00 L 3279.00 1453.00 L 3279.00 1455.00 L 3278.00 1456.00 L 3274.00 1456.00 L 3273.00 1457.00 L 3273.00 1460.00 L 3274.00 1461.00 L 3277.00 1461.00 L 3278.00 1460.00 L 3280.00 1461.00 L 3280.00 1453.00 L 3277.00 1451.00 Z M 3273.00 1458.00 L 3275.00 1456.00 L 3278.00 1456.00 L 3279.00 1457.00 L 3279.00 1459.00 L 3277.00 1461.00 L 3275.00 1461.00 L 3273.00 1459.00 Z" fill="#989999" stroke="none" fill-rule="evenodd"/></g>
<g id="c0123_k03" data-area="41" data-color="#d2d2d2"><path d="M 3273.00 69.00 L 3273.00 72.00 L 3271.00 74.00 L 3273.00 75.00 L 3273.00 83.00 L 3277.00 84.00 L 3277.00 83.00 L 3275.00 83.00 L 3274.00 82.00 L 3274.00 75.00 L 3275.00 74.00 L 3277.00 74.00 L 3275.00 74.00 L 3274.00 73.00 L 3274.00 70.00 Z" fill="#d2d2d2" stroke="none" fill-rule="evenodd"/></g>
<g id="c0124_k22" data-area="41" data-color="#989999"><path d="M 3265.00 1451.00 L 3261.00 1454.00 L 3261.00 1458.00 L 3262.00 1460.00 L 3264.00 1461.00 L 3267.00 1461.00 L 3269.00 1459.00 L 3268.00 1459.00 L 3266.00 1461.00 L 3262.00 1459.00 L 3262.00 1457.00 L 3263.00 1456.00 L 3269.00 1456.00 L 3269.00 1454.00 Z M 3262.00 1453.00 L 3263.00 1452.00 L 3267.00 1452.00 L 3268.00 1453.00 L 3268.00 1455.00 L 3267.00 1456.00 L 3263.00 1456.00 L 3262.00 1455.00 Z" fill="#989999" stroke="none" fill-rule="evenodd"/></g>
<g id="c0125_k01" data-area="38" data-color="#1e1f23"><path d="M 96.00 90.00 L 97.00 91.00 L 97.00 94.00 L 101.00 93.00 L 103.00 95.00 L 102.00 89.00 L 97.00 89.00 Z" fill="#1e1f23" stroke="none" fill-rule="evenodd"/></g>
<g id="c0126_k05" data-area="38" data-color="#fafbf6"><path d="M 1187.00 55.00 L 1185.00 56.00 L 1184.00 58.00 L 1184.00 63.00 L 1185.00 65.00 L 1187.00 66.00 Z" fill="#fafbf6" stroke="none" fill-rule="evenodd"/></g>
<g id="c0127_k05" data-area="38" data-color="#fafbf6"><path d="M 1220.00 55.00 L 1220.00 66.00 L 1222.00 65.00 L 1223.00 63.00 L 1223.00 58.00 L 1222.00 56.00 Z" fill="#fafbf6" stroke="none" fill-rule="evenodd"/></g>
<g id="c0128_k01" data-area="37" data-color="#1e1f23"><path d="M 763.00 56.00 L 762.00 57.00 L 762.00 63.00 L 764.00 64.00 L 766.00 62.00 L 766.00 58.00 L 764.00 56.00 Z" fill="#1e1f23" stroke="none" fill-rule="evenodd"/></g>
<g id="c0129_k01" data-area="34" data-color="#1e1f23"><path d="M 1069.00 57.00 L 1068.00 61.00 L 1069.00 63.00 L 1072.00 63.00 L 1073.00 59.00 L 1072.00 57.00 Z" fill="#1e1f23" stroke="none" fill-rule="evenodd"/></g>
<g id="c0130_k01" data-area="34" data-color="#1e1f23"><path d="M 141.00 436.00 L 141.00 443.00 L 143.00 444.00 L 144.00 443.00 L 144.00 436.00 Z" fill="#1e1f23" stroke="none" fill-rule="evenodd"/></g>
<g id="c0131_k23" data-area="34" data-color="#6b6c6d"><path d="M 254.00 166.00 L 254.00 199.00 Z" fill="#6b6c6d" stroke="none" fill-rule="evenodd"/></g>
<g id="c0132_k03" data-area="33" data-color="#d2d2d2"><path d="M 226.00 166.00 L 226.00 198.00 Z" fill="#d2d2d2" stroke="none" fill-rule="evenodd"/></g>
<g id="c0133_k06" data-area="33" data-color="#2f3033"><path d="M 101.00 166.00 L 101.00 198.00 Z" fill="#2f3033" stroke="none" fill-rule="evenodd"/></g>
<g id="c0134_k21" data-area="33" data-color="#c7c8c6"><path d="M 375.00 166.00 L 375.00 198.00 Z" fill="#c7c8c6" stroke="none" fill-rule="evenodd"/></g>
<g id="c0135_k22" data-area="33" data-color="#989999"><path d="M 232.00 166.00 L 232.00 198.00 Z" fill="#989999" stroke="none" fill-rule="evenodd"/></g>
<g id="c0136_k22" data-area="33" data-color="#989999"><path d="M 3317.00 1448.00 L 3310.00 1448.00 L 3310.00 1461.00 L 3310.00 1456.00 L 3311.00 1455.00 L 3316.00 1455.00 L 3316.00 1454.00 L 3311.00 1454.00 L 3310.00 1453.00 L 3310.00 1449.00 L 3311.00 1448.00 Z" fill="#989999" stroke="none" fill-rule="evenodd"/></g>
<g id="c0137_k22" data-area="33" data-color="#989999"><path d="M 3330.00 1451.00 L 3329.00 1452.00 L 3327.00 1452.00 L 3326.00 1454.00 L 3326.00 1459.00 L 3329.00 1461.00 L 3333.00 1460.00 L 3334.00 1458.00 L 3334.00 1454.00 Z M 3328.00 1452.00 L 3332.00 1452.00 L 3334.00 1455.00 L 3333.00 1459.00 L 3330.00 1461.00 L 3329.00 1461.00 L 3326.00 1458.00 L 3326.00 1455.00 Z" fill="#989999" stroke="none" fill-rule="evenodd"/></g>
<g id="c0138_k26" data-area="33" data-color="#ababac"><path d="M 369.00 166.00 L 369.00 198.00 Z" fill="#ababac" stroke="none" fill-rule="evenodd"/></g>
<g id="c0139_k01" data-area="32" data-color="#1e1f23"><path d="M 3237.00 32.00 L 3236.00 34.00 L 3236.00 37.00 L 3237.00 38.00 L 3240.00 38.00 L 3240.00 36.00 L 3241.00 35.00 L 3239.00 32.00 Z" fill="#1e1f23" stroke="none" fill-rule="evenodd"/></g>
<g id="c0140_k13" data-area="32" data-color="#fefefe"><path d="M 3312.00 25.00 L 3312.00 28.00 L 3310.00 30.00 L 3309.00 30.00 L 3311.00 30.00 L 3312.00 31.00 L 3312.00 39.00 L 3316.00 41.00 L 3316.00 40.00 L 3314.00 40.00 L 3312.00 37.00 L 3312.00 31.00 L 3313.00 30.00 L 3316.00 30.00 L 3314.00 30.00 L 3312.00 28.00 Z" fill="#fefefe" stroke="none" fill-rule="evenodd"/></g>
<g id="c0141_k27" data-area="29" data-color="#e9e9e8"><path d="M 260.00 171.00 L 260.00 194.00 L 265.00 194.00 L 261.00 194.00 L 260.00 193.00 Z" fill="#e9e9e8" stroke="none" fill-rule="evenodd"/></g>
<g id="c0142_k01" data-area="28" data-color="#1e1f23"><path d="M 728.00 51.00 L 728.00 55.00 L 732.00 55.00 L 733.00 54.00 L 733.00 52.00 L 732.00 51.00 Z" fill="#1e1f23" stroke="none" fill-rule="evenodd"/></g>
<g id="c0143_k01" data-area="28" data-color="#1e1f23"><path d="M 3223.00 76.00 L 3222.00 79.00 L 3223.00 81.00 L 3225.00 82.00 L 3226.00 81.00 L 3226.00 76.00 Z" fill="#1e1f23" stroke="none" fill-rule="evenodd"/></g>
<g id="c0144_k13" data-area="28" data-color="#fefefe"><path d="M 3217.00 30.00 L 3215.00 30.00 L 3214.00 31.00 L 3212.00 30.00 L 3212.00 41.00 L 3213.00 40.00 L 3213.00 32.00 Z" fill="#fefefe" stroke="none" fill-rule="evenodd"/></g>
<g id="c0145_k22" data-area="28" data-color="#989999"><path d="M 3288.00 1451.00 L 3284.00 1454.00 L 3284.00 1458.00 L 3287.00 1461.00 L 3289.00 1461.00 L 3292.00 1459.00 L 3291.00 1459.00 L 3289.00 1461.00 L 3285.00 1459.00 L 3284.00 1457.00 L 3285.00 1454.00 L 3287.00 1452.00 L 3290.00 1452.00 L 3291.00 1453.00 L 3291.00 1452.00 L 3289.00 1452.00 Z" fill="#989999" stroke="none" fill-rule="evenodd"/></g>
<g id="c0146_k01" data-area="27" data-color="#1e1f23"><path d="M 3251.00 76.00 L 3249.00 76.00 L 3248.00 77.00 L 3248.00 80.00 L 3250.00 82.00 L 3252.00 80.00 L 3252.00 77.00 Z" fill="#1e1f23" stroke="none" fill-rule="evenodd"/></g>
<g id="c0147_k01" data-area="25" data-color="#1e1f23"><path d="M 3236.00 76.00 L 3235.00 77.00 L 3235.00 80.00 L 3236.00 81.00 L 3238.00 81.00 L 3239.00 80.00 L 3239.00 78.00 L 3238.00 76.00 Z" fill="#1e1f23" stroke="none" fill-rule="evenodd"/></g>
<g id="c0148_k03" data-area="24" data-color="#d2d2d2"><path d="M 42.00 1309.00 L 65.00 1309.00 Z" fill="#d2d2d2" stroke="none" fill-rule="evenodd"/></g>
<g id="c0149_k09" data-area="24" data-color="#767779"><path d="M 221.00 175.00 L 221.00 198.00 Z" fill="#767779" stroke="none" fill-rule="evenodd"/></g>
<g id="c0150_k29" data-area="24" data-color="#535456"><path d="M 106.00 171.00 L 106.00 194.00 Z" fill="#535456" stroke="none" fill-rule="evenodd"/></g>
</svg>